<svg width="18" height="22" viewBox="0 0 18 22" fill="none" xmlns="http://www.w3.org/2000/svg">
    <path
        d="M16.2 15.8633H18V17.6633H0V15.8633H1.8V9.56328C1.8 7.65372 2.55857 5.82237 3.90883 4.47211C5.25909 3.12185 7.09044 2.36328 9 2.36328C10.9096 2.36328 12.7409 3.12185 14.0912 4.47211C15.4414 5.82237 16.2 7.65372 16.2 9.56328V15.8633ZM14.4 15.8633V9.56328C14.4 8.13111 13.8311 6.7576 12.8184 5.7449C11.8057 4.73221 10.4322 4.16328 9 4.16328C7.56783 4.16328 6.19432 4.73221 5.18162 5.7449C4.16893 6.7576 3.6 8.13111 3.6 9.56328V15.8633H14.4ZM6.3 19.4633H11.7V21.2633H6.3V19.4633Z"
        fill="currentColor" />
    <path
        d="M16.5621 3.54375C16.5621 5.22477 15.1994 6.5875 13.5184 6.5875C11.8373 6.5875 10.4746 5.22477 10.4746 3.54375C10.4746 1.86273 11.8373 0.5 13.5184 0.5C15.1994 0.5 16.5621 1.86273 16.5621 3.54375Z"
        fill="white" stroke="currentColor" />
</svg>