<svg width="44" height="44" viewBox="0 0 44 44" fill="none" xmlns="http://www.w3.org/2000/svg">
    <path
        d="M27.5 22C27.5 25.0378 25.0378 27.5 22 27.5C18.9622 27.5 16.5 25.0378 16.5 22C16.5 18.9622 18.9622 16.5 22 16.5C25.0378 16.5 27.5 18.9622 27.5 22Z"
        fill="currentColor" />
    <path
        d="M27.5231 15.1204L26.8863 12.5723H17.1132L16.4763 15.1204C16.4337 15.2903 16.3355 15.4411 16.1974 15.5488C16.0593 15.6566 15.8892 15.7151 15.714 15.7151H8.64258V29.858H35.3569V15.7151H28.2854C28.1103 15.7151 27.9402 15.6566 27.802 15.5488C27.6639 15.4411 27.5658 15.2903 27.5231 15.1204ZM21.9997 29.0723C18.0941 29.0723 14.9283 25.9064 14.9283 22.0008C14.9283 18.0952 18.0941 14.9294 21.9997 14.9294C25.9053 14.9294 29.0711 18.0952 29.0711 22.0008C29.0665 25.9045 25.9033 29.0676 21.9997 29.0723Z"
        fill="currentColor" />
    <path
        d="M22 0C9.84991 0 0 9.84991 0 22C0 34.1501 9.84991 44 22 44C34.1501 44 44 34.1501 44 22C43.9862 9.85561 34.1444 0.01375 22 0ZM36.9286 30.6429C36.9286 30.8512 36.8458 31.0511 36.6984 31.1984C36.5511 31.3458 36.3512 31.4286 36.1429 31.4286H7.85714C7.64876 31.4286 7.44891 31.3458 7.30156 31.1984C7.15421 31.0511 7.07143 30.8512 7.07143 30.6429V14.9286C7.07143 14.7202 7.15421 14.5203 7.30156 14.373C7.44891 14.2256 7.64876 14.1429 7.85714 14.1429H15.1008L15.7377 11.5947C15.7803 11.4248 15.8785 11.274 16.0166 11.1663C16.1547 11.0586 16.3248 11 16.5 11H27.5C27.6752 11 27.8453 11.0586 27.9834 11.1663C28.1215 11.274 28.2197 11.4248 28.2623 11.5947L28.8992 14.1429H36.1429C36.3512 14.1429 36.5511 14.2256 36.6984 14.373C36.8458 14.5203 36.9286 14.7202 36.9286 14.9286V30.6429Z"
        fill="currentColor" />
</svg>