<svg width="18" height="22" viewBox="0 0 18 22" fill="none" xmlns="http://www.w3.org/2000/svg">
    <path
        d="M14.75 21.5H2.75C1.23 21.5 0 20.27 0 18.75V3.75C0 2.23 1.23 1 2.75 1H4.75C5.16 1 5.5 1.34 5.5 1.75V3H12V1.75C12 1.34 12.34 1 12.75 1H14.75C16.27 1 17.5 2.23 17.5 3.75V18.75C17.5 20.27 16.27 21.5 14.75 21.5ZM2.75 2.5C2.06 2.5 1.5 3.06 1.5 3.75V18.75C1.5 19.44 2.06 20 2.75 20H14.75C15.44 20 16 19.44 16 18.75V3.75C16 3.06 15.44 2.5 14.75 2.5H13.5V3.25C13.5 3.94 12.94 4.5 12.25 4.5H5.25C4.56 4.5 4 3.94 4 3.25V2.5H2.75Z"
        fill="currentColor" />
    <path
        d="M12.2495 4.5H5.24945C4.55945 4.5 3.99945 3.94 3.99945 3.25V1.25C3.99945 0.56 4.55945 0 5.24945 0H12.2495C12.9395 0 13.4995 0.56 13.4995 1.25V3.25C13.4995 3.94 12.9395 4.5 12.2495 4.5ZM5.49945 3H11.9995V1.5H5.49945V3ZM13.7495 17.5H9.74945C9.33945 17.5 8.99945 17.16 8.99945 16.75C8.99945 16.34 9.33945 16 9.74945 16H13.7495C14.1595 16 14.4995 16.34 14.4995 16.75C14.4995 17.16 14.1595 17.5 13.7495 17.5ZM13.7495 13H9.74945C9.33945 13 8.99945 12.66 8.99945 12.25C8.99945 11.84 9.33945 11.5 9.74945 11.5H13.7495C14.1595 11.5 14.4995 11.84 14.4995 12.25C14.4995 12.66 14.1595 13 13.7495 13ZM13.7495 8.5H9.74945C9.33945 8.5 8.99945 8.16 8.99945 7.75C8.99945 7.34 9.33945 7 9.74945 7H13.7495C14.1595 7 14.4995 7.34 14.4995 7.75C14.4995 8.16 14.1595 8.5 13.7495 8.5ZM4.74945 9.5C4.55945 9.5 4.36945 9.43 4.21945 9.28L3.21945 8.28C2.92945 7.99 2.92945 7.51 3.21945 7.22C3.50945 6.93 3.98945 6.93 4.27945 7.22L4.74945 7.69L6.21945 6.22C6.50945 5.93 6.98945 5.93 7.27945 6.22C7.56945 6.51 7.56945 6.99 7.27945 7.28L5.27945 9.28C5.12945 9.43 4.93945 9.5 4.74945 9.5ZM4.74945 14C4.55945 14 4.36945 13.93 4.21945 13.78L3.21945 12.78C2.92945 12.49 2.92945 12.01 3.21945 11.72C3.50945 11.43 3.98945 11.43 4.27945 11.72L4.74945 12.19L6.21945 10.72C6.50945 10.43 6.98945 10.43 7.27945 10.72C7.56945 11.01 7.56945 11.49 7.27945 11.78L5.27945 13.78C5.12945 13.93 4.93945 14 4.74945 14ZM4.74945 18.5C4.55945 18.5 4.36945 18.43 4.21945 18.28L3.21945 17.28C2.92945 16.99 2.92945 16.51 3.21945 16.22C3.50945 15.93 3.98945 15.93 4.27945 16.22L4.74945 16.69L6.21945 15.22C6.50945 14.93 6.98945 14.93 7.27945 15.22C7.56945 15.51 7.56945 15.99 7.27945 16.28L5.27945 18.28C5.12945 18.43 4.93945 18.5 4.74945 18.5Z"
        fill="currentColor" />
</svg>