<svg width="9" height="16" viewBox="0 0 9 16" fill="none" xmlns="http://www.w3.org/2000/svg">
    <path
        d="M1.05277 1.10868C1.14963 0.997788 1.26644 0.907698 1.39758 0.845401C1.52929 0.782833 1.67196 0.75 1.81707 0.75C1.96218 0.75 2.10485 0.782833 2.23656 0.845401C2.36803 0.907857 2.4851 0.998246 2.58211 1.10952L1.05277 1.10868ZM1.05277 1.10868C0.649998 1.56154 0.650587 2.29942 1.04552 2.75155L5.62675 7.99628L1.05203 13.2408C0.650416 13.7006 0.650416 14.4305 1.05203 14.8903C1.47098 15.3699 2.16316 15.3699 2.58211 14.8903L7.99753 8.69054C7.99756 8.69051 7.99759 8.69048 7.99762 8.69045C8.07938 8.59701 8.14275 8.48781 8.18551 8.36979C8.22828 8.25174 8.25 8.12613 8.25 7.9999C8.25 7.87367 8.22828 7.74807 8.18551 7.63001C8.14275 7.51199 8.07937 7.40278 7.99761 7.30935C7.99759 7.30932 7.99756 7.30929 7.99753 7.30926L2.58231 1.10976L1.05277 1.10868Z"
        fill="currentColor" stroke="currentColor" stroke-width="0.5" />
</svg>