<svg width="23" height="23" viewBox="0 0 23 23" fill="none" xmlns="http://www.w3.org/2000/svg">
<g clip-path="url(#clip0_1797_4588)">
<path d="M20.3645 0H2.63548C1.18166 0 0 1.18166 0 2.63548V20.3645C0 21.8183 1.18166 23 2.63548 23H20.3645C21.8183 23 23 21.8183 23 20.3645V2.63548C23 1.18166 21.8183 0 20.3645 0ZM15.7349 14.3797C16.1096 14.7546 16.1096 15.3612 15.7349 15.7349C15.5481 15.9218 15.3027 16.0157 15.0573 16.0157C14.8119 16.0157 14.5666 15.9218 14.3797 15.7349L11.5 12.855L8.62026 15.7349C8.43338 15.9218 8.18806 16.0157 7.94275 16.0157C7.69726 16.0157 7.45194 15.9218 7.26506 15.7349C6.89042 15.3612 6.89042 14.7546 7.26506 14.3797L10.145 11.5L7.26506 8.62026C6.89042 8.24545 6.89042 7.63882 7.26506 7.26506C7.63988 6.89042 8.24545 6.89042 8.62026 7.26506L11.5 10.145L14.3797 7.26506C14.7546 6.89042 15.3601 6.89042 15.7349 7.26506C16.1096 7.63882 16.1096 8.24545 15.7349 8.62026L12.855 11.5L15.7349 14.3797Z" fill="#3448AA"/>
</g>
<defs>
<clipPath id="clip0_1797_4588">
<rect width="23" height="23" fill="white"/>
</clipPath>
</defs>
</svg>
