<svg width="26" height="26" viewBox="0 0 26 26" fill="none" xmlns="http://www.w3.org/2000/svg">
<path d="M13 0.5C19.9036 0.5 25.5 6.09644 25.5 13C25.5 19.9036 19.9036 25.5 13 25.5C6.09644 25.5 0.5 19.9036 0.5 13C0.5 6.09644 6.09644 0.5 13 0.5ZM13 2.375C7.13197 2.375 2.375 7.13197 2.375 13C2.375 18.868 7.13197 23.625 13 23.625C18.868 23.625 23.625 18.868 23.625 13C23.625 7.13197 18.868 2.375 13 2.375ZM17.3078 8.49632L17.4129 8.58709C17.7457 8.91992 17.776 9.44075 17.5037 9.80777L17.4129 9.91291L14.3263 13L17.4129 16.0871C17.7457 16.4199 17.776 16.9408 17.5037 17.3078L17.4129 17.4129C17.0801 17.7457 16.5592 17.776 16.1922 17.5037L16.0871 17.4129L13 14.3263L9.91291 17.4129C9.58008 17.7457 9.05925 17.776 8.69223 17.5037L8.58709 17.4129C8.25425 17.0801 8.224 16.5592 8.49632 16.1922L8.58709 16.0871L11.6737 13L8.58709 9.91291C8.25425 9.58008 8.224 9.05925 8.49632 8.69223L8.58709 8.58709C8.91992 8.25425 9.44075 8.224 9.80777 8.49632L9.91291 8.58709L13 11.6737L16.0871 8.58709C16.4199 8.25425 16.9408 8.224 17.3078 8.49632Z" fill="currentColor"/>
</svg>
