<svg width="44" height="44" viewBox="0 0 44 44" fill="none" xmlns="http://www.w3.org/2000/svg">
<g clip-path="url(#clip0_1797_4560)">
<path d="M11.264 0H25.99L38.4562 12.9994V38.2789C38.4562 41.4357 35.8919 44 32.7267 44H11.2641C8.10729 44 5.54297 41.4357 5.54297 38.2789V5.72111C5.54291 2.56432 8.10724 0 11.264 0Z" fill="#3448AA"/>
<path fill-rule="evenodd" clip-rule="evenodd" d="M25.9727 0V12.8979H38.4558L25.9727 0Z" fill="white"/>
<path d="M27.8009 22.8924H16.1979C15.6647 22.8924 15.2246 22.4608 15.2246 21.9277C15.2246 21.3945 15.6647 20.9629 16.1979 20.9629H27.8009C28.3341 20.9629 28.7657 21.3945 28.7657 21.9277C28.7657 22.4608 28.3341 22.8924 27.8009 22.8924ZM23.9332 34.4954H16.1979C15.6647 34.4954 15.2246 34.0638 15.2246 33.5307C15.2246 32.9975 15.6647 32.5659 16.1979 32.5659H23.9332C24.4664 32.5659 24.898 32.9975 24.898 33.5307C24.898 34.0638 24.4664 34.4954 23.9332 34.4954ZM27.8009 30.6278H16.1979C15.6647 30.6278 15.2246 30.1961 15.2246 29.663C15.2246 29.1299 15.6647 28.6982 16.1979 28.6982H27.8009C28.3341 28.6982 28.7657 29.1299 28.7657 29.663C28.7657 30.1961 28.3341 30.6278 27.8009 30.6278ZM27.8009 26.7601H16.1979C15.6647 26.7601 15.2246 26.3285 15.2246 25.7953C15.2246 25.2622 15.6647 24.8306 16.1979 24.8306H27.8009C28.3341 24.8306 28.7657 25.2622 28.7657 25.7953C28.7657 26.3285 28.3341 26.7601 27.8009 26.7601Z" fill="white"/>
</g>
<defs>
<clipPath id="clip0_1797_4560">
<rect width="44" height="44" fill="white"/>
</clipPath>
</defs>
</svg>
