<svg width="24" height="24" viewBox="0 0 24 24" fill="none" xmlns="http://www.w3.org/2000/svg">
    <g clip-path="url(#clip0_1747_7957)">
        <path
            d="M22.8281 10.8281C22.1812 10.8281 21.6562 11.3531 21.6562 12C21.6562 17.325 17.325 21.6562 12 21.6562C6.675 21.6562 2.34375 17.325 2.34375 12C2.34375 11.3531 1.81875 10.8281 1.17188 10.8281C0.525 10.8281 0 11.3531 0 12C0 15.2063 1.24687 18.2203 3.51562 20.4844C5.78438 22.7531 8.79375 24 12 24C15.2063 24 18.2203 22.7531 20.4844 20.4844C22.7531 18.2156 24 15.2063 24 12C24 11.3531 23.475 10.8281 22.8281 10.8281Z"
            fill="currentColor" />
        <path
            d="M10.3924 16.1062C10.8236 16.5375 11.3955 16.7719 12.0002 16.7719C12.6096 16.7719 13.1814 16.5328 13.608 16.1062L16.5564 13.1578C17.0158 12.6984 17.0158 11.9578 16.5564 11.4984C16.0971 11.0391 15.3564 11.0391 14.8971 11.4984L13.1721 13.2281V1.17187C13.1721 0.525 12.6471 0 12.0002 0C11.3533 0 10.8283 0.525 10.8283 1.17187V13.2281L9.09863 11.4984C8.63926 11.0391 7.89863 11.0391 7.43926 11.4984C6.97988 11.9578 6.97988 12.6984 7.43926 13.1578L10.3924 16.1062Z"
            fill="currentColor" />
    </g>
    <defs>
        <clipPath id="clip0_1747_7957">
            <rect width="24" height="24" fill="currentColor" />
        </clipPath>
    </defs>
</svg>