<svg width="22" height="24" viewBox="0 0 22 24" fill="none" xmlns="http://www.w3.org/2000/svg">
    <path
        d="M19.4375 2.8125H15.9219V2.10938C15.9219 0.946266 14.9756 0 13.8125 0H8.1875C7.02439 0 6.07812 0.946266 6.07812 2.10938V2.8125H2.5625C1.39939 2.8125 0.453125 3.75877 0.453125 4.92188C0.453125 5.856 1.06367 6.64973 1.90648 6.9263L3.16062 22.0658C3.25095 23.1504 4.1743 24 5.26269 24H16.7373C17.8258 24 18.7491 23.1504 18.8395 22.0654L20.0935 6.92625C20.9363 6.64973 21.5469 5.856 21.5469 4.92188C21.5469 3.75877 20.6006 2.8125 19.4375 2.8125ZM7.48438 2.10938C7.48438 1.72167 7.7998 1.40625 8.1875 1.40625H13.8125C14.2002 1.40625 14.5156 1.72167 14.5156 2.10938V2.8125H7.48438V2.10938ZM17.438 21.949C17.4079 22.3105 17.1001 22.5938 16.7373 22.5938H5.26269C4.89992 22.5938 4.59214 22.3105 4.56209 21.9494L3.32628 7.03125H18.6737L17.438 21.949ZM19.4375 5.625H2.5625C2.1748 5.625 1.85938 5.30958 1.85938 4.92188C1.85938 4.53417 2.1748 4.21875 2.5625 4.21875H19.4375C19.8252 4.21875 20.1406 4.53417 20.1406 4.92188C20.1406 5.30958 19.8252 5.625 19.4375 5.625Z"
        fill="currentColor" />
    <path
        d="M8.1862 20.4409L7.48307 9.09715C7.45902 8.70954 7.12354 8.41474 6.73781 8.43888C6.3502 8.46293 6.05549 8.79659 6.07949 9.18415L6.78262 20.5279C6.80573 20.9007 7.11529 21.1876 7.48373 21.1876C7.89093 21.1876 8.21118 20.8446 8.1862 20.4409ZM11.0001 8.43757C10.6117 8.43757 10.2969 8.75238 10.2969 9.1407V20.4844C10.2969 20.8728 10.6117 21.1876 11.0001 21.1876C11.3884 21.1876 11.7032 20.8728 11.7032 20.4844V9.1407C11.7032 8.75238 11.3884 8.43757 11.0001 8.43757ZM15.2623 8.43893C14.8755 8.41488 14.541 8.70959 14.517 9.0972L13.8139 20.4409C13.7899 20.8285 14.0846 21.1622 14.4722 21.1862C14.86 21.2102 15.1934 20.9154 15.2174 20.5279L15.9206 9.1842C15.9446 8.79659 15.6499 8.46293 15.2623 8.43893Z"
        fill="currentColor" />
</svg>