<svg width="37" height="50" viewBox="0 0 37 50" fill="none" xmlns="http://www.w3.org/2000/svg">
<path d="M17.6922 27.3672V49.9996H3.5762C1.6184 49.9996 0.03125 48.4416 0.03125 46.5198V28.5271C0.03125 27.8865 0.560337 27.3672 1.21294 27.3672H17.6922Z" fill="#D8D4C9"/>
<path d="M17.6924 27.3672V50.0006H3.57699C2.2345 50.0006 1.06603 49.2685 0.464844 48.188C3.45494 44.2757 5.22572 39.4149 5.22572 34.1481C5.22572 31.7898 4.87089 29.5136 4.20981 27.3672H17.6924Z" fill="#B5B1A4"/>
<path d="M7.15226 46.5198V1.15996C7.15226 0.519357 7.68135 0 8.33395 0H34.8507C35.5033 0 36.0324 0.519357 36.0324 1.15996V46.5198C36.0324 48.4416 34.4452 49.9996 32.4874 49.9996H3.60742C5.56523 49.9996 7.15226 48.4416 7.15226 46.5198Z" fill="#F1EEE0"/>
<path d="M9.11328 27.9714C8.02923 27.9714 7.15039 27.1087 7.15039 26.0446V6.5889C7.15039 5.52478 8.02923 4.66211 9.11328 4.66211C10.1973 4.66211 11.0762 5.52478 11.0762 6.5889V26.0445C11.0763 27.1087 10.1974 27.9714 9.11328 27.9714Z" fill="#F9F8F2"/>
<path d="M36.0322 1.16029V46.5202C36.0322 48.4415 34.4456 50 32.4873 50H21.2207C28.314 38.1586 32.3822 24.3627 32.3822 9.63283C32.3822 6.37271 32.1833 3.15807 31.7957 0H34.8513C35.5033 0 36.0322 0.519135 36.0322 1.16029Z" fill="#E8E4D8"/>
<path d="M7.15039 38.2441H36.0298V40.6479H7.15039V38.2441Z" fill="#FFC751"/>
<path d="M22.0882 38.2441H11.5135C10.8372 38.2441 10.2891 38.7822 10.2891 39.446C10.2891 40.1098 10.8372 40.6479 11.5135 40.6479H22.0882C22.7644 40.6479 23.3126 40.1098 23.3126 39.446C23.3126 38.7822 22.7644 38.2441 22.0882 38.2441Z" fill="#FFE059"/>
<path d="M36.0298 1.16029V8.99501H7.15039V1.16029C7.15039 0.519135 7.67925 0 8.33242 0H34.8489C35.501 0 36.0298 0.519135 36.0298 1.16029Z" fill="#FFC751"/>
<path d="M36.0315 1.16029V8.99501H32.3792C32.3543 5.95341 32.1577 2.95175 31.7949 0H34.8506C35.5026 0 36.0315 0.519135 36.0315 1.16029Z" fill="#FFAF40"/>
<path d="M13.3958 14.677H11.2819C11.149 14.677 11.0173 14.6513 10.8945 14.6014C10.7717 14.5514 10.6601 14.4782 10.5661 14.386C10.472 14.2937 10.3975 14.1841 10.3466 14.0635C10.2957 13.943 10.2695 13.8137 10.2695 13.6832C10.2695 13.4197 10.3762 13.1669 10.5661 12.9805C10.7559 12.7942 11.0134 12.6895 11.2819 12.6895H13.3958C13.6643 12.6895 13.9218 12.7942 14.1117 12.9805C14.3015 13.1669 14.4082 13.4197 14.4082 13.6832C14.4082 13.9468 14.3015 14.1996 14.1117 14.386C13.9218 14.5723 13.6643 14.677 13.3958 14.677ZM19.611 17.8472H11.2819C11.0134 17.8472 10.7559 17.7425 10.5661 17.5561C10.3762 17.3697 10.2695 17.117 10.2695 16.8534C10.2695 16.5898 10.3762 16.3371 10.5661 16.1507C10.7559 15.9643 11.0134 15.8596 11.2819 15.8596H19.611C19.8796 15.8596 20.1371 15.9643 20.3269 16.1507C20.5168 16.3371 20.6235 16.5898 20.6235 16.8534C20.6235 17.117 20.5168 17.3697 20.3269 17.5561C20.1371 17.7425 19.8796 17.8472 19.611 17.8472Z" fill="#8F8B81"/>
<path d="M32.7011 15.4583C32.733 15.4377 32.7592 15.4096 32.7773 15.3766C32.7954 15.3436 32.8049 15.3067 32.8049 15.2692C32.8049 15.2317 32.7954 15.1948 32.7773 15.1618C32.7592 15.1288 32.733 15.1007 32.7011 15.0801C32.3435 14.849 32.0041 14.5799 31.6889 14.2728C31.3737 13.9658 31.0975 13.6351 30.8602 13.2868C30.7682 13.1518 30.564 13.1518 30.4721 13.2868C30.2347 13.6351 29.9586 13.9658 29.6434 14.2728C29.3282 14.5799 28.9888 14.8489 28.6312 15.0801C28.5993 15.1007 28.5731 15.1288 28.555 15.1618C28.5368 15.1948 28.5273 15.2317 28.5273 15.2692C28.5273 15.3067 28.5368 15.3436 28.555 15.3766C28.5731 15.4096 28.5993 15.4377 28.6312 15.4583C28.9888 15.6895 29.3282 15.9586 29.6434 16.2656C29.9586 16.5727 30.2347 16.9033 30.4721 17.2516C30.564 17.3866 30.7682 17.3866 30.8602 17.2516C31.0975 16.9033 31.3737 16.5727 31.6889 16.2656C32.0041 15.9586 32.3435 15.6895 32.7011 15.4583Z" fill="#FFAF40"/>
<path d="M13.3958 23.0774H11.2819C11.0134 23.0774 10.7559 22.9727 10.5661 22.7863C10.3762 22.6 10.2695 22.3472 10.2695 22.0836C10.2695 21.8201 10.3762 21.5673 10.5661 21.3809C10.7559 21.1945 11.0134 21.0898 11.2819 21.0898H13.3958C13.6643 21.0898 13.9218 21.1945 14.1117 21.3809C14.3015 21.5673 14.4082 21.8201 14.4082 22.0836C14.4082 22.3472 14.3015 22.6 14.1117 22.7863C13.9218 22.9727 13.6643 23.0774 13.3958 23.0774ZM19.611 26.2476H11.2819C11.0134 26.2476 10.7559 26.1429 10.5661 25.9565C10.3762 25.7701 10.2695 25.5174 10.2695 25.2538C10.2695 24.9902 10.3762 24.7375 10.5661 24.5511C10.7559 24.3647 11.0134 24.26 11.2819 24.26H19.611C19.8796 24.26 20.1371 24.3647 20.3269 24.5511C20.5168 24.7375 20.6235 24.9902 20.6235 25.2538C20.6235 25.5174 20.5168 25.7701 20.3269 25.9565C20.1371 26.1429 19.8796 26.2476 19.611 26.2476Z" fill="#8F8B81"/>
<path d="M32.7011 23.8548C32.733 23.8342 32.7592 23.8061 32.7773 23.7731C32.7954 23.7401 32.8049 23.7032 32.8049 23.6657C32.8049 23.6282 32.7954 23.5913 32.7773 23.5583C32.7592 23.5253 32.733 23.4972 32.7011 23.4766C32.3435 23.2455 32.0041 22.9763 31.6889 22.6693C31.3737 22.3623 31.0975 22.0316 30.8602 21.6833C30.7682 21.5483 30.564 21.5483 30.4721 21.6833C30.2347 22.0316 29.9586 22.3623 29.6434 22.6693C29.3282 22.9763 28.9888 23.2453 28.6312 23.4766C28.5993 23.4972 28.5731 23.5253 28.555 23.5583C28.5368 23.5913 28.5273 23.6282 28.5273 23.6657C28.5273 23.7032 28.5368 23.7401 28.555 23.7731C28.5731 23.8061 28.5993 23.8342 28.6312 23.8548C28.9888 24.0859 29.3282 24.355 29.6434 24.6621C29.9586 24.9691 30.2347 25.2998 30.4721 25.6481C30.564 25.7831 30.7682 25.7831 30.8602 25.6481C31.1023 25.2931 31.3799 24.9628 31.6889 24.6621C31.9981 24.3606 32.3371 24.0901 32.7011 23.8548Z" fill="#FFAF40"/>
<path d="M13.3978 31.47H11.2839C11.0154 31.47 10.7579 31.3653 10.568 31.1789C10.3781 30.9926 10.2715 30.7398 10.2715 30.4762C10.2715 30.2126 10.3781 29.9599 10.568 29.7735C10.7579 29.5871 11.0154 29.4824 11.2839 29.4824H13.3978C13.6663 29.4824 13.9238 29.5871 14.1136 29.7735C14.3035 29.9599 14.4102 30.2126 14.4102 30.4762C14.4102 30.7398 14.3035 30.9926 14.1136 31.1789C13.9238 31.3653 13.6663 31.47 13.3978 31.47ZM19.613 34.6402H11.2839C11.0154 34.6402 10.7579 34.5355 10.568 34.3491C10.3781 34.1627 10.2715 33.9099 10.2715 33.6464C10.2715 33.3828 10.3781 33.13 10.568 32.9437C10.7579 32.7573 11.0154 32.6526 11.2839 32.6526H19.613C19.8815 32.6526 20.139 32.7573 20.3289 32.9437C20.5187 33.13 20.6254 33.3828 20.6254 33.6464C20.6254 33.9099 20.5187 34.1627 20.3289 34.3491C20.139 34.5355 19.8815 34.6402 19.613 34.6402Z" fill="#8F8B81"/>
<path d="M14.314 32.6538H12.489C12.2205 32.6538 11.963 32.7585 11.7731 32.9449C11.5832 33.1313 11.4766 33.384 11.4766 33.6476C11.4766 33.9112 11.5832 34.164 11.7731 34.3503C11.963 34.5367 12.2205 34.6414 12.489 34.6414H14.3139C14.5824 34.6414 14.8399 34.5367 15.0298 34.3503C15.2196 34.164 15.3263 33.9112 15.3263 33.6476C15.3263 33.5171 15.3002 33.3879 15.2493 33.2673C15.1984 33.1467 15.1239 33.0372 15.0299 32.9449C14.9359 32.8526 14.8243 32.7794 14.7014 32.7294C14.5786 32.6795 14.4469 32.6538 14.314 32.6538ZM14.314 24.2566H12.489C12.2205 24.2566 11.963 24.3613 11.7731 24.5477C11.5832 24.734 11.4766 24.9868 11.4766 25.2504C11.4766 25.514 11.5832 25.7667 11.7731 25.9531C11.963 26.1395 12.2205 26.2442 12.489 26.2442H14.3139C14.5824 26.2442 14.8399 26.1395 15.0298 25.9531C15.2196 25.7667 15.3263 25.514 15.3263 25.2504C15.3263 25.1199 15.3002 24.9907 15.2493 24.8701C15.1984 24.7495 15.1239 24.6399 15.0299 24.5476C14.9359 24.4554 14.8243 24.3822 14.7014 24.3322C14.5786 24.2823 14.4469 24.2566 14.314 24.2566ZM14.314 15.8594H12.489C12.2205 15.8594 11.963 15.9641 11.7731 16.1504C11.5832 16.3368 11.4766 16.5896 11.4766 16.8532C11.4766 17.1167 11.5832 17.3695 11.7731 17.5559C11.963 17.7422 12.2205 17.847 12.489 17.847H14.3139C14.5824 17.847 14.8399 17.7422 15.0298 17.5559C15.2196 17.3695 15.3263 17.1167 15.3263 16.8532C15.3263 16.7227 15.3002 16.5934 15.2493 16.4728C15.1984 16.3523 15.1239 16.2427 15.0299 16.1504C14.9359 16.0581 14.8243 15.9849 14.7014 15.935C14.5786 15.8851 14.4469 15.8594 14.314 15.8594Z" fill="#B5B1A4"/>
<path d="M24.6982 46.427H11.2839C11.0154 46.427 10.7579 46.3223 10.568 46.136C10.3781 45.9496 10.2715 45.6968 10.2715 45.4332C10.2715 45.1697 10.3781 44.9169 10.568 44.7305C10.7579 44.5442 11.0154 44.4395 11.2839 44.4395H24.6982C24.9667 44.4395 25.2242 44.5442 25.4141 44.7305C25.6039 44.9169 25.7106 45.1697 25.7106 45.4332C25.7106 45.6968 25.6039 45.9496 25.4141 46.136C25.2242 46.3223 24.9667 46.427 24.6982 46.427Z" fill="#8F8B81"/>
<path d="M16.8477 45.4332C16.8477 45.6968 16.9543 45.9496 17.1442 46.136C17.334 46.3223 17.5916 46.427 17.8601 46.427H21.0775C21.346 46.427 21.6035 46.3223 21.7934 46.136C21.9833 45.9496 22.0899 45.6968 22.0899 45.4332C22.0899 45.1697 21.9833 44.9169 21.7934 44.7305C21.6035 44.5442 21.346 44.4395 21.0775 44.4395H17.8601C17.5916 44.4395 17.3341 44.5442 17.1442 44.7306C16.9544 44.9169 16.8477 45.1697 16.8477 45.4332Z" fill="#B5B1A4"/>
<path d="M32.7011 32.2532C32.733 32.2326 32.7592 32.2045 32.7773 32.1715C32.7954 32.1385 32.8049 32.1016 32.8049 32.0641C32.8049 32.0266 32.7954 31.9897 32.7773 31.9567C32.7592 31.9237 32.733 31.8957 32.7011 31.8751C32.3435 31.6439 32.0041 31.3748 31.6889 31.0677C31.3737 30.7607 31.0975 30.43 30.8602 30.0817C30.7682 29.9467 30.564 29.9467 30.4721 30.0817C30.2347 30.43 29.9586 30.7607 29.6434 31.0677C29.3282 31.3748 28.9888 31.6438 28.6312 31.8751C28.5993 31.8957 28.5731 31.9237 28.555 31.9567C28.5368 31.9897 28.5273 32.0266 28.5273 32.0641C28.5273 32.1016 28.5368 32.1385 28.555 32.1715C28.5731 32.2045 28.5993 32.2326 28.6312 32.2532C28.9888 32.4844 29.3282 32.7535 29.6434 33.0605C29.9586 33.3676 30.2347 33.6982 30.4721 34.0466C30.564 34.1816 30.7682 34.1816 30.8602 34.0466C31.0975 33.6982 31.3737 33.3676 31.6889 33.0605C32.0041 32.7535 32.3435 32.4844 32.7011 32.2532ZM32.7011 45.5347C32.733 45.5141 32.7592 45.4861 32.7773 45.4531C32.7954 45.4201 32.8049 45.3832 32.8049 45.3457C32.8049 45.3082 32.7954 45.2713 32.7773 45.2383C32.7592 45.2053 32.733 45.1772 32.7011 45.1566C32.3435 44.9254 32.0041 44.6563 31.6889 44.3493C31.3737 44.0422 31.0975 43.7116 30.8602 43.3632C30.7682 43.2283 30.564 43.2283 30.4721 43.3632C30.2347 43.7116 29.9586 44.0422 29.6434 44.3493C29.3282 44.6563 28.9888 44.9253 28.6312 45.1566C28.5993 45.1772 28.5731 45.2053 28.555 45.2383C28.5368 45.2713 28.5273 45.3082 28.5273 45.3457C28.5273 45.3832 28.5368 45.4201 28.555 45.4531C28.5731 45.4861 28.5993 45.5141 28.6312 45.5347C28.9888 45.7659 29.3282 46.035 29.6434 46.3421C29.9586 46.6491 30.2347 46.9798 30.4721 47.3281C30.564 47.4631 30.7682 47.4631 30.8602 47.3281C31.0975 46.9798 31.3737 46.6491 31.6889 46.3421C32.0041 46.035 32.3435 45.7659 32.7011 45.5347Z" fill="#229BFF"/>
<path d="M27.4148 6.49193H15.7668C15.1426 6.49193 14.6367 5.99531 14.6367 5.38266V3.29481C14.6367 2.68216 15.1426 2.18555 15.7668 2.18555H27.4148C28.0389 2.18555 28.5449 2.68216 28.5449 3.29481V5.38266C28.5449 5.99531 28.0389 6.49193 27.4148 6.49193Z" fill="#F1EEE0"/>
<path d="M36.0285 38.2441V40.6479H26.0039C26.3474 39.8537 26.6763 39.0517 26.9927 38.2441H36.0285Z" fill="#FFAF40"/>
<path d="M11.0762 6.5889V8.99489H7.15039V6.5889C7.15039 5.52512 8.02957 4.66211 9.11328 4.66211C9.6557 4.66211 10.1461 4.87842 10.501 5.22672C10.8558 5.57503 11.0762 6.05645 11.0762 6.5889Z" fill="#FFE059"/>
</svg>
