<svg xmlns="http://www.w3.org/2000/svg" version="1.1" xmlns:xlink="http://www.w3.org/1999/xlink" width="24" height="24"
    x="0" y="0" viewBox="0 0 512 512" style="enable-background:new 0 0 512 512" xml:space="preserve" class="">
    <g>
        <path
            d="M511 109.5C511 49.673 462.327 1 402.5 1h-293C49.673 1 1 49.673 1 109.5v293C1 462.327 49.673 511 109.5 511h293c59.827 0 108.5-48.673 108.5-108.5v-293zM31 391V262.213l97.5-97.5L238.537 274.75l-23.144 23.144c-5.858 5.857-5.858 15.355 0 21.213 5.857 5.857 15.355 5.857 21.213 0L338.5 217.213l142.5 142.5V391zm78.5-360h293c43.285 0 78.5 35.215 78.5 78.5v207.787L349.106 185.394c-5.857-5.857-15.355-5.857-21.213 0l-68.144 68.144-120.643-120.644c-5.857-5.857-15.355-5.857-21.213 0L31 219.787V109.5C31 66.215 66.215 31 109.5 31zm293 450h-293c-36.912 0-67.937-25.616-76.278-60h445.556c-8.341 34.384-39.366 60-76.278 60z"
            fill="currentColor" opacity="1" data-original="#000000" class=""></path>
        <path
            d="M256 181c24.813 0 45-20.187 45-45s-20.187-45-45-45-45 20.187-45 45 20.187 45 45 45zm0-60c8.271 0 15 6.729 15 15s-6.729 15-15 15-15-6.729-15-15 6.729-15 15-15z"
            fill="currentColor" opacity="1" data-original="#000000" class=""></path>
    </g>
</svg>