<svg width="281" height="184" viewBox="0 0 281 184" fill="none" xmlns="http://www.w3.org/2000/svg">
<path d="M275.191 43.2649L270.811 64.4717L267.992 61.7259L263.196 65.1445L259.53 60.5956L251.311 66.5723L244.286 54.8248L236.452 59.4149L233.344 55.1268L223.395 60.7328L220.402 54.3259L227.377 20.5479L264.766 28.2682L275.191 43.2649Z" fill="#EBEBEB"/>
<path d="M264.765 28.2682L275.19 43.2649L262.221 40.5877L264.765 28.2682Z" fill="#DBDBDB"/>
<path d="M269.877 68.714L263.457 99.8286L213.094 89.4357L219.469 58.5636L222.462 64.9751L232.415 59.369L235.518 63.6525L243.357 59.0624L250.377 70.8099L258.601 64.8332L262.262 69.3821L267.063 65.9636L269.877 68.714Z" fill="#EBEBEB"/>
<path d="M197.795 65.0666L146.471 68.2426L142.394 2.35682L180.505 0L194.495 11.7338L197.795 65.0666Z" fill="#EBEBEB"/>
<path d="M180.506 0L194.496 11.7338L181.279 12.5529L180.506 0Z" fill="#DBDBDB"/>
<path d="M166.277 44.3265L166.08 42.8392C165.563 39.7593 166.405 36.3133 169.083 32.7118C171.494 29.5266 172.803 27.2064 172.661 24.6208C172.497 21.6919 170.552 19.843 166.932 19.9895C164.863 20.1039 162.607 20.9231 161.234 22.0946L159.655 18.5571C161.472 17.0743 164.694 15.9714 167.737 15.8021C174.336 15.4314 177.549 19.3396 177.796 23.7009C178.016 27.6045 175.993 30.538 173.421 33.9657C171.064 37.0913 170.286 39.6678 170.62 42.5875L170.762 44.0748L166.277 44.3265ZM165.463 52.4359C165.344 50.3124 166.694 48.7382 168.703 48.6283C170.712 48.5139 172.172 49.9326 172.291 52.056C172.405 54.065 171.169 55.6896 169.046 55.8086C167.042 55.9185 165.577 54.4449 165.463 52.4359Z" fill="#DBDBDB"/>
<path d="M37.9204 33.1237L32.7537 30.7806L32.0398 32.3641C31.8293 32.8308 31.3717 33.1237 30.8637 33.1466C30.58 33.1603 30.3008 33.1878 30.0216 33.229C29.5182 33.3068 29.0148 33.1009 28.7174 32.689L27.706 31.2795L23.093 34.5836L24.1044 35.9931C24.4019 36.405 24.4293 36.9496 24.1959 37.4026C24.0632 37.6543 23.9488 37.9106 23.8481 38.176C23.6651 38.652 23.2349 38.9906 22.7269 39.0364L20.9971 39.2057L21.5554 44.8484L23.2898 44.6745C23.7978 44.6241 24.2783 44.8758 24.5575 45.306C24.6307 45.425 24.7085 45.5394 24.7909 45.6538C24.8732 45.7682 24.9556 45.878 25.0426 45.9879C25.3583 46.386 25.4453 46.9214 25.2348 47.3837L24.5117 48.9762L29.6784 51.3193L30.3969 49.7359C30.6074 49.2691 31.0651 48.9762 31.573 48.9534C31.8522 48.9396 32.1359 48.9122 32.4151 48.871C32.9185 48.7932 33.4219 48.9991 33.7193 49.411L34.7307 50.8205L39.3437 47.5164L38.3323 46.1069C38.0348 45.695 38.0074 45.1504 38.2408 44.6973C38.3689 44.4456 38.4879 44.1894 38.5886 43.9285C38.7716 43.4526 39.2018 43.1139 39.7098 43.0636L41.4397 42.8943L40.8768 37.2516L39.1423 37.4209C38.6343 37.4713 38.1584 37.2196 37.8792 36.7894C37.806 36.6704 37.7237 36.556 37.6413 36.4416C37.5589 36.3272 37.4765 36.2174 37.3896 36.1075C37.0692 35.7094 36.9869 35.1694 37.1974 34.7072L37.9204 33.1237ZM34.9916 38.3454C36.4835 40.4322 36.0075 43.329 33.9207 44.8255C31.8339 46.3174 28.9325 45.8414 27.436 43.7592C25.9441 41.6724 26.4201 38.7664 28.5069 37.2745C30.5937 35.778 33.4951 36.2585 34.9916 38.3454Z" fill="#EBEBEB"/>
<path d="M271.269 107.993L267.827 109.979L268.436 111.032C268.615 111.343 268.596 111.723 268.404 112.02C268.294 112.185 268.198 112.359 268.107 112.533C267.946 112.849 267.621 113.054 267.269 113.054H266.052V117.027H267.269C267.626 117.027 267.946 117.233 268.107 117.548C268.198 117.727 268.294 117.896 268.404 118.061C268.601 118.358 268.615 118.743 268.436 119.05L267.827 120.102L271.269 122.088L271.877 121.031C272.056 120.72 272.395 120.551 272.756 120.569C272.852 120.573 272.953 120.578 273.049 120.578C273.145 120.578 273.246 120.573 273.342 120.569C273.699 120.551 274.038 120.72 274.216 121.026L274.829 122.088L278.271 120.102L277.662 119.045C277.483 118.734 277.502 118.354 277.699 118.056C277.808 117.892 277.905 117.722 277.996 117.544C278.156 117.228 278.477 117.022 278.834 117.022H280.051V113.05H278.834C278.477 113.05 278.156 112.844 277.996 112.528C277.905 112.35 277.808 112.18 277.699 112.016C277.502 111.718 277.483 111.334 277.662 111.027L278.271 109.97L274.829 107.984L274.221 109.041C274.042 109.352 273.703 109.522 273.346 109.503C273.25 109.499 273.15 109.494 273.054 109.494C272.957 109.494 272.857 109.499 272.761 109.503C272.404 109.522 272.061 109.352 271.882 109.041L271.269 107.993ZM273.049 111.791C274.848 111.791 276.303 113.247 276.303 115.045C276.303 116.844 274.848 118.304 273.049 118.304C271.251 118.304 269.795 116.844 269.795 115.045C269.791 113.247 271.251 111.791 273.049 111.791Z" fill="#EBEBEB"/>
<path d="M48.3632 16.2141L45.2055 18.6258L45.9469 19.5915C46.1666 19.8752 46.1986 20.255 46.043 20.58C45.9561 20.7584 45.8829 20.9415 45.8142 21.1291C45.6952 21.4632 45.4023 21.7103 45.05 21.7561L43.8418 21.9117L44.3543 25.8519L45.5625 25.6963C45.9149 25.6506 46.2627 25.8107 46.464 26.1082C46.5785 26.2729 46.6974 26.4285 46.8256 26.5796C47.059 26.8496 47.123 27.2248 46.9858 27.5589L46.519 28.6801L50.1892 30.204L50.656 29.0782C50.7933 28.7487 51.109 28.5337 51.466 28.5062C51.5621 28.497 51.6582 28.4879 51.7589 28.4742C51.855 28.4604 51.9511 28.4467 52.0472 28.4284C52.3996 28.3643 52.7565 28.4879 52.9716 28.7716L53.7176 29.7464L56.8753 27.3347L56.1339 26.3645C55.9188 26.0807 55.8868 25.7009 56.0424 25.376C56.1293 25.1975 56.2025 25.0144 56.2712 24.8314C56.3902 24.4973 56.6831 24.2502 57.0354 24.2044L58.2436 24.0488L57.731 20.1086L56.5229 20.2642C56.1705 20.3099 55.8227 20.1498 55.6213 19.8569C55.5115 19.6921 55.3879 19.5365 55.2598 19.3855C55.0264 19.1155 54.9623 18.7403 55.0996 18.4062L55.5664 17.2804L51.8962 15.7565L51.4294 16.8823C51.2921 17.2118 50.9763 17.4223 50.624 17.4543C50.5279 17.4635 50.4272 17.4726 50.3311 17.4863C50.235 17.5001 50.1389 17.5138 50.0428 17.5321C49.6904 17.5962 49.3288 17.4726 49.1138 17.1889L48.3632 16.2141ZM50.6194 19.7516C52.3996 19.5182 54.0333 20.7767 54.2667 22.5569C54.5001 24.3371 53.2416 25.9755 51.4614 26.2043C49.6812 26.4377 48.0429 25.1792 47.8141 23.3944C47.5761 21.6142 48.8346 19.985 50.6194 19.7516Z" fill="#EBEBEB"/>
<path d="M24.8042 119.466C24.9827 115.036 24.9141 110.601 24.6212 106.181C24.0217 97.06 22.5206 88.008 20.4567 79.1115C19.2943 74.1004 17.8665 69.1763 16.3792 64.2567C16.3334 64.1102 16.0954 64.1514 16.1366 64.307C20.7404 81.6514 24.5205 99.545 24.2596 117.576C24.1864 122.619 23.6006 127.575 23.1247 132.591C23.111 132.724 23.3306 132.778 23.3627 132.641C24.3146 128.344 24.6257 123.845 24.8042 119.466Z" fill="#EBEBEB"/>
<path d="M16.1367 64.3025C16.1367 64.3025 9.15778 82.013 10.7229 86.1729C12.2834 90.3374 15.5052 91.2252 15.5052 91.2252C15.5052 91.2252 11.2354 97.3209 14.2192 103.037C17.203 108.753 23.8296 108.483 24.2689 114.963C24.2735 114.963 24.6396 87.8616 16.1367 64.3025Z" fill="#EBEBEB"/>
<path d="M23.5135 103.774C23.5227 103.746 23.5181 103.714 23.5044 103.682C22.525 91.6416 20.3879 79.6379 16.736 68.0551C16.7268 68.0231 16.6673 68.0322 16.6765 68.0688C18.0585 73.2493 19.2896 78.4572 20.3421 83.6925C19.436 82.7589 18.2507 82.2235 17.0105 81.8345C16.9877 81.8254 16.9739 81.862 16.9968 81.8711C18.2873 82.4294 19.523 83.0747 20.4336 84.1685C20.6396 85.1936 20.8364 86.2232 21.0286 87.2483C19.468 85.5047 17.308 84.6398 15.1434 83.8207C15.1113 83.8069 15.0976 83.8573 15.1251 83.8664C17.3766 84.7817 19.6236 85.967 21.1521 87.9073C21.683 90.8454 22.1498 93.7971 22.5525 96.7534C21.413 95.5636 20.008 94.7627 18.3926 94.3692C18.3423 94.3554 18.3148 94.4286 18.3651 94.4424C20.0218 94.9183 21.4496 95.8473 22.5845 97.147C22.5937 97.1562 22.6028 97.1607 22.612 97.1653C22.7539 98.2041 22.882 99.2475 23.0056 100.291C22.1269 99.5404 21.1567 98.973 20.0904 98.5336C20.063 98.5199 20.0447 98.5657 20.0767 98.5794C21.1613 99.0416 22.1361 99.7052 22.9964 100.511C23.0101 100.52 23.0193 100.52 23.033 100.524C23.1474 101.517 23.2664 102.51 23.3671 103.504C21.7654 101.577 19.7884 100.181 17.4499 99.2796C17.4041 99.2613 17.3812 99.3299 17.4224 99.3528C19.6969 100.341 21.7013 101.911 23.2527 103.842C23.2939 103.897 23.3488 103.902 23.3991 103.888C23.5501 105.412 23.6829 106.94 23.7973 108.469C23.7973 108.492 23.8339 108.492 23.8339 108.469C23.7515 106.899 23.6417 105.339 23.5135 103.774Z" fill="white"/>
<path d="M17.9075 80.0727C16.6993 79.2398 15.1617 78.8874 13.7156 78.7638C13.6789 78.7592 13.6789 78.8142 13.711 78.8187C15.212 79.043 16.4751 79.5876 17.8572 80.1733C17.9167 80.2008 17.9578 80.1093 17.9075 80.0727Z" fill="white"/>
<path d="M18.7546 98.8265C17.7981 98.2499 16.7044 97.925 15.606 97.7511C15.5694 97.7465 15.5648 97.806 15.6014 97.8106C16.7135 98.012 17.702 98.4101 18.7134 98.9043C18.7591 98.9226 18.7957 98.8494 18.7546 98.8265Z" fill="white"/>
<path d="M43.1457 86.4611C40.2352 88.5068 37.4436 90.8682 35.0685 93.5225C32.5377 96.3506 30.6935 99.5632 29.4029 103.128C26.7624 110.432 25.3163 118.34 25.1835 126.102C25.1103 130.454 25.4947 134.769 26.4283 139.021C26.4603 139.176 26.6937 139.13 26.6709 138.975C25.5313 131.492 25.5725 123.859 26.799 116.395C27.998 109.068 29.8789 101.096 34.5376 95.1425C37.0729 91.9024 40.2352 89.3488 43.3608 86.7128C43.5256 86.571 43.3151 86.3421 43.1457 86.4611Z" fill="#EBEBEB"/>
<path d="M26.2129 120.825C26.2129 120.825 28.6109 116.789 32.0981 113.301C35.5898 109.814 38.5279 107.334 38.9809 105.023C39.434 102.716 35.4846 101.014 35.4846 101.014C35.4846 101.014 40.3126 101.879 41.6352 99.8561C42.9578 97.8288 43.5939 86.0905 43.5939 86.0905C43.5939 86.0905 34.8073 92.3646 30.7115 101.16C26.6248 109.947 26.2129 120.825 26.2129 120.825Z" fill="#EBEBEB"/>
<path d="M40.5603 89.0971C36.8626 92.7307 33.1421 96.5977 30.9637 101.371C30.2178 103.005 29.5817 104.702 29.0233 106.432C29.0233 106.437 29.0233 106.437 29.0188 106.441C28.9044 106.789 28.7945 107.132 28.6847 107.485C28.6755 107.503 28.6664 107.521 28.6664 107.54C27.5909 111.105 26.8313 114.789 26.1723 118.386C26.1677 118.409 26.2043 118.422 26.2089 118.399C26.5887 116.569 27.0052 114.72 27.472 112.876C27.4903 112.876 27.504 112.871 27.5223 112.867C28.2682 112.551 29.0233 112.354 29.8288 112.281C29.8791 112.276 29.8791 112.185 29.8242 112.189C29.0462 112.226 28.282 112.363 27.5452 112.606C27.9708 110.945 28.433 109.283 28.9547 107.65C30.6525 107.233 32.4236 107.009 34.1672 106.968C34.1855 106.968 34.19 106.94 34.1717 106.94C32.4144 106.858 30.7624 107.009 29.0462 107.375C29.1378 107.096 29.2293 106.817 29.3254 106.538C30.4695 106.277 31.6227 106.057 32.7943 105.952C32.8171 105.952 32.8126 105.915 32.7943 105.915C31.6456 105.947 30.5152 106.066 29.3986 106.327C29.8745 104.913 30.3917 103.517 30.9683 102.158C31.4442 101.032 32.0071 99.9659 32.6295 98.9362C33.5677 98.7257 34.4784 98.5198 35.444 98.4328C35.4714 98.4283 35.4669 98.3871 35.4394 98.3871C34.5653 98.3322 33.6546 98.3962 32.808 98.6479C33.2702 97.902 33.7553 97.1698 34.277 96.4604C36.2494 96.0257 38.2447 95.6184 40.2583 95.9982C40.2949 96.0028 40.3041 95.9479 40.272 95.9387C38.3545 95.4353 36.4508 95.7236 34.5379 96.1035C34.7484 95.8243 34.9589 95.5543 35.174 95.2797C36.3821 94.9045 37.5857 94.726 38.8579 94.7031C38.8854 94.7031 38.89 94.6665 38.8625 94.6619C37.7047 94.5521 36.5469 94.6619 35.4302 94.9685C37.0594 92.9458 38.8579 91.042 40.6381 89.1611C40.7114 89.0605 40.6473 89.0101 40.5603 89.0971Z" fill="white"/>
<path d="M40.4595 97.0965C39.8829 97.037 39.2926 96.9683 38.7114 97.037C38.6427 97.0461 38.6473 97.1605 38.7159 97.1605C39.2926 97.1788 39.8738 97.1331 40.4504 97.1651C40.5007 97.1697 40.5053 97.101 40.4595 97.0965Z" fill="white"/>
<path d="M34.135 108.487C33.2106 108.478 32.2908 108.725 31.4258 109.032C31.4029 109.041 31.4167 109.077 31.4396 109.068C32.3319 108.853 33.2381 108.771 34.1442 108.62C34.2174 108.611 34.2128 108.487 34.135 108.487Z" fill="white"/>
<path d="M32.24 104.551C31.8648 104.533 31.4575 104.597 31.0914 104.657C31.0548 104.661 31.0548 104.725 31.0959 104.725C31.4712 104.73 31.8785 104.744 32.2492 104.67C32.3133 104.661 32.3087 104.556 32.24 104.551Z" fill="white"/>
<path d="M0.45343 98.9226C3.28162 99.9065 6.08693 101.17 8.62223 102.767C11.3223 104.474 13.5601 106.643 15.4273 109.229C19.2531 114.528 22.2506 120.596 24.1498 126.843C25.2161 130.348 25.898 133.927 26.1314 137.584C26.1405 137.716 25.9437 137.735 25.9254 137.602C25.1154 131.287 23.3169 125.118 20.6031 119.356C17.9397 113.704 14.5715 107.691 9.42767 103.947C6.62694 101.911 3.4784 100.575 0.339021 99.1651C0.174273 99.0965 0.288682 98.8631 0.45343 98.9226Z" fill="#EBEBEB"/>
<path d="M22.0992 122.816C22.0992 122.816 19.2253 120.102 15.5962 118.088C11.9672 116.07 9.01085 114.743 8.11388 112.981C7.21234 111.219 10.0176 108.931 10.0176 108.931C10.0176 108.931 6.3108 110.748 4.77314 109.416C3.23091 108.075 0 98.7212 0 98.7212C0 98.7212 8.56236 101.769 13.9075 107.938C19.2527 114.111 22.0992 122.816 22.0992 122.816Z" fill="#EBEBEB"/>
<path d="M21.6507 120.885C17.3672 112.848 11.656 105.577 3.82581 100.776C3.82123 100.776 3.81666 100.781 3.82123 100.781C5.88059 102.094 7.77978 103.609 9.55083 105.265C7.96741 105.22 6.35196 105.476 4.94702 106.236C4.91498 106.254 4.93786 106.295 4.9699 106.286C6.53501 105.755 8.04063 105.407 9.70643 105.485C9.72931 105.485 9.74304 105.476 9.76134 105.467C10.0405 105.732 10.3151 105.998 10.5851 106.268C9.76134 106.304 8.92845 106.419 8.12758 106.593C8.1047 106.597 8.11385 106.629 8.13216 106.625C9.00167 106.455 9.84829 106.4 10.7315 106.409C12.1685 107.851 13.5048 109.393 14.7679 110.995C14.1958 110.913 13.5963 110.958 13.0472 111.119C13.006 111.132 13.0151 111.187 13.0609 111.183C13.6833 111.105 14.2782 111.114 14.896 111.155C15.1294 111.453 15.3674 111.75 15.5962 112.052C13.8343 111.947 12.109 112.116 10.402 112.556C10.3746 112.56 10.3837 112.601 10.4112 112.597C12.1777 112.249 13.9533 112.139 15.7472 112.249C15.9669 112.537 16.1728 112.835 16.3879 113.128C15.3353 113.096 14.3194 113.228 13.2943 113.48C13.2531 113.489 13.2668 113.549 13.308 113.544C14.3606 113.306 15.4314 113.242 16.5115 113.292C17.4313 114.56 18.3146 115.86 19.1612 117.173C18.7127 117.082 18.2413 117.132 17.802 117.255C17.7791 117.26 17.7837 117.297 17.8112 117.292C18.3146 117.233 18.7859 117.297 19.2802 117.361C20.0444 118.546 20.7812 119.745 21.486 120.953C21.5455 121.068 21.7102 120.994 21.6507 120.885Z" fill="white"/>
<path d="M14.9925 114.221C14.155 114.148 13.3038 114.281 12.5029 114.523C12.4801 114.532 12.4846 114.565 12.5121 114.56C13.3358 114.409 14.1504 114.349 14.9833 114.308C15.0382 114.304 15.052 114.226 14.9925 114.221Z" fill="white"/>
<path d="M7.52356 104.423C7.14373 104.382 6.75016 104.428 6.3749 104.492C6.32914 104.501 6.34286 104.565 6.38863 104.561C6.76389 104.519 7.13915 104.533 7.51441 104.524C7.57848 104.519 7.58763 104.432 7.52356 104.423Z" fill="white"/>
<path d="M33.1433 149.395H13.8174L16.5723 129.209L17.2771 124.033H29.6836L30.3884 129.209L33.1433 149.395Z" fill="#DBDBDB"/>
<path d="M30.3883 129.209H16.5723L17.277 124.033H29.6835L30.3883 129.209Z" fill="#C7C7C7"/>
<path d="M31.4542 122.239H15.501V126.623H31.4542V122.239Z" fill="#DBDBDB"/>
<path d="M1.5293 149.395L36.3142 149.281L71.0991 149.244L140.669 149.166L210.239 149.24L245.023 149.281L279.808 149.395L245.023 149.505L210.239 149.546L140.669 149.624L71.0991 149.546L36.3142 149.505L1.5293 149.395Z" fill="#263238"/>
<path d="M141.584 183.503C214.056 183.503 272.806 177.065 272.806 169.124C272.806 161.183 214.056 154.745 141.584 154.745C69.1116 154.745 10.3613 161.183 10.3613 169.124C10.3613 177.065 69.1116 183.503 141.584 183.503Z" fill="#EBEBEB"/>
<path d="M111.036 166.74C109.97 167.101 79.3954 167.206 78.2238 166.474C77.7799 166.2 77.5053 161.747 77.3223 156.356C77.2811 155.194 77.2491 153.99 77.2216 152.768L74.7412 136.458L95.1792 136.325L97.1104 152.635L97.0326 156.223C97.0326 156.223 108.757 161.417 109.952 162.36C111.146 163.312 112.103 166.378 111.036 166.74Z" fill="#EB9481"/>
<path d="M111.036 166.74C109.969 167.101 79.3948 167.206 78.2232 166.474C77.6832 166.136 77.3903 159.633 77.2256 152.773L97.1144 152.645L97.0366 156.232C97.0366 156.232 108.761 161.427 109.956 162.369C111.146 163.312 112.102 166.378 111.036 166.74Z" fill="white"/>
<path d="M111.035 166.74C109.969 167.101 79.3944 167.206 78.2228 166.474C77.7789 166.2 77.5043 161.747 77.3213 156.356L97.0362 156.228C97.0362 156.228 108.761 161.422 109.955 162.365C111.145 163.312 112.102 166.378 111.035 166.74Z" fill="#A6A6A6"/>
<path d="M110.593 165.518C105.467 165.408 84.7819 165.458 79.7067 165.742C79.6655 165.742 79.6655 165.774 79.7067 165.774C84.7864 165.994 105.467 165.774 110.593 165.6C110.702 165.6 110.702 165.522 110.593 165.518Z" fill="#263238"/>
<path d="M107.989 161.275C106.771 161.23 105.586 161.811 104.927 162.538C104.291 163.234 103.751 164.218 103.792 165.28C103.792 165.312 103.852 165.312 103.856 165.28C104.14 163.271 105.961 161.504 107.993 161.339C108.03 161.339 108.03 161.28 107.989 161.275Z" fill="#263238"/>
<path d="M99.0281 156.736C96.9779 156.713 94.6027 157.445 93.3305 159.129C93.2802 159.193 93.3763 159.262 93.4358 159.23C95.2892 158.269 97.0465 157.55 99.0647 156.987C99.2065 156.951 99.1745 156.74 99.0281 156.736Z" fill="#263238"/>
<path d="M100.616 157.349C98.5658 157.326 96.1906 158.058 94.9184 159.742C94.8681 159.806 94.9642 159.875 95.0237 159.843C96.8725 158.882 98.6344 158.163 100.653 157.6C100.794 157.559 100.762 157.349 100.616 157.349Z" fill="#263238"/>
<path d="M102.199 157.962C100.149 157.939 97.7736 158.671 96.5014 160.355C96.4511 160.42 96.5472 160.488 96.6067 160.456C98.4555 159.495 100.217 158.777 102.236 158.214C102.377 158.173 102.345 157.962 102.199 157.962Z" fill="#263238"/>
<path d="M103.787 158.571C101.737 158.548 99.3615 159.28 98.0893 160.964C98.039 161.028 98.1351 161.097 98.1946 161.065C100.043 160.104 101.805 159.385 103.823 158.822C103.965 158.786 103.933 158.575 103.787 158.571Z" fill="#263238"/>
<path d="M80.997 160.873C78.6951 160.886 78.7134 164.465 81.0199 164.451C83.3218 164.433 83.3035 160.854 80.997 160.873Z" fill="#263238"/>
<path d="M101.224 151.253C100.181 150.398 98.8763 151.244 98.2402 152.137C97.2105 153.587 96.5012 155.619 96.3959 157.39C96.3913 157.436 96.4279 157.45 96.46 157.45C96.5057 157.596 96.6796 157.72 96.8306 157.614C98.2859 156.598 99.97 155.692 101.073 154.26C101.714 153.427 102.208 152.068 101.224 151.253ZM98.7253 155.624C98.0205 156.141 97.2974 156.621 96.611 157.161C96.9725 156.136 97.2883 155.102 97.7551 154.118C97.9793 153.647 98.2127 153.166 98.501 152.731C98.9449 152.054 100.954 150.329 101.164 152.562C101.279 153.793 99.5627 155.006 98.7253 155.624Z" fill="#263238"/>
<path d="M91.3027 158.173C93.0921 158.443 94.9318 157.926 96.6845 157.646C96.8676 157.619 96.9088 157.408 96.8355 157.271C96.863 157.248 96.8722 157.216 96.8401 157.184C95.5359 155.985 93.6184 155.01 91.8702 154.676C90.7902 154.47 89.2617 154.768 89.1061 156.109C88.9596 157.376 90.2593 158.013 91.3027 158.173ZM90.058 157.006C88.6622 155.253 91.3027 155.102 92.0944 155.28C92.6024 155.399 93.1058 155.578 93.5909 155.766C94.6114 156.155 95.5542 156.681 96.5289 157.166C95.6594 157.248 94.8036 157.408 93.9387 157.523C92.9045 157.66 90.8268 157.976 90.058 157.006Z" fill="#263238"/>
<path d="M44.7119 61.0807C44.7119 61.0807 68.4495 101.462 69.0856 104.295C70.0604 108.652 75.2408 151.674 75.2408 151.674L99.9394 151.23C99.9394 151.23 95.6834 113.297 91.6516 100.799C88.7456 91.7972 67.7996 61.941 67.7996 61.941L44.7119 61.0807Z" fill="#37474F"/>
<path d="M97.6917 147.446C94.1451 147.418 81.5738 147.276 76.8556 147.72C76.819 147.725 76.819 147.784 76.8556 147.789C78.4802 148.022 94.1496 147.661 97.6917 147.546C97.7604 147.542 97.7558 147.446 97.6917 147.446Z" fill="#263238"/>
<path d="M48.7612 64.7876C50.3171 67.2268 51.96 69.6156 53.548 72.0365C55.1406 74.4574 56.724 76.8783 58.2891 79.3175C61.4148 84.1868 64.4626 89.1063 67.451 94.058C68.8514 96.3782 70.1877 98.7258 71.1533 101.257C72.1051 103.764 72.755 106.378 73.2355 109.009C73.7206 111.659 74.0364 114.336 74.3384 117.013C74.6588 119.864 74.9745 122.711 75.2949 125.562C75.9447 131.392 76.5946 137.222 77.249 143.052C77.3268 143.766 77.4091 144.485 77.4778 145.199C77.4869 145.304 77.2993 145.322 77.2856 145.217C76.5579 139.423 75.9539 133.616 75.2949 127.813C74.9654 124.925 74.6359 122.038 74.311 119.15C74.0043 116.464 73.716 113.777 73.2996 111.105C72.8923 108.483 72.3568 105.87 71.5606 103.33C70.7277 100.675 69.5424 98.1858 68.1466 95.7741C65.2864 90.8362 62.2568 85.9853 59.2273 81.1435C56.1703 76.2605 53.0904 71.3958 49.8915 66.5998C49.4979 66.0095 49.0998 65.4191 48.6879 64.8379C48.6513 64.783 48.7337 64.7372 48.7612 64.7876Z" fill="#263238"/>
<path d="M52.4914 169.124C51.3656 169.055 22.2874 157.276 21.4774 156.159C21.4499 156.122 21.4362 156.049 21.4316 155.944C21.4362 154.946 23.4498 151.445 25.1339 146.851C25.2392 146.558 25.9897 145.194 27.0331 143.354C29.8979 138.307 34.9639 129.662 34.9639 129.662L53.9695 137.213L44.8717 150.832L43.4576 154.127C43.4576 154.127 52.377 163.344 53.1321 164.667C53.878 165.985 53.6126 169.188 52.4914 169.124Z" fill="#EB9481"/>
<path d="M52.4914 169.124C51.3656 169.055 22.2874 157.276 21.4774 156.159C21.4499 156.123 21.4362 156.049 21.4316 155.944C21.4362 154.946 23.4498 151.445 25.1339 146.851C25.2392 146.558 25.9897 145.194 27.0331 143.354L44.8717 150.828L43.4576 154.123C43.4576 154.123 52.377 163.339 53.1321 164.662C53.878 165.985 53.6126 169.188 52.4914 169.124Z" fill="white"/>
<path d="M52.491 169.119C51.3652 169.055 22.2916 157.271 21.4816 156.155C21.175 155.734 22.4747 151.761 25.1381 146.851L43.4573 154.127C43.4573 154.127 52.3766 163.339 53.1317 164.662C53.8776 165.985 53.6122 169.188 52.491 169.119Z" fill="#A6A6A6"/>
<path d="M52.5368 167.824C47.8277 165.802 28.6345 158.086 23.8248 156.448C23.7836 156.434 23.7744 156.461 23.811 156.48C28.4377 158.585 47.6905 166.145 52.5048 167.907C52.61 167.939 52.6375 167.866 52.5368 167.824Z" fill="#263238"/>
<path d="M51.713 162.914C50.601 162.415 49.2876 162.511 48.3998 162.937C47.5485 163.344 46.679 164.049 46.3175 165.051C46.3084 165.079 46.3587 165.101 46.377 165.074C47.393 163.321 49.7452 162.365 51.6902 162.973C51.7313 162.983 51.7496 162.928 51.713 162.914Z" fill="#263238"/>
<path d="M45.1089 155.34C43.2143 154.548 40.7385 154.338 38.9308 155.422C38.8622 155.464 38.9217 155.564 38.9903 155.555C41.068 155.358 42.9672 155.354 45.0494 155.587C45.1959 155.606 45.2462 155.4 45.1089 155.34Z" fill="#263238"/>
<path d="M46.3492 156.502C44.4545 155.711 41.9787 155.5 40.1711 156.585C40.1024 156.626 40.1619 156.727 40.2306 156.718C42.3082 156.521 44.2074 156.516 46.2897 156.75C46.4361 156.768 46.4864 156.562 46.3492 156.502Z" fill="#263238"/>
<path d="M47.5943 157.665C45.6997 156.878 43.2238 156.663 41.4162 157.747C41.3475 157.788 41.407 157.889 41.4757 157.88C43.5533 157.683 45.4525 157.679 47.5348 157.912C47.6766 157.93 47.727 157.724 47.5943 157.665Z" fill="#263238"/>
<path d="M48.8345 158.827C46.9399 158.036 44.4641 157.825 42.6564 158.91C42.5878 158.951 42.6473 159.052 42.7159 159.042C44.7936 158.846 46.6928 158.841 48.775 159.074C48.9169 159.093 48.9672 158.887 48.8345 158.827Z" fill="#263238"/>
<path d="M26.8456 152.411C24.7084 151.56 23.3813 154.882 25.523 155.734C27.6648 156.585 28.9873 153.262 26.8456 152.411Z" fill="#263238"/>
<path d="M49.205 151.084C48.5597 149.899 47.0358 150.192 46.1068 150.787C44.6058 151.743 43.1917 153.363 42.4274 154.965C42.4091 155.006 42.432 155.033 42.464 155.043C42.4503 155.194 42.5647 155.377 42.7432 155.335C44.473 154.942 46.3768 154.731 47.9328 153.821C48.8435 153.281 49.8136 152.205 49.205 151.084ZM45.2464 154.196C44.3998 154.411 43.5486 154.585 42.7066 154.827C43.4251 154.013 44.1069 153.175 44.9124 152.434C45.2968 152.082 45.6949 151.725 46.1205 151.427C46.7841 150.965 49.2919 150.123 48.6513 152.269C48.3034 153.459 46.2578 153.94 45.2464 154.196Z" fill="#263238"/>
<path d="M37.412 153.775C38.968 154.695 40.8672 154.905 42.597 155.308C42.7755 155.349 42.8945 155.171 42.8808 155.02C42.9128 155.011 42.9357 154.983 42.9174 154.942C42.1577 153.34 40.7482 151.716 39.2471 150.755C38.3227 150.16 36.7942 149.862 36.1489 151.043C35.5357 152.159 36.5013 153.235 37.412 153.775ZM36.6981 152.228C36.062 150.077 38.5698 150.928 39.2334 151.395C39.659 151.693 40.0572 152.05 40.4416 152.407C41.2424 153.148 41.9197 153.99 42.6382 154.805C41.8007 154.557 40.9495 154.384 40.1029 154.164C39.0915 153.903 37.0459 153.413 36.6981 152.228Z" fill="#263238"/>
<path d="M46.3409 150.068L25.0654 141.478C25.0654 141.478 51.4436 102.698 51.6358 99.8104C51.8097 97.2522 40.2223 75.002 39.7647 68.5173C39.2704 61.52 42.6432 56.1016 46.3455 52.7426L68.2937 62.0692C68.2937 62.0692 65.9781 65.776 62.3307 67.8354C62.3307 67.8354 73.584 93.5545 72.9478 101.462C72.3026 109.416 46.3409 150.068 46.3409 150.068Z" fill="#37474F"/>
<path d="M47.2833 146.023C44.208 144.7 45.1096 145.034 42.0159 143.748C40.5012 143.117 30.5613 138.984 29.0465 138.645C29.0145 138.636 28.9916 138.691 29.0191 138.71C30.3417 139.52 40.3547 143.478 41.8832 144.082C44.9997 145.309 44.1165 144.924 47.2467 146.119C47.3062 146.137 47.3428 146.05 47.2833 146.023Z" fill="#263238"/>
<path d="M65.9409 67.3686C63.6528 67.8583 61.4103 68.6683 59.2549 69.5378C59.1725 69.5698 59.2091 69.698 59.3006 69.6705C61.5431 69.0161 63.8267 68.4029 66.0279 67.6295C66.2018 67.5654 66.1148 67.332 65.9409 67.3686Z" fill="#263238"/>
<path d="M63.3366 66.4671C63.1215 66.8424 62.9384 67.2405 62.7737 67.6432C62.6455 67.9544 62.4854 68.2885 62.4854 68.6271C62.4854 68.6912 62.5723 68.7095 62.6135 68.6683C62.8698 68.4166 63.0025 68.0505 63.1627 67.7393C63.3503 67.3778 63.5425 67.0163 63.721 66.6502C63.84 66.4076 63.4693 66.2337 63.3366 66.4671Z" fill="#263238"/>
<path d="M63.6026 64.4031C63.7353 64.0645 63.8726 63.7304 64.0144 63.3917C64.1609 63.0439 64.3302 62.7053 64.4538 62.3483C64.4721 62.2934 64.5636 62.33 64.5407 62.3849C64.408 62.7236 64.3211 63.0851 64.2112 63.4329C64.1014 63.7807 63.9916 64.1285 63.8726 64.4763C63.6575 65.1216 63.3966 65.7623 63.1175 66.3847C63.4744 66.3801 63.8451 66.3664 64.17 66.2016C64.5224 66.0231 64.7375 65.6479 64.9114 65.3092C65.1036 64.9294 65.2821 64.545 65.4834 64.1697C65.7031 63.7533 65.9457 63.346 66.0921 62.8975C66.1104 62.8426 66.1974 62.8792 66.1791 62.9341C65.8496 63.8585 65.5246 64.7875 65.0075 65.6387C64.8062 65.9728 64.6414 66.3252 64.2707 66.4533C63.8726 66.5952 63.4332 66.5677 63.0168 66.5357C62.9665 66.5494 62.8978 66.5174 62.9161 66.4533C63.1175 65.7714 63.3371 65.0713 63.6026 64.4031Z" fill="#263238"/>
<path d="M62.6689 68.6776C63.4468 70.3297 64.1333 71.9772 64.8655 73.6246C65.5794 75.2355 66.243 76.8647 66.8928 78.4985C68.2017 81.8072 69.3732 85.1754 70.4029 88.5802C70.9109 90.2643 71.3822 91.9621 71.8033 93.6691C72.2289 95.3806 72.6407 97.1105 72.8192 98.8724C72.9977 100.639 72.8696 102.382 72.3799 104.089C71.8811 105.819 71.2221 107.334 70.4441 108.954C69.9681 109.943 69.8034 109.81 70.0322 109.311C70.6866 107.892 72.4028 103.595 72.2792 99.9845C72.2197 98.2409 71.8628 96.5247 71.4692 94.8315C71.0665 93.1016 70.6134 91.3855 70.1192 89.6831C69.1444 86.324 67.9866 83.0336 66.7967 79.7478C66.1286 77.9081 65.4147 76.0867 64.7374 74.247C64.0555 72.3982 63.3507 70.7324 62.5956 68.7096C62.5682 68.6547 62.646 68.6273 62.6689 68.6776Z" fill="#263238"/>
<path d="M46.5191 63.2133C46.8989 63.0715 47.4298 63.3049 47.8188 63.3689C48.3176 63.4513 48.821 63.5016 49.3244 63.5199C49.8232 63.5382 50.322 63.5154 50.8209 63.4696C51.3151 63.4193 51.8231 63.3598 52.2533 63.0898C52.9809 62.6367 53.585 61.8404 54.0792 61.1494C54.6192 60.3943 55.1821 59.5248 55.5025 58.6507C55.5208 58.5958 55.5986 58.6324 55.5849 58.6873C55.4247 59.1953 55.3057 59.7124 55.0998 60.2112C54.9076 60.678 54.6604 61.1265 54.3996 61.5613C53.9099 62.3667 53.347 63.2316 52.505 63.7122C51.6217 64.2155 50.4868 64.1835 49.5029 64.1286C48.9354 64.0966 48.3679 64.0188 47.8096 63.9044C47.4069 63.8174 46.7296 63.7533 46.4733 63.401C46.4184 63.3369 46.4459 63.2408 46.5191 63.2133Z" fill="#263238"/>
<path d="M31.1382 137.424C34.6346 132.133 38.0668 126.797 41.435 121.425C44.8124 116.038 48.1302 110.611 51.4023 105.156C52.1849 103.851 53.0864 102.547 53.5898 101.101C54.139 99.5313 53.8278 98.0074 53.329 96.4743C52.4183 93.6553 51.2879 90.9141 50.0615 88.2186C48.835 85.514 47.5124 82.8551 46.2127 80.1871C44.9222 77.5419 43.5539 74.8831 42.5745 72.1007C41.641 69.4418 41.284 66.6868 42.0025 63.9319C42.7118 61.1952 44.2495 58.7423 45.8558 56.4495C46.2814 55.8454 46.7116 55.2459 47.1372 54.6418C47.1692 54.5961 47.2378 54.651 47.2058 54.6968C45.4348 57.0856 43.7095 59.6163 42.6706 62.4217C42.1581 63.8083 41.824 65.2682 41.792 66.7463C41.7599 68.2474 42.0391 69.7393 42.483 71.1717C43.3434 73.9541 44.7025 76.5901 45.9702 79.2032C47.2653 81.8758 48.5924 84.53 49.8418 87.2255C51.0957 89.9347 52.2718 92.6897 53.2374 95.5179C53.6676 96.7764 54.1481 98.0944 54.1161 99.4444C54.0841 100.923 53.3793 102.254 52.6471 103.499C49.4665 108.927 46.1624 114.281 42.8217 119.608C39.4672 124.953 36.0441 130.262 32.566 135.529C32.1267 136.193 31.6874 136.856 31.248 137.52C31.2023 137.602 31.0833 137.506 31.1382 137.424Z" fill="#263238"/>
<path d="M69.5106 37.4026C71.4921 41.7501 81.496 47.7406 86.1822 48.3859C89.555 48.8481 99.7923 49.0082 103.302 48.4728C107.417 47.8458 104.273 36.7436 101.843 37.0273C95.161 37.8099 89.4864 38.6794 87.7062 38.6794C85.5278 38.6794 73.7437 34.8947 72.3204 34.3639C68.847 33.0642 68.3894 34.9405 69.5106 37.4026Z" fill="#FFBE9D"/>
<path d="M69.5754 38.556C72.0832 42.2675 80.4213 48.3357 80.4213 48.3357L81.5791 45.7729L85.4096 37.3021C85.4096 37.3021 77.7533 34.8858 72.7147 33.8103C72.0329 33.6639 71.4334 33.577 70.9116 33.5541C67.6899 33.3756 67.4107 35.3617 69.5754 38.556Z" fill="#2743FD"/>
<path d="M69.5754 38.5559C72.0832 42.2673 80.4213 48.3356 80.4213 48.3356L81.5791 45.7728C78.4718 42.1621 73.6712 36.6933 70.9116 33.5494C67.6899 33.3755 67.4107 35.3616 69.5754 38.5559Z" fill="#263238"/>
<path d="M78.9154 46.6194C79.5515 45.0634 82.3797 38.7801 83.0844 37.4621C83.1348 37.3706 83.2034 37.3797 83.1622 37.4804C81.3683 42.1895 79.675 45.1458 78.9749 46.6423C78.9611 46.6789 78.8971 46.6606 78.9154 46.6194Z" fill="#263238"/>
<path d="M100.621 37.1509C104.689 36.6155 109.719 35.7048 113.975 37.5125C114.812 37.8694 115.114 38.4918 115.114 38.4918C117.036 39.2698 117.247 40.4093 117.247 40.4093C118.817 41.6815 118.872 42.8805 118.872 42.8805C118.872 42.8805 121.119 43.8187 120.78 45.2694C120.405 46.8986 117.32 45.2648 115.073 45.4021C109.929 45.7179 102.703 47.6079 101.23 47.8505L100.621 37.1509Z" fill="#FFBE9D"/>
<path d="M109.449 41.947C110.964 41.8829 112.451 41.7822 113.97 41.9241C115.636 42.0797 117.211 42.5098 118.821 42.908C118.872 42.9217 118.895 42.8531 118.844 42.8302C116.034 41.6495 112.433 41.3383 109.444 41.8783C109.376 41.892 109.376 41.947 109.449 41.947Z" fill="#263238"/>
<path d="M108.808 38.867C110.286 38.8854 112.885 38.9403 117.233 40.455C117.247 40.4596 117.26 40.4367 117.247 40.4322C114.556 39.073 111.796 38.5879 108.813 38.7984C108.716 38.803 108.707 38.867 108.808 38.867Z" fill="#263238"/>
<path d="M108.492 37.2104C111.004 37.3386 112.574 37.7413 115.1 38.501C115.114 38.5055 115.128 38.4827 115.109 38.4735C112.327 37.3065 111.187 37.2013 108.483 37.1235C108.391 37.1189 108.396 37.2013 108.492 37.2104Z" fill="#263238"/>
<path d="M108.899 46.1755C108.245 46.4822 108.401 46.8254 109.655 47.1183C110.918 47.4157 116.098 47.4935 115.915 49.3012C115.737 51.118 108.405 50.8846 106.36 50.2439C104.314 49.6078 101.229 47.8459 101.229 47.8459C102.666 47.6079 106.09 46.6881 108.899 46.1755Z" fill="#FFBE9D"/>
<path d="M74.9525 44.3358C74.9204 45.1183 74.8426 45.9146 74.7328 46.7018C74.7419 46.6743 74.7557 46.6469 74.7648 46.6194C74.9158 46.2075 75.0669 45.7865 75.2499 45.3884C75.2591 45.3655 75.2957 45.3746 75.2911 45.3975C75.2087 45.8277 75.0577 46.2624 74.893 46.6697C74.8152 46.8665 74.7328 47.0587 74.6504 47.2509C74.5955 47.6033 74.5314 47.9511 74.4582 48.2943C74.3209 48.9488 73.7031 51.7312 73.5658 52.2025C73.5384 52.3032 73.4194 52.2803 73.424 52.1705C73.456 51.658 73.9777 48.7566 74.083 48.1021C74.2843 46.8436 74.5635 45.5577 74.8975 44.3266C74.9113 44.2946 74.957 44.3083 74.9525 44.3358Z" fill="#263238"/>
<path d="M70.1838 65.14C68.9619 65.7715 67.3877 66.7463 60.2943 65.3459C59.8504 65.2544 59.4065 65.1492 58.958 65.0119C52.3086 63.012 44.3274 55.191 43.8789 54.6418C43.8789 54.6418 54.4411 37.5125 67.9551 32.1262C69.6255 31.4626 72.3896 32.744 73.9227 34.3411C74.4673 34.9132 75.6571 39.1143 75.1995 42.5191C74.7419 45.9285 71.4103 64.5176 70.1838 65.14Z" fill="#2743FD"/>
<path d="M69.2403 42.3679C69.2769 42.734 69.2494 43.0956 69.2037 43.4525C69.1488 43.8095 69.0801 44.1619 68.9428 44.5051C68.9016 44.139 68.9337 43.7774 68.9794 43.4205C69.0298 43.0635 69.0984 42.7111 69.2403 42.3679Z" fill="white"/>
<path d="M64.6329 54.0332C64.6695 54.3993 64.642 54.7608 64.5963 55.1178C64.5413 55.4748 64.4727 55.8271 64.3354 56.1704C64.2942 55.8043 64.3263 55.4427 64.372 55.0858C64.4269 54.7288 64.4956 54.3764 64.6329 54.0332Z" fill="white"/>
<path d="M56.8018 45.2191C56.8384 45.5852 56.811 45.9468 56.7652 46.3037C56.7103 46.6607 56.6416 47.0131 56.5043 47.3563C56.4632 46.9902 56.4952 46.6286 56.541 46.2717C56.5913 45.9147 56.6645 45.5623 56.8018 45.2191Z" fill="white"/>
<path d="M72.2569 53.4427C72.2935 53.8089 72.266 54.1704 72.2203 54.5273C72.1654 54.8843 72.0967 55.2367 71.9594 55.5799C71.9182 55.2138 71.9503 54.8523 71.996 54.4953C72.051 54.1384 72.1196 53.786 72.2569 53.4427Z" fill="white"/>
<path d="M62.2031 43.7042C62.5692 43.6676 62.9308 43.6951 63.2877 43.7408C63.6447 43.7957 63.9971 43.8644 64.3403 44.0017C63.9742 44.0429 63.6126 44.0108 63.2557 43.9651C62.8987 43.9147 62.5464 43.8415 62.2031 43.7042Z" fill="white"/>
<path d="M53.3154 52.1339C53.6815 52.0973 54.0431 52.1248 54.4 52.1705C54.757 52.2254 55.1094 52.2941 55.4526 52.4314C55.0865 52.4726 54.7249 52.4405 54.368 52.3948C54.011 52.3398 53.6587 52.2712 53.3154 52.1339Z" fill="white"/>
<path d="M63.7676 61.2546C64.1337 61.218 64.4952 61.2455 64.8522 61.2912C65.2091 61.3462 65.5615 61.4148 65.9047 61.5521C65.5386 61.5933 65.1771 61.5613 64.8201 61.5155C64.4632 61.4606 64.1108 61.3919 63.7676 61.2546Z" fill="white"/>
<path d="M50.5732 57.9414C50.9394 57.9048 51.3009 57.9323 51.6578 57.978C52.0148 58.0329 52.3672 58.1016 52.7104 58.2389C52.3443 58.2801 51.9828 58.248 51.6258 58.2023C51.2688 58.1473 50.9165 58.0787 50.5732 57.9414Z" fill="white"/>
<path d="M69.1719 34.1718C69.538 34.1351 69.8995 34.1626 70.2565 34.2084C70.6134 34.2633 70.9658 34.3319 71.309 34.4692C70.9429 34.5104 70.5814 34.4784 70.2244 34.4326C69.8675 34.3777 69.5151 34.309 69.1719 34.1718Z" fill="white"/>
<path d="M66.5869 37.0916C66.3535 37.3799 66.0789 37.6133 65.7952 37.8329C65.5069 38.048 65.2094 38.2448 64.8662 38.3912C65.0996 38.1029 65.3742 37.8695 65.6579 37.6499C65.9508 37.4348 66.2483 37.2334 66.5869 37.0916Z" fill="white"/>
<path d="M52.4961 45.3838C52.2627 45.6721 51.9881 45.9055 51.7044 46.1252C51.4161 46.3402 51.1186 46.537 50.7754 46.6835C51.0088 46.3952 51.2834 46.1618 51.5671 45.9421C51.8554 45.7316 52.1575 45.5302 52.4961 45.3838Z" fill="white"/>
<path d="M70.0918 49.1318C69.8584 49.4201 69.5838 49.6535 69.3001 49.8732C69.0118 50.0883 68.7143 50.2851 68.3711 50.4315C68.6045 50.1432 68.8791 49.9098 69.1628 49.6902C69.4511 49.4796 69.7486 49.2783 70.0918 49.1318Z" fill="white"/>
<path d="M58.6963 56.3076C58.4629 56.5959 58.1883 56.8293 57.9046 57.049C57.6163 57.2641 57.3188 57.4609 56.9756 57.6073C57.209 57.319 57.4836 57.0856 57.7673 56.8659C58.0556 56.6508 58.3531 56.4541 58.6963 56.3076Z" fill="white"/>
<path d="M74.457 39.3248C74.2236 39.6131 73.9491 39.8465 73.6653 40.0662C73.377 40.2813 73.0796 40.4781 72.7363 40.6245C72.9697 40.3362 73.2443 40.1028 73.528 39.8831C73.8163 39.6726 74.1138 39.4713 74.457 39.3248Z" fill="white"/>
<path d="M74.2157 47.6445C73.9274 47.4111 73.694 47.1366 73.4743 46.8528C73.2592 46.5645 73.0625 46.2671 72.916 45.9238C73.2043 46.1572 73.4377 46.4318 73.6574 46.7155C73.8725 47.0038 74.0738 47.3059 74.2157 47.6445Z" fill="white"/>
<path d="M48.8212 53.3695C48.5329 53.1361 48.2995 52.8615 48.0798 52.5778C47.8647 52.2895 47.6679 51.992 47.5215 51.6488C47.8098 51.8822 48.0432 52.1568 48.2629 52.4405C48.4779 52.7334 48.6747 53.0309 48.8212 53.3695Z" fill="white"/>
<path d="M71.1307 60.1884C70.8424 59.955 70.609 59.6804 70.3894 59.3966C70.1743 59.1083 69.9775 58.8109 69.8311 58.4677C70.1194 58.701 70.3528 58.9756 70.5724 59.2594C70.7875 59.5477 70.9843 59.8497 71.1307 60.1884Z" fill="white"/>
<path d="M59.9511 40.7617C59.6627 40.5283 59.4293 40.2537 59.2097 39.97C58.9946 39.6817 58.7978 39.3842 58.6514 39.041C58.9397 39.2744 59.1731 39.549 59.3927 39.8327C59.6032 40.121 59.8046 40.4231 59.9511 40.7617Z" fill="white"/>
<path d="M60.1483 64.0691C59.86 63.8357 59.6266 63.5611 59.4069 63.2774C59.1919 62.9891 58.9951 62.6916 58.8486 62.3484C59.1369 62.5818 59.3703 62.8564 59.59 63.1401C59.8051 63.4284 60.0019 63.7259 60.1483 64.0691Z" fill="white"/>
<path d="M62.0477 50.3171C61.7594 50.0837 61.526 49.8092 61.3064 49.5254C61.0913 49.2371 60.8945 48.9397 60.748 48.5964C61.0364 48.8298 61.2697 49.1044 61.4894 49.3881C61.7045 49.681 61.9059 49.9785 62.0477 50.3171Z" fill="white"/>
<path d="M71.442 38.9037C69.7213 38.5833 68.0967 35.0183 67.8908 32.6203C67.8771 32.4556 68.6962 31.1513 69.6161 29.5175C70.1698 28.5245 70.7647 27.4033 71.2315 26.3461C71.3276 26.1265 71.8905 26.8541 71.8905 26.8541L73.117 27.7923L77.1671 30.8996C77.1671 30.8996 75.5287 32.8354 74.7233 34.6888C74.6592 34.8444 74.6089 34.9954 74.5769 35.1465C74.5723 35.1694 74.5677 35.1922 74.554 35.2243C74.3343 36.1075 73.1033 39.2148 71.442 38.9037Z" fill="#FFBE9D"/>
<path d="M74.5864 35.1465C74.5818 35.1694 74.5772 35.1923 74.5635 35.2243C74.3438 35.1602 74.1104 35.0733 73.8633 34.9589C69.4288 32.8812 71.3829 26.9365 71.3829 26.9365L73.1174 27.7969L77.1675 30.9042C77.1675 30.9042 75.5291 32.84 74.7237 34.6934C74.6642 34.8445 74.6184 34.9955 74.5864 35.1465Z" fill="#263238"/>
<path d="M81.8262 18.2368C81.8262 18.2368 83.8535 19.5228 83.8672 21.811C83.881 24.0991 82.9703 26.337 82.7597 26.4148C82.5447 26.4971 81.8262 18.2368 81.8262 18.2368Z" fill="#263238"/>
<path d="M71.7671 19.422C70.5498 21.8292 70.6093 29.3985 72.1332 31.348C74.339 34.1762 78.5859 35.151 81.1532 32.3548C83.6382 29.6456 83.3865 19.779 81.6246 17.9393C79.0344 15.2347 73.5702 15.8708 71.7671 19.422Z" fill="#FFBE9D"/>
<path d="M71.42 25.9022C72.2575 26.1585 73.2185 23.6415 73.4931 22.6759C73.7311 21.8247 74.0102 19.1201 74.0514 18.9324C74.0926 18.7494 77.6988 21.3259 79.8085 20.7081C81.9182 20.0903 83.3277 18.2002 83.3552 17.317C83.3826 16.4338 80.7649 14.1913 78.4996 14.0769C76.2343 13.9625 73.1682 16.841 73.1682 16.841C73.1682 16.841 74.2116 15.5963 74.175 15.4956C74.1384 15.3949 72.6739 15.9807 72.4039 17.0195C72.4039 17.0195 72.6922 15.7107 72.5824 15.6878C72.4726 15.6649 71.3331 16.7861 71.5893 17.6328C71.5893 17.6328 70.2713 18.7723 70.1524 20.0216C70.0288 21.271 70.4361 25.6002 71.42 25.9022Z" fill="#263238"/>
<path d="M81.3053 20.2688C80.6646 20.5617 80.0194 20.8866 79.3146 20.9827C78.5504 21.0834 77.7541 20.8912 77.0402 20.6166C76.3125 20.3374 75.6489 19.9301 75.0449 19.4359C74.5186 19.0011 74.0472 18.4794 73.4843 18.0904C73.3425 17.9943 73.1823 18.1957 73.2647 18.3284C74.1204 19.6098 75.6352 20.6852 77.0905 21.1474C78.6236 21.6325 80.0697 21.2939 81.3099 20.2871C81.3191 20.2779 81.3145 20.2642 81.3053 20.2688Z" fill="#263238"/>
<path d="M72.2939 25.678C72.2939 25.678 70.9942 23.042 69.8226 23.4676C68.6511 23.8932 69.3741 27.5406 70.5686 28.2042C71.763 28.8723 72.4037 27.7786 72.4037 27.7786L72.2939 25.678Z" fill="#FFBE9D"/>
<path d="M70.0555 24.5065C70.0372 24.5019 70.028 24.5294 70.0418 24.5385C70.8747 25.0373 71.2179 25.9343 71.4147 26.8359C71.1996 26.4652 70.8701 26.2318 70.3804 26.4789C70.353 26.4926 70.3713 26.5338 70.3987 26.5292C70.774 26.5064 71.0303 26.6116 71.2316 26.9411C71.3735 27.1745 71.4513 27.4537 71.5428 27.7099C71.5703 27.7969 71.7213 27.774 71.7076 27.6779C71.7076 27.6688 71.703 27.6642 71.703 27.655C71.8952 26.5292 71.2545 24.8085 70.0555 24.5065Z" fill="#263238"/>
<path d="M63.713 37.4438C62.8161 42.6288 68.4175 60.0967 72.0191 63.3597C77.378 68.2106 87.2859 71.4003 90.8783 72.4392C92.4434 72.8922 96.7726 61.8815 95.1892 61.1539C91.7981 59.6025 81.2634 56.3167 80.2703 55.47C79.2772 54.628 73.2227 45.9146 70.5318 40.8943C66.9256 34.1579 64.1661 34.8215 63.713 37.4438Z" fill="#FFBE9D"/>
<path d="M92.5212 60.1884C92.5212 60.1884 97.1936 61.3782 100.214 62.3026C101.898 62.8152 104.708 63.9593 105.774 64.902C107.367 66.3161 113.124 73.2355 111.476 74.6679C109.985 75.9631 105.793 69.3868 105.793 69.3868C105.793 69.3868 110.607 75.6473 108.525 76.8783C106.442 78.1094 102.694 70.0504 102.694 70.0504C102.694 70.0504 107.5 76.5946 105.147 77.5236C103.372 78.2238 99.5642 71.1167 99.5642 71.1167C99.5642 71.1167 103.655 76.7685 101.862 77.5694C99.88 78.4526 95.9534 72.1143 95.9534 72.1143C91.0476 73.382 88.1965 71.9771 86.2836 70.7369C85.8214 70.444 92.5212 60.1884 92.5212 60.1884Z" fill="#EB9481"/>
<path d="M104.265 67.117C104.855 67.8309 105.459 68.5539 105.99 69.3182C106.516 70.0824 107.015 70.8696 107.468 71.6796C108.58 73.6703 108.965 75.089 108.932 75.002C108.145 72.9884 106.301 70.2197 105.775 69.4555C105.249 68.6912 104.763 67.8995 104.237 67.1353C104.223 67.117 104.251 67.0987 104.265 67.117Z" fill="#263238"/>
<path d="M101.469 68.9658C102.484 69.7712 104.612 72.7687 105.436 74.7732C105.473 74.8556 105.427 74.851 105.377 74.7732C104.731 73.7801 102.137 69.936 101.446 68.9795C101.432 68.9704 101.455 68.9566 101.469 68.9658Z" fill="#263238"/>
<path d="M98.7819 70.1236C99.958 71.286 100.942 72.874 101.72 74.7091C101.757 74.7915 101.688 74.7778 101.642 74.7C100.695 73.1577 99.9626 71.9404 98.7362 70.1602C98.7133 70.1373 98.7545 70.0962 98.7819 70.1236Z" fill="#263238"/>
<path d="M68.8062 37.8282C64.628 31.9201 62.1293 34.1076 62.9668 40.5237C63.7493 46.5233 65.8545 53.6715 65.8545 53.6715L76.3984 48.5643C76.3984 48.5597 71.4788 41.6083 68.8062 37.8282Z" fill="#2743FD"/>
<path d="M71.3603 40.1484C71.5113 40.4871 71.5891 40.8349 71.6577 41.1918C71.7172 41.5442 71.7584 41.9058 71.7309 42.2719C71.5799 41.9332 71.4975 41.5854 71.4335 41.2285C71.374 40.8761 71.3328 40.5191 71.3603 40.1484Z" fill="white"/>
<path d="M65.1221 43.7453C65.4607 43.5943 65.8131 43.5165 66.1655 43.4479C66.5179 43.3884 66.8794 43.3472 67.2455 43.3747C66.9068 43.5257 66.559 43.6081 66.2021 43.6721C65.8451 43.727 65.4882 43.7682 65.1221 43.7453Z" fill="white"/>
<path d="M65.3925 34.5515C65.2598 34.8947 65.0676 35.2014 64.8663 35.4988C64.6557 35.7917 64.4315 36.0709 64.1523 36.3134C64.2851 35.9702 64.4773 35.6636 64.6786 35.3661C64.8891 35.0778 65.1134 34.7941 65.3925 34.5515Z" fill="white"/>
<path d="M74.289 46.505C74.1563 46.8482 73.9641 47.1548 73.7627 47.4523C73.5522 47.7452 73.328 48.0244 73.0488 48.2669C73.1815 47.9237 73.3738 47.6171 73.5751 47.3196C73.7856 47.0267 74.0099 46.7476 74.289 46.505Z" fill="white"/>
<path d="M66.9943 50.0882C66.6511 49.9555 66.3445 49.7633 66.047 49.5619C65.7541 49.3514 65.475 49.1272 65.2324 48.848C65.5756 48.9807 65.8823 49.1729 66.1797 49.3743C66.4726 49.5848 66.7518 49.8091 66.9943 50.0882Z" fill="white"/>
<path d="M70.2062 39.6038C70.7691 40.3772 71.3503 41.1323 71.9269 41.892C71.7805 41.5076 71.6524 41.1232 71.5379 40.725C71.5334 40.7067 71.5608 40.6976 71.5654 40.7159C71.6844 41.0179 71.8125 41.3199 71.9269 41.622C71.9818 41.7684 72.0368 41.9149 72.0917 42.0613C72.1054 42.0933 72.1146 42.1254 72.1283 42.1574C72.5814 42.7478 73.0298 43.3427 73.46 43.9468C73.9771 44.6653 74.476 45.402 74.9794 46.1343C75.4965 46.8894 75.9907 47.7772 76.5353 48.514C76.5811 48.578 75.6017 48.9716 75.5102 49.0265C75.4187 49.0769 75.3546 48.9899 75.4507 48.9579C75.5423 48.9304 76.3202 48.4545 76.3294 48.4453C75.826 47.7085 75.2448 47.0267 74.7185 46.3036C74.1968 45.5851 73.6705 44.8712 73.1625 44.139C72.1329 42.6562 71.1856 41.1186 70.165 39.6313C70.165 39.6038 70.1925 39.5855 70.2062 39.6038Z" fill="#263238"/>
<path d="M63.2281 44.7659C63.3882 45.0771 63.5621 45.3883 63.704 45.7087C63.7635 45.8414 63.8184 45.9741 63.8779 46.1068C63.6354 44.9627 63.402 43.8232 63.1686 42.6791C63.164 42.6654 63.1869 42.6608 63.1915 42.6745C63.6765 44.528 64.1616 46.3768 64.6101 48.2394C65.0403 50.015 65.5529 51.809 65.8 53.6212C65.9464 53.5709 66.7656 53.2322 66.7885 53.2871C66.8114 53.342 65.7176 53.8592 65.6993 53.8134C65.1044 52.0469 64.7337 50.0333 64.3264 48.2165C64.212 47.704 64.1067 47.1914 63.9969 46.6743C63.8779 46.3631 63.736 46.0656 63.5942 45.7682C63.4432 45.4478 63.3242 45.1183 63.196 44.7888C63.1869 44.7614 63.2189 44.7476 63.2281 44.7659Z" fill="#263238"/>
<path d="M66.0239 51.9051C67.4883 51.0768 73.6069 47.9099 74.9798 47.315C75.0759 47.2738 75.1263 47.3242 75.0302 47.3791C70.7009 49.9602 67.5387 51.2232 66.0605 51.9646C66.0193 51.9783 65.9827 51.928 66.0239 51.9051Z" fill="#263238"/>
<path d="M233.715 172.217H94.2822L114.441 57.8771H253.874L233.715 172.217Z" fill="#2743FD"/>
<path d="M162.164 46.0334H116.533L114.441 57.8771H163.276L162.164 46.0334Z" fill="#2743FD"/>
<g opacity="0.1">
<path d="M233.715 172.217H94.2822L114.441 57.8771H253.874L233.715 172.217Z" fill="black"/>
<path d="M162.164 46.0334H116.533L114.441 57.8771H163.276L162.164 46.0334Z" fill="black"/>
</g>
<path d="M111.609 50.8661C111.43 50.2025 111.389 49.5389 111.38 48.8754C111.384 48.2118 111.426 47.5482 111.609 46.8846C111.792 47.5482 111.833 48.2118 111.838 48.8754C111.828 49.5389 111.787 50.2025 111.609 50.8661Z" fill="#263238"/>
<path d="M107.554 52.0376C107.065 51.5525 106.698 50.9988 106.36 50.4267C106.035 49.8501 105.737 49.2552 105.563 48.587C106.053 49.0721 106.419 49.6259 106.758 50.1979C107.078 50.7791 107.376 51.374 107.554 52.0376Z" fill="#263238"/>
<path d="M104.625 55.0809C103.962 54.907 103.367 54.6096 102.786 54.2846C102.214 53.946 101.66 53.5799 101.175 53.0902C101.838 53.2641 102.433 53.5616 103.015 53.8865C103.587 54.2251 104.14 54.5913 104.625 55.0809Z" fill="#263238"/>
<path d="M103.613 59.1767C102.95 59.3552 102.286 59.3964 101.623 59.4055C100.959 59.4009 100.295 59.3597 99.6318 59.1767C100.295 58.9936 100.959 58.9525 101.623 58.9479C102.286 58.957 102.95 58.9982 103.613 59.1767Z" fill="#263238"/>
<path d="M104.785 63.2313C104.299 63.721 103.746 64.0871 103.174 64.4258C102.597 64.7507 102.002 65.0481 101.334 65.222C101.819 64.7324 102.373 64.3663 102.945 64.0276C103.526 63.7073 104.121 63.4098 104.785 63.2313Z" fill="#263238"/>
<path d="M107.829 66.1603C107.655 66.8239 107.357 67.4188 107.032 68C106.694 68.572 106.328 69.1258 105.838 69.6108C106.012 68.9473 106.309 68.3523 106.634 67.7712C106.977 67.1991 107.344 66.6454 107.829 66.1603Z" fill="#263238"/>
<path d="M111.929 67.1716C112.107 67.8352 112.149 68.4988 112.158 69.1623C112.153 69.8259 112.112 70.4895 111.929 71.1531C111.746 70.4895 111.705 69.8259 111.7 69.1623C111.709 68.4988 111.746 67.8352 111.929 67.1716Z" fill="#263238"/>
<path d="M115.983 65.9955C116.473 66.4806 116.839 67.0343 117.178 67.6064C117.503 68.183 117.8 68.7779 117.974 69.4461C117.484 68.961 117.118 68.4072 116.78 67.8352C116.455 67.2586 116.157 66.6636 115.983 65.9955Z" fill="#263238"/>
<path d="M118.908 62.9568C119.572 63.1307 120.167 63.4281 120.748 63.7531C121.32 64.0917 121.874 64.4578 122.359 64.9475C121.695 64.7736 121.1 64.4761 120.519 64.1512C119.947 63.808 119.393 63.4419 118.908 62.9568Z" fill="#263238"/>
<path d="M119.919 58.8564C120.583 58.6779 121.246 58.6367 121.91 58.6276C122.573 58.6321 123.237 58.6733 123.9 58.8564C123.237 59.0394 122.573 59.0806 121.91 59.0852C121.246 59.076 120.583 59.0394 119.919 58.8564Z" fill="#263238"/>
<path d="M118.747 54.8017C119.232 54.3121 119.786 53.946 120.358 53.6073C120.935 53.2824 121.529 52.9849 122.198 52.811C121.713 53.3007 121.159 53.6668 120.587 54.0055C120.006 54.3304 119.411 54.6278 118.747 54.8017Z" fill="#263238"/>
<path d="M115.704 51.8775C115.878 51.2139 116.175 50.619 116.5 50.0378C116.839 49.4657 117.205 48.912 117.695 48.4269C117.521 49.0905 117.223 49.6854 116.899 50.2666C116.56 50.8386 116.194 51.3924 115.704 51.8775Z" fill="#263238"/>
<path d="M233.509 172.217H93.7741L73.9355 62.0278H213.67L233.509 172.217Z" fill="#2743FD"/>
<path d="M122.358 129.387C125.566 129.387 128.166 126.787 128.166 123.58C128.166 120.373 125.566 117.773 122.358 117.773C119.151 117.773 116.551 120.373 116.551 123.58C116.551 126.787 119.151 129.387 122.358 129.387Z" fill="white"/>
<path d="M168.268 129.387C171.476 129.387 174.076 126.787 174.076 123.58C174.076 120.373 171.476 117.773 168.268 117.773C165.061 117.773 162.461 120.373 162.461 123.58C162.461 126.787 165.061 129.387 168.268 129.387Z" fill="white"/>
<path d="M153.656 130.312L153.335 129.703C153.308 129.648 150.306 124.102 144.27 124.102C138.764 124.102 137.423 129.323 137.369 129.548L137.204 130.211L135.872 129.891L136.032 129.223C136.046 129.159 137.666 122.729 144.27 122.729C151.153 122.729 154.415 128.806 154.553 129.067L154.873 129.676L153.656 130.312Z" fill="white"/>
<path d="M113.811 18.1178C113.156 24.3829 107.541 28.9318 101.28 28.2773C98.7497 28.0119 96.4982 26.9365 94.7546 25.3348L89.0479 26.1722L91.9035 21.2389C91.2125 19.5548 90.9196 17.6785 91.1209 15.7473C91.7754 9.48225 97.3906 4.93335 103.651 5.58777C109.916 6.23761 114.47 11.8528 113.811 18.1178Z" fill="white"/>
<path d="M113.81 18.1179C113.572 20.2001 112.813 22.2412 111.508 23.8978C111.211 24.3326 110.822 24.6941 110.474 25.0877C110.076 25.4309 109.71 25.8107 109.27 26.1082C108.438 26.7489 107.499 27.2523 106.52 27.6413C105.545 28.0531 104.497 28.2499 103.449 28.3735C102.923 28.4009 102.392 28.4513 101.866 28.4055C101.335 28.3918 100.809 28.3369 100.287 28.2408C98.2002 27.8609 96.2232 26.8862 94.6444 25.4538L94.7771 25.4949L89.075 26.369L88.6631 26.4331L88.8736 26.067L91.7109 21.1245L91.6972 21.3213C90.3151 18.0675 90.6263 14.1868 92.402 11.1572C93.2852 9.63787 94.5208 8.32903 95.9761 7.35427C97.4314 6.37493 99.1155 5.7617 100.845 5.5283C102.575 5.29948 104.351 5.45508 106.003 6.00424C107.65 6.55798 109.165 7.49156 110.401 8.69972C112.918 11.0886 114.181 14.681 113.81 18.1179ZM113.81 18.1179C114.158 14.681 112.867 11.1115 110.346 8.75006C109.097 7.56936 107.582 6.67239 105.948 6.15526C104.31 5.64271 102.561 5.51915 100.873 5.77543C99.1887 6.03628 97.5549 6.66324 96.1637 7.638C94.7725 8.61734 93.601 9.89415 92.7498 11.3586C91.8848 12.823 91.4364 14.5025 91.3036 16.1866C91.1984 17.8753 91.473 19.5869 92.1045 21.1566L92.1457 21.2572L92.0908 21.3488L89.2168 26.2729L89.0109 25.9709L94.7313 25.17L94.8091 25.1609L94.864 25.2158C96.3742 26.6345 98.2826 27.623 100.324 28.0302C100.832 28.1309 101.349 28.1996 101.87 28.2179C102.392 28.2728 102.909 28.2362 103.431 28.2133C104.465 28.108 105.504 27.9341 106.479 27.5406C107.454 27.1745 108.401 26.694 109.229 26.0578C109.669 25.765 110.035 25.3943 110.433 25.051C110.785 24.6621 111.17 24.3051 111.472 23.8749C112.785 22.2274 113.558 20.1955 113.81 18.1179Z" fill="#263238"/>
<path d="M96.8916 22.2458C96.8916 21.5639 97.363 21.0742 98.0082 21.0742C98.6901 21.0742 99.1249 21.5639 99.1249 22.2458C99.1249 22.9094 98.6901 23.4173 98.0082 23.4173C97.3447 23.4219 96.8916 22.9094 96.8916 22.2458ZM97.363 19.5412L97.0975 10.4617H98.9144L98.6489 19.5412H97.363Z" fill="#2743FD"/>
<path d="M101.239 22.2458C101.239 21.5639 101.711 21.0742 102.356 21.0742C103.038 21.0742 103.473 21.5639 103.473 22.2458C103.473 22.9094 103.038 23.4173 102.356 23.4173C101.697 23.4219 101.239 22.9094 101.239 22.2458ZM101.715 19.5412L101.45 10.4617H103.267L103.001 19.5412H101.715Z" fill="#2743FD"/>
<path d="M105.591 22.2458C105.591 21.5639 106.062 21.0742 106.707 21.0742C107.389 21.0742 107.824 21.5639 107.824 22.2458C107.824 22.9094 107.389 23.4173 106.707 23.4173C106.044 23.4219 105.591 22.9094 105.591 22.2458ZM106.067 19.5412L105.801 10.4617H107.618L107.353 19.5412H106.067Z" fill="#2743FD"/>
</svg>
