<svg width="328" height="328" viewBox="0 0 328 328" fill="none" xmlns="http://www.w3.org/2000/svg">
<g clip-path="url(#clip0_1327_3719)">
<path d="M328 250.85H0V251.014H328V250.85Z" fill="#EBEBEB"/>
<path d="M295.136 261.41H273.408V261.574H295.136V261.41Z" fill="#EBEBEB"/>
<path d="M217.281 263.189H211.578V263.353H217.281V263.189Z" fill="#EBEBEB"/>
<path d="M272.752 255.318H260.162V255.482H272.752V255.318Z" fill="#EBEBEB"/>
<path d="M62.7467 256.422H34.4121V256.586H62.7467V256.422Z" fill="#EBEBEB"/>
<path d="M72.7423 256.422H68.5879V256.586H72.7423V256.422Z" fill="#EBEBEB"/>
<path d="M147.694 259.191H86.2422V259.355H147.694V259.191Z" fill="#EBEBEB"/>
<path d="M155.48 221.595H28.8069C26.7425 221.595 25.0625 219.915 25.0625 217.851V39.7913C25.0625 37.7269 26.7425 36.0469 28.8069 36.0469H155.48C157.544 36.0469 159.224 37.7269 159.224 39.7913V217.851C159.224 219.915 157.544 221.595 155.48 221.595ZM28.8069 36.2115C26.8324 36.2115 25.2265 37.8174 25.2265 39.792V217.851C25.2265 219.826 26.8324 221.432 28.8069 221.432H155.48C157.454 221.432 159.06 219.826 159.06 217.851V39.7913C159.06 37.8174 157.454 36.2109 155.48 36.2109L28.8069 36.2115Z" fill="#EBEBEB"/>
<path d="M297.371 221.595H170.699C168.634 221.595 166.955 219.915 166.955 217.851V39.7913C166.955 37.7269 168.635 36.0469 170.699 36.0469H297.371C299.436 36.0469 301.116 37.7269 301.116 39.7913V217.851C301.116 219.915 299.436 221.595 297.371 221.595ZM170.699 36.2115C168.725 36.2115 167.119 37.8174 167.119 39.792V217.851C167.119 219.826 168.725 221.432 170.699 221.432H297.371C299.346 221.432 300.952 219.826 300.952 217.851V39.7913C300.952 37.8174 299.346 36.2109 297.371 36.2109L170.699 36.2115Z" fill="#EBEBEB"/>
<path d="M284.706 249.802V219.088H282.08V204.453H278.24V153.57H272.691V147.004L260.842 141.478V134.858H259.201V153.57H256.903V204.453H254.605V177.699H248.368V163.911H246.627V204.453H241.89V189.024H238.771V185.084H231.548V171.625H227.594V162.105H222.732V148.235H220.997V162.105H216.135V171.625H212.18V185.084H204.958V189.024H201.839V204.453H198.14V185.084H190.918V143.393H188.62V138.797H173.191V143.393H169.909V173.595H156.778V176.549H151.853V178.847H156.778V190.666H142.99V151.272H140.035V142.901H133.634V113.191H131.828V142.901H127.232V151.272H100.288V148.516H98.6467V167.228H96.3488V167.557H94.9685V186.269H92.6706V191.357H87.8135V177.569H86.0732V210.398H84.1354V196.61H82.3943V218.112H81.3355V202.683H78.2169V198.743H70.995V185.284H67.04V175.764H62.1784V161.894H60.4433V175.764H55.5816V185.284H51.6266V198.743H44.4041V202.683H41.2854V217.783H40.7259V218.112H39.1816V249.802H284.706Z" fill="#E6E6E6"/>
<path d="M117.185 153.113H115.324V154.974H117.185V153.113Z" fill="#F0F0F0"/>
<path d="M117.185 156.232H115.324V158.093H117.185V156.232Z" fill="#F0F0F0"/>
<path d="M117.185 168.705H115.324V170.565H117.185V168.705Z" fill="#F0F0F0"/>
<path d="M117.185 171.824H115.324V173.685H117.185V171.824Z" fill="#F0F0F0"/>
<path d="M117.185 174.943H115.324V176.804H117.185V174.943Z" fill="#F0F0F0"/>
<path d="M117.185 184.301H115.324V186.161H117.185V184.301Z" fill="#F0F0F0"/>
<path d="M117.185 187.416H115.324V189.276H117.185V187.416Z" fill="#F0F0F0"/>
<path d="M120.138 165.588H118.277V167.448H120.138V165.588Z" fill="#F0F0F0"/>
<path d="M120.138 168.705H118.277V170.565H120.138V168.705Z" fill="#F0F0F0"/>
<path d="M120.138 171.824H118.277V173.685H120.138V171.824Z" fill="#F0F0F0"/>
<path d="M120.138 174.943H118.277V176.804H120.138V174.943Z" fill="#F0F0F0"/>
<path d="M120.138 178.062H118.277V179.923H120.138V178.062Z" fill="#F0F0F0"/>
<path d="M120.138 184.301H118.277V186.161H120.138V184.301Z" fill="#F0F0F0"/>
<path d="M120.138 187.416H118.277V189.276H120.138V187.416Z" fill="#F0F0F0"/>
<path d="M123.093 153.113H121.232V154.974H123.093V153.113Z" fill="#F0F0F0"/>
<path d="M123.093 156.232H121.232V158.093H123.093V156.232Z" fill="#F0F0F0"/>
<path d="M123.093 159.352H121.232V161.212H123.093V159.352Z" fill="#F0F0F0"/>
<path d="M123.093 162.467H121.232V164.327H123.093V162.467Z" fill="#F0F0F0"/>
<path d="M123.093 165.588H121.232V167.448H123.093V165.588Z" fill="#F0F0F0"/>
<path d="M123.093 168.705H121.232V170.565H123.093V168.705Z" fill="#F0F0F0"/>
<path d="M123.093 171.824H121.232V173.685H123.093V171.824Z" fill="#F0F0F0"/>
<path d="M123.093 174.943H121.232V176.804H123.093V174.943Z" fill="#F0F0F0"/>
<path d="M123.093 178.062H121.232V179.923H123.093V178.062Z" fill="#F0F0F0"/>
<path d="M123.093 181.184H121.232V183.044H123.093V181.184Z" fill="#F0F0F0"/>
<path d="M123.093 187.416H121.232V189.276H123.093V187.416Z" fill="#F0F0F0"/>
<path d="M126.05 153.113H124.189V154.974H126.05V153.113Z" fill="#F0F0F0"/>
<path d="M126.05 156.232H124.189V158.093H126.05V156.232Z" fill="#F0F0F0"/>
<path d="M126.05 159.352H124.189V161.212H126.05V159.352Z" fill="#F0F0F0"/>
<path d="M126.05 162.467H124.189V164.327H126.05V162.467Z" fill="#F0F0F0"/>
<path d="M126.05 165.588H124.189V167.448H126.05V165.588Z" fill="#F0F0F0"/>
<path d="M126.05 168.705H124.189V170.565H126.05V168.705Z" fill="#F0F0F0"/>
<path d="M126.05 171.824H124.189V173.685H126.05V171.824Z" fill="#F0F0F0"/>
<path d="M126.05 199.895H124.189V201.755H126.05V199.895Z" fill="#F0F0F0"/>
<path d="M129.003 153.113H127.143V154.974H129.003V153.113Z" fill="#F0F0F0"/>
<path d="M129.003 156.232H127.143V158.093H129.003V156.232Z" fill="#F0F0F0"/>
<path d="M129.003 159.352H127.143V161.212H129.003V159.352Z" fill="#F0F0F0"/>
<path d="M129.003 162.467H127.143V164.327H129.003V162.467Z" fill="#F0F0F0"/>
<path d="M129.003 165.588H127.143V167.448H129.003V165.588Z" fill="#F0F0F0"/>
<path d="M129.003 168.705H127.143V170.565H129.003V168.705Z" fill="#F0F0F0"/>
<path d="M129.003 171.824H127.143V173.685H129.003V171.824Z" fill="#F0F0F0"/>
<path d="M129.003 174.943H127.143V176.804H129.003V174.943Z" fill="#F0F0F0"/>
<path d="M129.003 193.654H127.143V195.515H129.003V193.654Z" fill="#F0F0F0"/>
<path d="M129.003 196.773H127.143V198.634H129.003V196.773Z" fill="#F0F0F0"/>
<path d="M129.003 199.895H127.143V201.755H129.003V199.895Z" fill="#F0F0F0"/>
<path d="M129.003 203.012H127.143V204.872H129.003V203.012Z" fill="#F0F0F0"/>
<path d="M129.003 215.486H127.143V217.347H129.003V215.486Z" fill="#F0F0F0"/>
<path d="M131.956 153.113H130.096V154.974H131.956V153.113Z" fill="#F0F0F0"/>
<path d="M131.956 156.232H130.096V158.093H131.956V156.232Z" fill="#F0F0F0"/>
<path d="M131.956 159.352H130.096V161.212H131.956V159.352Z" fill="#F0F0F0"/>
<path d="M131.956 162.467H130.096V164.327H131.956V162.467Z" fill="#F0F0F0"/>
<path d="M131.956 165.588H130.096V167.448H131.956V165.588Z" fill="#F0F0F0"/>
<path d="M131.956 168.705H130.096V170.565H131.956V168.705Z" fill="#F0F0F0"/>
<path d="M131.956 171.824H130.096V173.685H131.956V171.824Z" fill="#F0F0F0"/>
<path d="M131.956 174.943H130.096V176.804H131.956V174.943Z" fill="#F0F0F0"/>
<path d="M131.956 178.062H130.096V179.923H131.956V178.062Z" fill="#F0F0F0"/>
<path d="M131.956 181.184H130.096V183.044H131.956V181.184Z" fill="#F0F0F0"/>
<path d="M131.956 190.537H130.096V192.398H131.956V190.537Z" fill="#F0F0F0"/>
<path d="M131.956 193.654H130.096V195.515H131.956V193.654Z" fill="#F0F0F0"/>
<path d="M131.956 196.773H130.096V198.634H131.956V196.773Z" fill="#F0F0F0"/>
<path d="M131.956 199.895H130.096V201.755H131.956V199.895Z" fill="#F0F0F0"/>
<path d="M131.956 203.012H130.096V204.872H131.956V203.012Z" fill="#F0F0F0"/>
<path d="M131.956 215.486H130.096V217.347H131.956V215.486Z" fill="#F0F0F0"/>
<path d="M134.909 153.113H133.049V154.974H134.909V153.113Z" fill="#F0F0F0"/>
<path d="M134.909 156.232H133.049V158.093H134.909V156.232Z" fill="#F0F0F0"/>
<path d="M134.909 159.352H133.049V161.212H134.909V159.352Z" fill="#F0F0F0"/>
<path d="M134.909 162.467H133.049V164.327H134.909V162.467Z" fill="#F0F0F0"/>
<path d="M134.909 165.588H133.049V167.448H134.909V165.588Z" fill="#F0F0F0"/>
<path d="M134.909 168.705H133.049V170.565H134.909V168.705Z" fill="#F0F0F0"/>
<path d="M134.909 171.824H133.049V173.685H134.909V171.824Z" fill="#F0F0F0"/>
<path d="M134.909 174.943H133.049V176.804H134.909V174.943Z" fill="#F0F0F0"/>
<path d="M134.909 178.062H133.049V179.923H134.909V178.062Z" fill="#F0F0F0"/>
<path d="M134.909 181.184H133.049V183.044H134.909V181.184Z" fill="#F0F0F0"/>
<path d="M134.909 184.301H133.049V186.161H134.909V184.301Z" fill="#F0F0F0"/>
<path d="M134.909 187.416H133.049V189.276H134.909V187.416Z" fill="#F0F0F0"/>
<path d="M134.909 190.537H133.049V192.398H134.909V190.537Z" fill="#F0F0F0"/>
<path d="M134.909 193.654H133.049V195.515H134.909V193.654Z" fill="#F0F0F0"/>
<path d="M134.909 196.773H133.049V198.634H134.909V196.773Z" fill="#F0F0F0"/>
<path d="M134.909 199.895H133.049V201.755H134.909V199.895Z" fill="#F0F0F0"/>
<path d="M134.909 203.012H133.049V204.872H134.909V203.012Z" fill="#F0F0F0"/>
<path d="M134.909 206.127H133.049V207.987H134.909V206.127Z" fill="#F0F0F0"/>
<path d="M137.866 153.113H136.006V154.974H137.866V153.113Z" fill="#F0F0F0"/>
<path d="M137.866 156.232H136.006V158.093H137.866V156.232Z" fill="#F0F0F0"/>
<path d="M137.866 159.352H136.006V161.212H137.866V159.352Z" fill="#F0F0F0"/>
<path d="M137.866 162.467H136.006V164.327H137.866V162.467Z" fill="#F0F0F0"/>
<path d="M137.866 165.588H136.006V167.448H137.866V165.588Z" fill="#F0F0F0"/>
<path d="M137.866 168.705H136.006V170.565H137.866V168.705Z" fill="#F0F0F0"/>
<path d="M137.866 171.824H136.006V173.685H137.866V171.824Z" fill="#F0F0F0"/>
<path d="M137.866 174.943H136.006V176.804H137.866V174.943Z" fill="#F0F0F0"/>
<path d="M137.866 178.062H136.006V179.923H137.866V178.062Z" fill="#F0F0F0"/>
<path d="M137.866 181.184H136.006V183.044H137.866V181.184Z" fill="#F0F0F0"/>
<path d="M137.866 190.537H136.006V192.398H137.866V190.537Z" fill="#F0F0F0"/>
<path d="M137.866 193.654H136.006V195.515H137.866V193.654Z" fill="#F0F0F0"/>
<path d="M137.866 196.773H136.006V198.634H137.866V196.773Z" fill="#F0F0F0"/>
<path d="M137.866 199.895H136.006V201.755H137.866V199.895Z" fill="#F0F0F0"/>
<path d="M140.819 153.113H138.959V154.974H140.819V153.113Z" fill="#F0F0F0"/>
<path d="M140.819 156.232H138.959V158.093H140.819V156.232Z" fill="#F0F0F0"/>
<path d="M140.819 159.352H138.959V161.212H140.819V159.352Z" fill="#F0F0F0"/>
<path d="M140.819 162.467H138.959V164.327H140.819V162.467Z" fill="#F0F0F0"/>
<path d="M140.819 165.588H138.959V167.448H140.819V165.588Z" fill="#F0F0F0"/>
<path d="M140.819 168.705H138.959V170.565H140.819V168.705Z" fill="#F0F0F0"/>
<path d="M140.819 171.824H138.959V173.685H140.819V171.824Z" fill="#F0F0F0"/>
<path d="M140.819 174.943H138.959V176.804H140.819V174.943Z" fill="#F0F0F0"/>
<path d="M140.819 178.062H138.959V179.923H140.819V178.062Z" fill="#F0F0F0"/>
<path d="M140.819 181.184H138.959V183.044H140.819V181.184Z" fill="#F0F0F0"/>
<path d="M140.819 190.537H138.959V192.398H140.819V190.537Z" fill="#F0F0F0"/>
<path d="M140.819 193.654H138.959V195.515H140.819V193.654Z" fill="#F0F0F0"/>
<path d="M140.819 196.773H138.959V198.634H140.819V196.773Z" fill="#F0F0F0"/>
<path d="M174.087 145.016H172.227V146.876H174.087V145.016Z" fill="#F0F0F0"/>
<path d="M174.087 148.133H172.227V149.993H174.087V148.133Z" fill="#F0F0F0"/>
<path d="M174.087 151.254H172.227V153.114H174.087V151.254Z" fill="#F0F0F0"/>
<path d="M174.087 154.373H172.227V156.233H174.087V154.373Z" fill="#F0F0F0"/>
<path d="M174.087 157.488H172.227V159.349H174.087V157.488Z" fill="#F0F0F0"/>
<path d="M174.087 160.609H172.227V162.47H174.087V160.609Z" fill="#F0F0F0"/>
<path d="M174.087 163.727H172.227V165.587H174.087V163.727Z" fill="#F0F0F0"/>
<path d="M174.087 166.846H172.227V168.706H174.087V166.846Z" fill="#F0F0F0"/>
<path d="M174.087 176.199H172.227V178.06H174.087V176.199Z" fill="#F0F0F0"/>
<path d="M174.087 179.322H172.227V181.183H174.087V179.322Z" fill="#F0F0F0"/>
<path d="M177.04 145.016H175.18V146.876H177.04V145.016Z" fill="#F0F0F0"/>
<path d="M177.04 148.133H175.18V149.993H177.04V148.133Z" fill="#F0F0F0"/>
<path d="M177.04 151.254H175.18V153.114H177.04V151.254Z" fill="#F0F0F0"/>
<path d="M177.04 154.373H175.18V156.233H177.04V154.373Z" fill="#F0F0F0"/>
<path d="M177.04 157.488H175.18V159.349H177.04V157.488Z" fill="#F0F0F0"/>
<path d="M177.04 160.609H175.18V162.47H177.04V160.609Z" fill="#F0F0F0"/>
<path d="M177.04 163.727H175.18V165.587H177.04V163.727Z" fill="#F0F0F0"/>
<path d="M177.04 166.846H175.18V168.706H177.04V166.846Z" fill="#F0F0F0"/>
<path d="M177.04 179.322H175.18V181.183H177.04V179.322Z" fill="#F0F0F0"/>
<path d="M179.995 145.016H178.135V146.876H179.995V145.016Z" fill="#F0F0F0"/>
<path d="M179.995 148.133H178.135V149.993H179.995V148.133Z" fill="#F0F0F0"/>
<path d="M179.995 151.254H178.135V153.114H179.995V151.254Z" fill="#F0F0F0"/>
<path d="M179.995 154.373H178.135V156.233H179.995V154.373Z" fill="#F0F0F0"/>
<path d="M179.995 157.488H178.135V159.349H179.995V157.488Z" fill="#F0F0F0"/>
<path d="M179.995 160.609H178.135V162.47H179.995V160.609Z" fill="#F0F0F0"/>
<path d="M179.995 163.727H178.135V165.587H179.995V163.727Z" fill="#F0F0F0"/>
<path d="M179.995 166.846H178.135V168.706H179.995V166.846Z" fill="#F0F0F0"/>
<path d="M182.95 145.016H181.09V146.876H182.95V145.016Z" fill="#F0F0F0"/>
<path d="M182.95 148.133H181.09V149.993H182.95V148.133Z" fill="#F0F0F0"/>
<path d="M182.95 151.254H181.09V153.114H182.95V151.254Z" fill="#F0F0F0"/>
<path d="M182.95 154.373H181.09V156.233H182.95V154.373Z" fill="#F0F0F0"/>
<path d="M182.95 157.488H181.09V159.349H182.95V157.488Z" fill="#F0F0F0"/>
<path d="M182.95 160.609H181.09V162.47H182.95V160.609Z" fill="#F0F0F0"/>
<path d="M182.95 166.846H181.09V168.706H182.95V166.846Z" fill="#F0F0F0"/>
<path d="M182.95 169.965H181.09V171.825H182.95V169.965Z" fill="#F0F0F0"/>
<path d="M182.95 179.322H181.09V181.183H182.95V179.322Z" fill="#F0F0F0"/>
<path d="M182.95 182.438H181.09V184.298H182.95V182.438Z" fill="#F0F0F0"/>
<path d="M182.95 185.559H181.09V187.419H182.95V185.559Z" fill="#F0F0F0"/>
<path d="M182.95 188.676H181.09V190.536H182.95V188.676Z" fill="#F0F0F0"/>
<path d="M182.95 191.795H181.09V193.655H182.95V191.795Z" fill="#F0F0F0"/>
<path d="M182.95 194.914H181.09V196.774H182.95V194.914Z" fill="#F0F0F0"/>
<path d="M182.95 198.033H181.09V199.894H182.95V198.033Z" fill="#F0F0F0"/>
<path d="M185.903 145.016H184.043V146.876H185.903V145.016Z" fill="#F0F0F0"/>
<path d="M185.903 148.133H184.043V149.993H185.903V148.133Z" fill="#F0F0F0"/>
<path d="M185.903 151.254H184.043V153.114H185.903V151.254Z" fill="#F0F0F0"/>
<path d="M185.903 154.373H184.043V156.233H185.903V154.373Z" fill="#F0F0F0"/>
<path d="M185.903 157.488H184.043V159.349H185.903V157.488Z" fill="#F0F0F0"/>
<path d="M185.903 160.609H184.043V162.47H185.903V160.609Z" fill="#F0F0F0"/>
<path d="M185.903 169.965H184.043V171.825H185.903V169.965Z" fill="#F0F0F0"/>
<path d="M185.903 173.084H184.043V174.944H185.903V173.084Z" fill="#F0F0F0"/>
<path d="M185.903 176.199H184.043V178.06H185.903V176.199Z" fill="#F0F0F0"/>
<path d="M185.903 179.322H184.043V181.183H185.903V179.322Z" fill="#F0F0F0"/>
<path d="M185.903 182.438H184.043V184.298H185.903V182.438Z" fill="#F0F0F0"/>
<path d="M185.903 185.559H184.043V187.419H185.903V185.559Z" fill="#F0F0F0"/>
<path d="M185.903 188.676H184.043V190.536H185.903V188.676Z" fill="#F0F0F0"/>
<path d="M185.903 191.795H184.043V193.655H185.903V191.795Z" fill="#F0F0F0"/>
<path d="M185.903 194.914H184.043V196.774H185.903V194.914Z" fill="#F0F0F0"/>
<path d="M185.903 198.033H184.043V199.894H185.903V198.033Z" fill="#F0F0F0"/>
<path d="M185.903 201.148H184.043V203.009H185.903V201.148Z" fill="#F0F0F0"/>
<path d="M185.903 207.387H184.043V209.247H185.903V207.387Z" fill="#F0F0F0"/>
<path d="M188.858 145.016H186.998V146.876H188.858V145.016Z" fill="#F0F0F0"/>
<path d="M188.858 148.133H186.998V149.993H188.858V148.133Z" fill="#F0F0F0"/>
<path d="M188.858 151.254H186.998V153.114H188.858V151.254Z" fill="#F0F0F0"/>
<path d="M188.858 154.373H186.998V156.233H188.858V154.373Z" fill="#F0F0F0"/>
<path d="M188.858 157.488H186.998V159.349H188.858V157.488Z" fill="#F0F0F0"/>
<path d="M188.858 160.609H186.998V162.47H188.858V160.609Z" fill="#F0F0F0"/>
<path d="M188.858 169.965H186.998V171.825H188.858V169.965Z" fill="#F0F0F0"/>
<path d="M188.858 173.084H186.998V174.944H188.858V173.084Z" fill="#F0F0F0"/>
<path d="M188.858 176.199H186.998V178.06H188.858V176.199Z" fill="#F0F0F0"/>
<path d="M188.858 179.322H186.998V181.183H188.858V179.322Z" fill="#F0F0F0"/>
<path d="M188.858 188.676H186.998V190.536H188.858V188.676Z" fill="#F0F0F0"/>
<path d="M188.858 191.795H186.998V193.655H188.858V191.795Z" fill="#F0F0F0"/>
<path d="M188.858 194.914H186.998V196.774H188.858V194.914Z" fill="#F0F0F0"/>
<path d="M188.858 198.033H186.998V199.894H188.858V198.033Z" fill="#F0F0F0"/>
<path d="M188.858 201.148H186.998V203.009H188.858V201.148Z" fill="#F0F0F0"/>
<path d="M188.858 207.387H186.998V209.247H188.858V207.387Z" fill="#F0F0F0"/>
<path d="M188.858 210.508H186.998V212.368H188.858V210.508Z" fill="#F0F0F0"/>
<path d="M215.667 174.012H213.807V175.872H215.667V174.012Z" fill="#F0F0F0"/>
<path d="M215.667 177.133H213.807V178.993H215.667V177.133Z" fill="#F0F0F0"/>
<path d="M215.667 180.25H213.807V182.11H215.667V180.25Z" fill="#F0F0F0"/>
<path d="M215.667 183.371H213.807V185.232H215.667V183.371Z" fill="#F0F0F0"/>
<path d="M215.667 186.488H213.807V188.349H215.667V186.488Z" fill="#F0F0F0"/>
<path d="M215.667 189.607H213.807V191.468H215.667V189.607Z" fill="#F0F0F0"/>
<path d="M215.667 192.727H213.807V194.587H215.667V192.727Z" fill="#F0F0F0"/>
<path d="M215.667 202.082H213.807V203.942H215.667V202.082Z" fill="#F0F0F0"/>
<path d="M215.667 205.199H213.807V207.06H215.667V205.199Z" fill="#F0F0F0"/>
<path d="M215.667 208.318H213.807V210.179H215.667V208.318Z" fill="#F0F0F0"/>
<path d="M218.622 174.012H216.762V175.872H218.622V174.012Z" fill="#F0F0F0"/>
<path d="M218.622 177.133H216.762V178.993H218.622V177.133Z" fill="#F0F0F0"/>
<path d="M218.622 180.25H216.762V182.11H218.622V180.25Z" fill="#F0F0F0"/>
<path d="M218.622 183.371H216.762V185.232H218.622V183.371Z" fill="#F0F0F0"/>
<path d="M218.622 186.488H216.762V188.349H218.622V186.488Z" fill="#F0F0F0"/>
<path d="M218.622 189.607H216.762V191.468H218.622V189.607Z" fill="#F0F0F0"/>
<path d="M218.622 192.727H216.762V194.587H218.622V192.727Z" fill="#F0F0F0"/>
<path d="M221.575 174.012H219.715V175.872H221.575V174.012Z" fill="#F0F0F0"/>
<path d="M221.575 177.133H219.715V178.993H221.575V177.133Z" fill="#F0F0F0"/>
<path d="M221.575 180.25H219.715V182.11H221.575V180.25Z" fill="#F0F0F0"/>
<path d="M221.575 183.371H219.715V185.232H221.575V183.371Z" fill="#F0F0F0"/>
<path d="M221.575 186.488H219.715V188.349H221.575V186.488Z" fill="#F0F0F0"/>
<path d="M221.575 189.607H219.715V191.468H221.575V189.607Z" fill="#F0F0F0"/>
<path d="M221.575 192.727H219.715V194.587H221.575V192.727Z" fill="#F0F0F0"/>
<path d="M224.532 174.012H222.672V175.872H224.532V174.012Z" fill="#F0F0F0"/>
<path d="M224.532 177.133H222.672V178.993H224.532V177.133Z" fill="#F0F0F0"/>
<path d="M224.532 180.25H222.672V182.11H224.532V180.25Z" fill="#F0F0F0"/>
<path d="M224.532 183.371H222.672V185.232H224.532V183.371Z" fill="#F0F0F0"/>
<path d="M224.532 186.488H222.672V188.349H224.532V186.488Z" fill="#F0F0F0"/>
<path d="M224.532 189.607H222.672V191.468H224.532V189.607Z" fill="#F0F0F0"/>
<path d="M224.532 192.727H222.672V194.587H224.532V192.727Z" fill="#F0F0F0"/>
<path d="M224.532 195.844H222.672V197.704H224.532V195.844Z" fill="#F0F0F0"/>
<path d="M224.532 198.961H222.672V200.821H224.532V198.961Z" fill="#F0F0F0"/>
<path d="M224.532 202.082H222.672V203.942H224.532V202.082Z" fill="#F0F0F0"/>
<path d="M224.532 205.199H222.672V207.06H224.532V205.199Z" fill="#F0F0F0"/>
<path d="M227.487 174.012H225.627V175.872H227.487V174.012Z" fill="#F0F0F0"/>
<path d="M227.487 177.133H225.627V178.993H227.487V177.133Z" fill="#F0F0F0"/>
<path d="M227.487 180.25H225.627V182.11H227.487V180.25Z" fill="#F0F0F0"/>
<path d="M227.487 183.371H225.627V185.232H227.487V183.371Z" fill="#F0F0F0"/>
<path d="M227.487 186.488H225.627V188.349H227.487V186.488Z" fill="#F0F0F0"/>
<path d="M227.487 189.607H225.627V191.468H227.487V189.607Z" fill="#F0F0F0"/>
<path d="M227.487 192.727H225.627V194.587H227.487V192.727Z" fill="#F0F0F0"/>
<path d="M227.487 195.844H225.627V197.704H227.487V195.844Z" fill="#F0F0F0"/>
<path d="M227.487 198.961H225.627V200.821H227.487V198.961Z" fill="#F0F0F0"/>
<path d="M227.487 202.082H225.627V203.942H227.487V202.082Z" fill="#F0F0F0"/>
<path d="M227.487 205.199H225.627V207.06H227.487V205.199Z" fill="#F0F0F0"/>
<path d="M227.487 208.318H225.627V210.179H227.487V208.318Z" fill="#F0F0F0"/>
<path d="M227.487 217.676H225.627V219.536H227.487V217.676Z" fill="#F0F0F0"/>
<path d="M227.487 220.793H225.627V222.653H227.487V220.793Z" fill="#F0F0F0"/>
<path d="M230.439 174.012H228.578V175.872H230.439V174.012Z" fill="#F0F0F0"/>
<path d="M230.439 177.133H228.578V178.993H230.439V177.133Z" fill="#F0F0F0"/>
<path d="M230.439 180.25H228.578V182.11H230.439V180.25Z" fill="#F0F0F0"/>
<path d="M230.439 189.607H228.578V191.468H230.439V189.607Z" fill="#F0F0F0"/>
<path d="M230.439 192.727H228.578V194.587H230.439V192.727Z" fill="#F0F0F0"/>
<path d="M230.439 195.844H228.578V197.704H230.439V195.844Z" fill="#F0F0F0"/>
<path d="M230.439 198.961H228.578V200.821H230.439V198.961Z" fill="#F0F0F0"/>
<path d="M230.439 202.082H228.578V203.942H230.439V202.082Z" fill="#F0F0F0"/>
<path d="M230.439 205.199H228.578V207.06H230.439V205.199Z" fill="#F0F0F0"/>
<path d="M230.439 208.318H228.578V210.179H230.439V208.318Z" fill="#F0F0F0"/>
<path d="M230.439 217.676H228.578V219.536H230.439V217.676Z" fill="#F0F0F0"/>
<path d="M230.439 220.793H228.578V222.653H230.439V220.793Z" fill="#F0F0F0"/>
<path d="M230.439 223.914H228.578V225.774H230.439V223.914Z" fill="#F0F0F0"/>
<path d="M261.409 155.301H259.549V157.161H261.409V155.301Z" fill="#F0F0F0"/>
<path d="M261.409 158.42H259.549V160.28H261.409V158.42Z" fill="#F0F0F0"/>
<path d="M261.409 161.539H259.549V163.399H261.409V161.539Z" fill="#F0F0F0"/>
<path d="M261.409 164.656H259.549V166.517H261.409V164.656Z" fill="#F0F0F0"/>
<path d="M261.409 167.777H259.549V169.638H261.409V167.777Z" fill="#F0F0F0"/>
<path d="M261.409 170.893H259.549V172.753H261.409V170.893Z" fill="#F0F0F0"/>
<path d="M261.409 174.012H259.549V175.872H261.409V174.012Z" fill="#F0F0F0"/>
<path d="M261.409 177.133H259.549V178.993H261.409V177.133Z" fill="#F0F0F0"/>
<path d="M261.409 180.25H259.549V182.11H261.409V180.25Z" fill="#F0F0F0"/>
<path d="M261.409 183.371H259.549V185.232H261.409V183.371Z" fill="#F0F0F0"/>
<path d="M261.409 186.488H259.549V188.349H261.409V186.488Z" fill="#F0F0F0"/>
<path d="M261.409 189.607H259.549V191.468H261.409V189.607Z" fill="#F0F0F0"/>
<path d="M261.409 192.727H259.549V194.587H261.409V192.727Z" fill="#F0F0F0"/>
<path d="M261.409 195.844H259.549V197.704H261.409V195.844Z" fill="#F0F0F0"/>
<path d="M261.409 198.961H259.549V200.821H261.409V198.961Z" fill="#F0F0F0"/>
<path d="M261.409 202.082H259.549V203.942H261.409V202.082Z" fill="#F0F0F0"/>
<path d="M261.409 205.199H259.549V207.06H261.409V205.199Z" fill="#F0F0F0"/>
<path d="M261.409 208.318H259.549V210.179H261.409V208.318Z" fill="#F0F0F0"/>
<path d="M261.409 211.438H259.549V213.298H261.409V211.438Z" fill="#F0F0F0"/>
<path d="M261.409 214.559H259.549V216.419H261.409V214.559Z" fill="#F0F0F0"/>
<path d="M261.409 217.676H259.549V219.536H261.409V217.676Z" fill="#F0F0F0"/>
<path d="M261.409 220.793H259.549V222.653H261.409V220.793Z" fill="#F0F0F0"/>
<path d="M261.409 223.914H259.549V225.774H261.409V223.914Z" fill="#F0F0F0"/>
<path d="M264.364 155.301H262.504V157.161H264.364V155.301Z" fill="#F0F0F0"/>
<path d="M264.364 158.42H262.504V160.28H264.364V158.42Z" fill="#F0F0F0"/>
<path d="M264.364 161.539H262.504V163.399H264.364V161.539Z" fill="#F0F0F0"/>
<path d="M264.364 164.656H262.504V166.517H264.364V164.656Z" fill="#F0F0F0"/>
<path d="M264.364 167.777H262.504V169.638H264.364V167.777Z" fill="#F0F0F0"/>
<path d="M264.364 170.893H262.504V172.753H264.364V170.893Z" fill="#F0F0F0"/>
<path d="M264.364 174.012H262.504V175.872H264.364V174.012Z" fill="#F0F0F0"/>
<path d="M264.364 177.133H262.504V178.993H264.364V177.133Z" fill="#F0F0F0"/>
<path d="M264.364 180.25H262.504V182.11H264.364V180.25Z" fill="#F0F0F0"/>
<path d="M264.364 183.371H262.504V185.232H264.364V183.371Z" fill="#F0F0F0"/>
<path d="M264.364 186.488H262.504V188.349H264.364V186.488Z" fill="#F0F0F0"/>
<path d="M264.364 189.607H262.504V191.468H264.364V189.607Z" fill="#F0F0F0"/>
<path d="M264.364 192.727H262.504V194.587H264.364V192.727Z" fill="#F0F0F0"/>
<path d="M264.364 195.844H262.504V197.704H264.364V195.844Z" fill="#F0F0F0"/>
<path d="M264.364 198.961H262.504V200.821H264.364V198.961Z" fill="#F0F0F0"/>
<path d="M264.364 202.082H262.504V203.942H264.364V202.082Z" fill="#F0F0F0"/>
<path d="M264.364 205.199H262.504V207.06H264.364V205.199Z" fill="#F0F0F0"/>
<path d="M264.364 208.318H262.504V210.179H264.364V208.318Z" fill="#F0F0F0"/>
<path d="M264.364 211.438H262.504V213.298H264.364V211.438Z" fill="#F0F0F0"/>
<path d="M267.315 155.301H265.455V157.161H267.315V155.301Z" fill="#F0F0F0"/>
<path d="M267.315 158.42H265.455V160.28H267.315V158.42Z" fill="#F0F0F0"/>
<path d="M267.315 161.539H265.455V163.399H267.315V161.539Z" fill="#F0F0F0"/>
<path d="M267.315 164.656H265.455V166.517H267.315V164.656Z" fill="#F0F0F0"/>
<path d="M267.315 167.777H265.455V169.638H267.315V167.777Z" fill="#F0F0F0"/>
<path d="M267.315 170.893H265.455V172.753H267.315V170.893Z" fill="#F0F0F0"/>
<path d="M267.315 174.012H265.455V175.872H267.315V174.012Z" fill="#F0F0F0"/>
<path d="M267.315 177.133H265.455V178.993H267.315V177.133Z" fill="#F0F0F0"/>
<path d="M267.315 180.25H265.455V182.11H267.315V180.25Z" fill="#F0F0F0"/>
<path d="M267.315 183.371H265.455V185.232H267.315V183.371Z" fill="#F0F0F0"/>
<path d="M267.315 186.488H265.455V188.349H267.315V186.488Z" fill="#F0F0F0"/>
<path d="M267.315 189.607H265.455V191.468H267.315V189.607Z" fill="#F0F0F0"/>
<path d="M267.315 192.727H265.455V194.587H267.315V192.727Z" fill="#F0F0F0"/>
<path d="M267.315 195.844H265.455V197.704H267.315V195.844Z" fill="#F0F0F0"/>
<path d="M267.315 198.961H265.455V200.821H267.315V198.961Z" fill="#F0F0F0"/>
<path d="M267.315 202.082H265.455V203.942H267.315V202.082Z" fill="#F0F0F0"/>
<path d="M267.315 205.199H265.455V207.06H267.315V205.199Z" fill="#F0F0F0"/>
<path d="M267.315 208.318H265.455V210.179H267.315V208.318Z" fill="#F0F0F0"/>
<path d="M267.315 211.438H265.455V213.298H267.315V211.438Z" fill="#F0F0F0"/>
<path d="M270.273 155.301H268.412V157.161H270.273V155.301Z" fill="#F0F0F0"/>
<path d="M270.273 158.42H268.412V160.28H270.273V158.42Z" fill="#F0F0F0"/>
<path d="M270.273 161.539H268.412V163.399H270.273V161.539Z" fill="#F0F0F0"/>
<path d="M270.273 164.656H268.412V166.517H270.273V164.656Z" fill="#F0F0F0"/>
<path d="M270.273 167.777H268.412V169.638H270.273V167.777Z" fill="#F0F0F0"/>
<path d="M270.273 170.893H268.412V172.753H270.273V170.893Z" fill="#F0F0F0"/>
<path d="M270.273 174.012H268.412V175.872H270.273V174.012Z" fill="#F0F0F0"/>
<path d="M270.273 177.133H268.412V178.993H270.273V177.133Z" fill="#F0F0F0"/>
<path d="M270.273 180.25H268.412V182.11H270.273V180.25Z" fill="#F0F0F0"/>
<path d="M270.273 183.371H268.412V185.232H270.273V183.371Z" fill="#F0F0F0"/>
<path d="M270.273 186.488H268.412V188.349H270.273V186.488Z" fill="#F0F0F0"/>
<path d="M270.273 189.607H268.412V191.468H270.273V189.607Z" fill="#F0F0F0"/>
<path d="M270.273 192.727H268.412V194.587H270.273V192.727Z" fill="#F0F0F0"/>
<path d="M270.273 195.844H268.412V197.704H270.273V195.844Z" fill="#F0F0F0"/>
<path d="M270.273 198.961H268.412V200.821H270.273V198.961Z" fill="#F0F0F0"/>
<path d="M273.226 155.301H271.365V157.161H273.226V155.301Z" fill="#F0F0F0"/>
<path d="M273.226 158.42H271.365V160.28H273.226V158.42Z" fill="#F0F0F0"/>
<path d="M273.226 161.539H271.365V163.399H273.226V161.539Z" fill="#F0F0F0"/>
<path d="M273.226 164.656H271.365V166.517H273.226V164.656Z" fill="#F0F0F0"/>
<path d="M273.226 167.777H271.365V169.638H273.226V167.777Z" fill="#F0F0F0"/>
<path d="M273.226 170.893H271.365V172.753H273.226V170.893Z" fill="#F0F0F0"/>
<path d="M273.226 174.012H271.365V175.872H273.226V174.012Z" fill="#F0F0F0"/>
<path d="M273.226 177.133H271.365V178.993H273.226V177.133Z" fill="#F0F0F0"/>
<path d="M273.226 180.25H271.365V182.11H273.226V180.25Z" fill="#F0F0F0"/>
<path d="M273.226 183.371H271.365V185.232H273.226V183.371Z" fill="#F0F0F0"/>
<path d="M273.226 186.488H271.365V188.349H273.226V186.488Z" fill="#F0F0F0"/>
<path d="M273.226 189.607H271.365V191.468H273.226V189.607Z" fill="#F0F0F0"/>
<path d="M273.226 192.727H271.365V194.587H273.226V192.727Z" fill="#F0F0F0"/>
<path d="M276.181 155.301H274.32V157.161H276.181V155.301Z" fill="#F0F0F0"/>
<path d="M276.181 158.42H274.32V160.28H276.181V158.42Z" fill="#F0F0F0"/>
<path d="M276.181 161.539H274.32V163.399H276.181V161.539Z" fill="#F0F0F0"/>
<path d="M276.181 164.656H274.32V166.517H276.181V164.656Z" fill="#F0F0F0"/>
<path d="M276.181 167.777H274.32V169.638H276.181V167.777Z" fill="#F0F0F0"/>
<path d="M276.181 170.893H274.32V172.753H276.181V170.893Z" fill="#F0F0F0"/>
<path d="M276.181 174.012H274.32V175.872H276.181V174.012Z" fill="#F0F0F0"/>
<path d="M276.181 177.133H274.32V178.993H276.181V177.133Z" fill="#F0F0F0"/>
<path d="M276.181 180.25H274.32V182.11H276.181V180.25Z" fill="#F0F0F0"/>
<path d="M276.181 183.371H274.32V185.232H276.181V183.371Z" fill="#F0F0F0"/>
<path d="M276.181 186.488H274.32V188.349H276.181V186.488Z" fill="#F0F0F0"/>
<path d="M276.181 189.607H274.32V191.468H276.181V189.607Z" fill="#F0F0F0"/>
<path d="M59.0792 178.062H57.2188V179.923H59.0792V178.062Z" fill="#F0F0F0"/>
<path d="M59.0792 181.184H57.2188V183.044H59.0792V181.184Z" fill="#F0F0F0"/>
<path d="M59.0792 184.301H57.2188V186.161H59.0792V184.301Z" fill="#F0F0F0"/>
<path d="M59.0792 187.416H57.2188V189.276H59.0792V187.416Z" fill="#F0F0F0"/>
<path d="M59.0792 190.537H57.2188V192.398H59.0792V190.537Z" fill="#F0F0F0"/>
<path d="M59.0792 193.654H57.2188V195.515H59.0792V193.654Z" fill="#F0F0F0"/>
<path d="M59.0792 196.773H57.2188V198.634H59.0792V196.773Z" fill="#F0F0F0"/>
<path d="M59.0792 199.895H57.2188V201.755H59.0792V199.895Z" fill="#F0F0F0"/>
<path d="M59.0792 203.012H57.2188V204.872H59.0792V203.012Z" fill="#F0F0F0"/>
<path d="M59.0792 206.127H57.2188V207.987H59.0792V206.127Z" fill="#F0F0F0"/>
<path d="M59.0792 209.25H57.2188V211.11H59.0792V209.25Z" fill="#F0F0F0"/>
<path d="M59.0792 212.367H57.2188V214.228H59.0792V212.367Z" fill="#F0F0F0"/>
<path d="M59.0792 215.486H57.2188V217.347H59.0792V215.486Z" fill="#F0F0F0"/>
<path d="M59.0792 218.605H57.2188V220.466H59.0792V218.605Z" fill="#F0F0F0"/>
<path d="M59.0792 221.723H57.2188V223.583H59.0792V221.723Z" fill="#F0F0F0"/>
<path d="M59.0792 224.844H57.2188V226.704H59.0792V224.844Z" fill="#F0F0F0"/>
<path d="M59.0792 227.961H57.2188V229.821H59.0792V227.961Z" fill="#F0F0F0"/>
<path d="M59.0792 231.078H57.2188V232.939H59.0792V231.078Z" fill="#F0F0F0"/>
<path d="M59.0792 234.199H57.2188V236.06H59.0792V234.199Z" fill="#F0F0F0"/>
<path d="M59.0792 237.316H57.2188V239.177H59.0792V237.316Z" fill="#F0F0F0"/>
<path d="M62.0342 178.062H60.1738V179.923H62.0342V178.062Z" fill="#F0F0F0"/>
<path d="M62.0342 181.184H60.1738V183.044H62.0342V181.184Z" fill="#F0F0F0"/>
<path d="M62.0342 184.301H60.1738V186.161H62.0342V184.301Z" fill="#F0F0F0"/>
<path d="M62.0342 187.416H60.1738V189.276H62.0342V187.416Z" fill="#F0F0F0"/>
<path d="M62.0342 190.537H60.1738V192.398H62.0342V190.537Z" fill="#F0F0F0"/>
<path d="M62.0342 193.654H60.1738V195.515H62.0342V193.654Z" fill="#F0F0F0"/>
<path d="M62.0342 196.773H60.1738V198.634H62.0342V196.773Z" fill="#F0F0F0"/>
<path d="M62.0342 199.895H60.1738V201.755H62.0342V199.895Z" fill="#F0F0F0"/>
<path d="M62.0342 203.012H60.1738V204.872H62.0342V203.012Z" fill="#F0F0F0"/>
<path d="M62.0342 206.127H60.1738V207.987H62.0342V206.127Z" fill="#F0F0F0"/>
<path d="M62.0342 209.25H60.1738V211.11H62.0342V209.25Z" fill="#F0F0F0"/>
<path d="M62.0342 212.367H60.1738V214.228H62.0342V212.367Z" fill="#F0F0F0"/>
<path d="M62.0342 215.486H60.1738V217.347H62.0342V215.486Z" fill="#F0F0F0"/>
<path d="M62.0342 218.605H60.1738V220.466H62.0342V218.605Z" fill="#F0F0F0"/>
<path d="M62.0342 221.723H60.1738V223.583H62.0342V221.723Z" fill="#F0F0F0"/>
<path d="M62.0342 224.844H60.1738V226.704H62.0342V224.844Z" fill="#F0F0F0"/>
<path d="M62.0342 227.961H60.1738V229.821H62.0342V227.961Z" fill="#F0F0F0"/>
<path d="M62.0342 231.078H60.1738V232.939H62.0342V231.078Z" fill="#F0F0F0"/>
<path d="M64.9874 178.062H63.127V179.923H64.9874V178.062Z" fill="#F0F0F0"/>
<path d="M64.9874 181.184H63.127V183.044H64.9874V181.184Z" fill="#F0F0F0"/>
<path d="M64.9874 184.301H63.127V186.161H64.9874V184.301Z" fill="#F0F0F0"/>
<path d="M64.9874 187.416H63.127V189.276H64.9874V187.416Z" fill="#F0F0F0"/>
<path d="M64.9874 190.537H63.127V192.398H64.9874V190.537Z" fill="#F0F0F0"/>
<path d="M64.9874 193.654H63.127V195.515H64.9874V193.654Z" fill="#F0F0F0"/>
<path d="M64.9874 196.773H63.127V198.634H64.9874V196.773Z" fill="#F0F0F0"/>
<path d="M64.9874 199.895H63.127V201.755H64.9874V199.895Z" fill="#F0F0F0"/>
<path d="M64.9874 203.012H63.127V204.872H64.9874V203.012Z" fill="#F0F0F0"/>
<path d="M64.9874 206.127H63.127V207.987H64.9874V206.127Z" fill="#F0F0F0"/>
<path d="M64.9874 209.25H63.127V211.11H64.9874V209.25Z" fill="#F0F0F0"/>
<path d="M64.9874 212.367H63.127V214.228H64.9874V212.367Z" fill="#F0F0F0"/>
<path d="M64.9874 215.486H63.127V217.347H64.9874V215.486Z" fill="#F0F0F0"/>
<path d="M64.9874 218.605H63.127V220.466H64.9874V218.605Z" fill="#F0F0F0"/>
<path d="M64.9874 221.723H63.127V223.583H64.9874V221.723Z" fill="#F0F0F0"/>
<path d="M64.9874 224.844H63.127V226.704H64.9874V224.844Z" fill="#F0F0F0"/>
<path d="M64.9874 227.961H63.127V229.821H64.9874V227.961Z" fill="#F0F0F0"/>
<path d="M64.9874 231.078H63.127V232.939H64.9874V231.078Z" fill="#F0F0F0"/>
<path d="M48.0264 200.822H46.166V202.683H48.0264V200.822Z" fill="#F0F0F0"/>
<path d="M48.0264 203.939H46.166V205.8H48.0264V203.939Z" fill="#F0F0F0"/>
<path d="M48.0264 207.061H46.166V208.921H48.0264V207.061Z" fill="#F0F0F0"/>
<path d="M48.0264 210.178H46.166V212.038H48.0264V210.178Z" fill="#F0F0F0"/>
<path d="M48.0264 213.297H46.166V215.157H48.0264V213.297Z" fill="#F0F0F0"/>
<path d="M48.0264 216.416H46.166V218.276H48.0264V216.416Z" fill="#F0F0F0"/>
<path d="M48.0264 219.535H46.166V221.396H48.0264V219.535Z" fill="#F0F0F0"/>
<path d="M48.0264 222.656H46.166V224.517H48.0264V222.656Z" fill="#F0F0F0"/>
<path d="M48.0264 225.771H46.166V227.632H48.0264V225.771Z" fill="#F0F0F0"/>
<path d="M48.0264 228.889H46.166V230.749H48.0264V228.889Z" fill="#F0F0F0"/>
<path d="M48.0264 232.01H46.166V233.87H48.0264V232.01Z" fill="#F0F0F0"/>
<path d="M48.0264 235.129H46.166V236.989H48.0264V235.129Z" fill="#F0F0F0"/>
<path d="M48.0264 238.246H46.166V240.107H48.0264V238.246Z" fill="#F0F0F0"/>
<path d="M50.9815 200.822H49.1211V202.683H50.9815V200.822Z" fill="#F0F0F0"/>
<path d="M50.9815 203.939H49.1211V205.8H50.9815V203.939Z" fill="#F0F0F0"/>
<path d="M50.9815 207.061H49.1211V208.921H50.9815V207.061Z" fill="#F0F0F0"/>
<path d="M50.9815 210.178H49.1211V212.038H50.9815V210.178Z" fill="#F0F0F0"/>
<path d="M50.9815 213.297H49.1211V215.157H50.9815V213.297Z" fill="#F0F0F0"/>
<path d="M50.9815 216.416H49.1211V218.276H50.9815V216.416Z" fill="#F0F0F0"/>
<path d="M50.9815 219.535H49.1211V221.396H50.9815V219.535Z" fill="#F0F0F0"/>
<path d="M50.9815 222.656H49.1211V224.517H50.9815V222.656Z" fill="#F0F0F0"/>
<path d="M50.9815 225.771H49.1211V227.632H50.9815V225.771Z" fill="#F0F0F0"/>
<path d="M50.9815 228.889H49.1211V230.749H50.9815V228.889Z" fill="#F0F0F0"/>
<path d="M50.9815 232.01H49.1211V233.87H50.9815V232.01Z" fill="#F0F0F0"/>
<path d="M50.9815 235.129H49.1211V236.989H50.9815V235.129Z" fill="#F0F0F0"/>
<path d="M50.9815 238.246H49.1211V240.107H50.9815V238.246Z" fill="#F0F0F0"/>
<path d="M53.9346 200.822H52.0742V202.683H53.9346V200.822Z" fill="#F0F0F0"/>
<path d="M53.9346 203.939H52.0742V205.8H53.9346V203.939Z" fill="#F0F0F0"/>
<path d="M53.9346 207.061H52.0742V208.921H53.9346V207.061Z" fill="#F0F0F0"/>
<path d="M53.9346 210.178H52.0742V212.038H53.9346V210.178Z" fill="#F0F0F0"/>
<path d="M53.9346 213.297H52.0742V215.157H53.9346V213.297Z" fill="#F0F0F0"/>
<path d="M53.9346 216.416H52.0742V218.276H53.9346V216.416Z" fill="#F0F0F0"/>
<path d="M53.9346 219.535H52.0742V221.396H53.9346V219.535Z" fill="#F0F0F0"/>
<path d="M53.9346 222.656H52.0742V224.517H53.9346V222.656Z" fill="#F0F0F0"/>
<path d="M53.9346 225.771H52.0742V227.632H53.9346V225.771Z" fill="#F0F0F0"/>
<path d="M53.9346 228.889H52.0742V230.749H53.9346V228.889Z" fill="#F0F0F0"/>
<path d="M53.9346 232.01H52.0742V233.87H53.9346V232.01Z" fill="#F0F0F0"/>
<path d="M53.9346 235.129H52.0742V236.989H53.9346V235.129Z" fill="#F0F0F0"/>
<path d="M53.9346 238.246H52.0742V240.107H53.9346V238.246Z" fill="#F0F0F0"/>
<path d="M53.9346 241.367H52.0742V243.228H53.9346V241.367Z" fill="#F0F0F0"/>
<path d="M70.3506 201.752H68.4902V203.612H70.3506V201.752Z" fill="#F0F0F0"/>
<path d="M70.3506 204.873H68.4902V206.733H70.3506V204.873Z" fill="#F0F0F0"/>
<path d="M70.3506 207.99H68.4902V209.851H70.3506V207.99Z" fill="#F0F0F0"/>
<path d="M70.3506 211.107H68.4902V212.968H70.3506V211.107Z" fill="#F0F0F0"/>
<path d="M70.3506 214.229H68.4902V216.089H70.3506V214.229Z" fill="#F0F0F0"/>
<path d="M70.3506 217.346H68.4902V219.206H70.3506V217.346Z" fill="#F0F0F0"/>
<path d="M70.3506 220.463H68.4902V222.323H70.3506V220.463Z" fill="#F0F0F0"/>
<path d="M70.3506 223.584H68.4902V225.444H70.3506V223.584Z" fill="#F0F0F0"/>
<path d="M70.3506 226.701H68.4902V228.562H70.3506V226.701Z" fill="#F0F0F0"/>
<path d="M70.3506 229.822H68.4902V231.683H70.3506V229.822Z" fill="#F0F0F0"/>
<path d="M70.3506 239.18H68.4902V241.04H70.3506V239.18Z" fill="#F0F0F0"/>
<path d="M73.3057 201.752H71.4453V203.612H73.3057V201.752Z" fill="#F0F0F0"/>
<path d="M73.3057 204.873H71.4453V206.733H73.3057V204.873Z" fill="#F0F0F0"/>
<path d="M73.3057 207.99H71.4453V209.851H73.3057V207.99Z" fill="#F0F0F0"/>
<path d="M73.3057 211.107H71.4453V212.968H73.3057V211.107Z" fill="#F0F0F0"/>
<path d="M73.3057 214.229H71.4453V216.089H73.3057V214.229Z" fill="#F0F0F0"/>
<path d="M73.3057 217.346H71.4453V219.206H73.3057V217.346Z" fill="#F0F0F0"/>
<path d="M73.3057 220.463H71.4453V222.323H73.3057V220.463Z" fill="#F0F0F0"/>
<path d="M73.3057 223.584H71.4453V225.444H73.3057V223.584Z" fill="#F0F0F0"/>
<path d="M73.3057 226.701H71.4453V228.562H73.3057V226.701Z" fill="#F0F0F0"/>
<path d="M73.3057 236.057H71.4453V237.917H73.3057V236.057Z" fill="#F0F0F0"/>
<path d="M73.3057 239.18H71.4453V241.04H73.3057V239.18Z" fill="#F0F0F0"/>
<path d="M76.2569 201.752H74.3965V203.612H76.2569V201.752Z" fill="#F0F0F0"/>
<path d="M76.2569 204.873H74.3965V206.733H76.2569V204.873Z" fill="#F0F0F0"/>
<path d="M76.2569 207.99H74.3965V209.851H76.2569V207.99Z" fill="#F0F0F0"/>
<path d="M76.2569 211.107H74.3965V212.968H76.2569V211.107Z" fill="#F0F0F0"/>
<path d="M76.2569 214.229H74.3965V216.089H76.2569V214.229Z" fill="#F0F0F0"/>
<path d="M76.2569 217.346H74.3965V219.206H76.2569V217.346Z" fill="#F0F0F0"/>
<path d="M76.2569 220.463H74.3965V222.323H76.2569V220.463Z" fill="#F0F0F0"/>
<path d="M76.2569 223.584H74.3965V225.444H76.2569V223.584Z" fill="#F0F0F0"/>
<path d="M76.2569 232.939H74.3965V234.8H76.2569V232.939Z" fill="#F0F0F0"/>
<path d="M76.2569 236.057H74.3965V237.917H76.2569V236.057Z" fill="#F0F0F0"/>
<path d="M76.2569 239.18H74.3965V241.04H76.2569V239.18Z" fill="#F0F0F0"/>
<path d="M103.726 154.373H101.865V156.233H103.726V154.373Z" fill="#F0F0F0"/>
<path d="M103.726 157.488H101.865V159.349H103.726V157.488Z" fill="#F0F0F0"/>
<path d="M103.726 160.609H101.865V162.47H103.726V160.609Z" fill="#F0F0F0"/>
<path d="M103.726 163.727H101.865V165.587H103.726V163.727Z" fill="#F0F0F0"/>
<path d="M103.726 166.846H101.865V168.706H103.726V166.846Z" fill="#F0F0F0"/>
<path d="M103.726 169.965H101.865V171.825H103.726V169.965Z" fill="#F0F0F0"/>
<path d="M103.726 173.084H101.865V174.944H103.726V173.084Z" fill="#F0F0F0"/>
<path d="M103.726 176.199H101.865V178.06H103.726V176.199Z" fill="#F0F0F0"/>
<path d="M103.726 179.322H101.865V181.183H103.726V179.322Z" fill="#F0F0F0"/>
<path d="M103.726 182.438H101.865V184.298H103.726V182.438Z" fill="#F0F0F0"/>
<path d="M103.726 185.559H101.865V187.419H103.726V185.559Z" fill="#F0F0F0"/>
<path d="M103.726 188.676H101.865V190.536H103.726V188.676Z" fill="#F0F0F0"/>
<path d="M103.726 191.795H101.865V193.655H103.726V191.795Z" fill="#F0F0F0"/>
<path d="M103.726 194.914H101.865V196.774H103.726V194.914Z" fill="#F0F0F0"/>
<path d="M103.726 198.033H101.865V199.894H103.726V198.033Z" fill="#F0F0F0"/>
<path d="M103.726 201.148H101.865V203.009H103.726V201.148Z" fill="#F0F0F0"/>
<path d="M103.726 204.271H101.865V206.132H103.726V204.271Z" fill="#F0F0F0"/>
<path d="M103.726 210.508H101.865V212.368H103.726V210.508Z" fill="#F0F0F0"/>
<path d="M103.726 213.625H101.865V215.485H103.726V213.625Z" fill="#F0F0F0"/>
<path d="M103.726 216.746H101.865V218.607H103.726V216.746Z" fill="#F0F0F0"/>
<path d="M103.726 219.863H101.865V221.724H103.726V219.863Z" fill="#F0F0F0"/>
<path d="M103.726 222.982H101.865V224.843H103.726V222.982Z" fill="#F0F0F0"/>
<path d="M106.679 154.373H104.818V156.233H106.679V154.373Z" fill="#F0F0F0"/>
<path d="M106.679 157.488H104.818V159.349H106.679V157.488Z" fill="#F0F0F0"/>
<path d="M106.679 160.609H104.818V162.47H106.679V160.609Z" fill="#F0F0F0"/>
<path d="M106.679 163.727H104.818V165.587H106.679V163.727Z" fill="#F0F0F0"/>
<path d="M106.679 166.846H104.818V168.706H106.679V166.846Z" fill="#F0F0F0"/>
<path d="M106.679 169.965H104.818V171.825H106.679V169.965Z" fill="#F0F0F0"/>
<path d="M106.679 173.084H104.818V174.944H106.679V173.084Z" fill="#F0F0F0"/>
<path d="M106.679 176.199H104.818V178.06H106.679V176.199Z" fill="#F0F0F0"/>
<path d="M106.679 179.322H104.818V181.183H106.679V179.322Z" fill="#F0F0F0"/>
<path d="M106.679 182.438H104.818V184.298H106.679V182.438Z" fill="#F0F0F0"/>
<path d="M106.679 185.559H104.818V187.419H106.679V185.559Z" fill="#F0F0F0"/>
<path d="M106.679 188.676H104.818V190.536H106.679V188.676Z" fill="#F0F0F0"/>
<path d="M106.679 191.795H104.818V193.655H106.679V191.795Z" fill="#F0F0F0"/>
<path d="M106.679 194.914H104.818V196.774H106.679V194.914Z" fill="#F0F0F0"/>
<path d="M106.679 198.033H104.818V199.894H106.679V198.033Z" fill="#F0F0F0"/>
<path d="M106.679 201.148H104.818V203.009H106.679V201.148Z" fill="#F0F0F0"/>
<path d="M106.679 219.863H104.818V221.724H106.679V219.863Z" fill="#F0F0F0"/>
<path d="M106.679 222.982H104.818V224.843H106.679V222.982Z" fill="#F0F0F0"/>
<path d="M109.634 154.373H107.773V156.233H109.634V154.373Z" fill="#F0F0F0"/>
<path d="M109.634 157.488H107.773V159.349H109.634V157.488Z" fill="#F0F0F0"/>
<path d="M109.634 160.609H107.773V162.47H109.634V160.609Z" fill="#F0F0F0"/>
<path d="M109.634 163.727H107.773V165.587H109.634V163.727Z" fill="#F0F0F0"/>
<path d="M109.634 166.846H107.773V168.706H109.634V166.846Z" fill="#F0F0F0"/>
<path d="M109.634 169.965H107.773V171.825H109.634V169.965Z" fill="#F0F0F0"/>
<path d="M109.634 173.084H107.773V174.944H109.634V173.084Z" fill="#F0F0F0"/>
<path d="M109.634 176.199H107.773V178.06H109.634V176.199Z" fill="#F0F0F0"/>
<path d="M109.634 179.322H107.773V181.183H109.634V179.322Z" fill="#F0F0F0"/>
<path d="M109.634 182.438H107.773V184.298H109.634V182.438Z" fill="#F0F0F0"/>
<path d="M109.634 185.559H107.773V187.419H109.634V185.559Z" fill="#F0F0F0"/>
<path d="M109.634 188.676H107.773V190.536H109.634V188.676Z" fill="#F0F0F0"/>
<path d="M109.634 191.795H107.773V193.655H109.634V191.795Z" fill="#F0F0F0"/>
<path d="M109.634 194.914H107.773V196.774H109.634V194.914Z" fill="#F0F0F0"/>
<path d="M109.634 198.033H107.773V199.894H109.634V198.033Z" fill="#F0F0F0"/>
<path d="M109.634 201.148H107.773V203.009H109.634V201.148Z" fill="#F0F0F0"/>
<path d="M109.634 207.387H107.773V209.247H109.634V207.387Z" fill="#F0F0F0"/>
<path d="M109.634 210.508H107.773V212.368H109.634V210.508Z" fill="#F0F0F0"/>
<path d="M109.634 213.625H107.773V215.485H109.634V213.625Z" fill="#F0F0F0"/>
<path d="M109.634 216.746H107.773V218.607H109.634V216.746Z" fill="#F0F0F0"/>
<path d="M109.634 222.982H107.773V224.843H109.634V222.982Z" fill="#F0F0F0"/>
<path d="M93.001 193.654H91.1406V195.515H93.001V193.654Z" fill="#F0F0F0"/>
<path d="M93.001 196.773H91.1406V198.634H93.001V196.773Z" fill="#F0F0F0"/>
<path d="M93.001 199.895H91.1406V201.755H93.001V199.895Z" fill="#F0F0F0"/>
<path d="M93.001 203.012H91.1406V204.872H93.001V203.012Z" fill="#F0F0F0"/>
<path d="M93.001 206.127H91.1406V207.987H93.001V206.127Z" fill="#F0F0F0"/>
<path d="M93.001 209.25H91.1406V211.11H93.001V209.25Z" fill="#F0F0F0"/>
<path d="M93.001 212.367H91.1406V214.228H93.001V212.367Z" fill="#F0F0F0"/>
<path d="M93.001 218.605H91.1406V220.466H93.001V218.605Z" fill="#F0F0F0"/>
<path d="M93.001 221.723H91.1406V223.583H93.001V221.723Z" fill="#F0F0F0"/>
<path d="M93.001 224.844H91.1406V226.704H93.001V224.844Z" fill="#F0F0F0"/>
<path d="M93.001 227.961H91.1406V229.821H93.001V227.961Z" fill="#F0F0F0"/>
<path d="M93.001 231.078H91.1406V232.939H93.001V231.078Z" fill="#F0F0F0"/>
<path d="M93.001 234.199H91.1406V236.06H93.001V234.199Z" fill="#F0F0F0"/>
<path d="M93.001 237.316H91.1406V239.177H93.001V237.316Z" fill="#F0F0F0"/>
<path d="M93.001 240.434H91.1406V242.294H93.001V240.434Z" fill="#F0F0F0"/>
<path d="M95.9561 193.654H94.0957V195.515H95.9561V193.654Z" fill="#F0F0F0"/>
<path d="M95.9561 196.773H94.0957V198.634H95.9561V196.773Z" fill="#F0F0F0"/>
<path d="M95.9561 199.895H94.0957V201.755H95.9561V199.895Z" fill="#F0F0F0"/>
<path d="M95.9561 203.012H94.0957V204.872H95.9561V203.012Z" fill="#F0F0F0"/>
<path d="M95.9561 206.127H94.0957V207.987H95.9561V206.127Z" fill="#F0F0F0"/>
<path d="M95.9561 209.25H94.0957V211.11H95.9561V209.25Z" fill="#F0F0F0"/>
<path d="M95.9561 218.605H94.0957V220.466H95.9561V218.605Z" fill="#F0F0F0"/>
<path d="M95.9561 221.723H94.0957V223.583H95.9561V221.723Z" fill="#F0F0F0"/>
<path d="M95.9561 224.844H94.0957V226.704H95.9561V224.844Z" fill="#F0F0F0"/>
<path d="M95.9561 227.961H94.0957V229.821H95.9561V227.961Z" fill="#F0F0F0"/>
<path d="M95.9561 231.078H94.0957V232.939H95.9561V231.078Z" fill="#F0F0F0"/>
<path d="M95.9561 234.199H94.0957V236.06H95.9561V234.199Z" fill="#F0F0F0"/>
<path d="M95.9561 237.316H94.0957V239.177H95.9561V237.316Z" fill="#F0F0F0"/>
<path d="M95.9561 240.434H94.0957V242.294H95.9561V240.434Z" fill="#F0F0F0"/>
<path d="M98.9073 193.654H97.0469V195.515H98.9073V193.654Z" fill="#F0F0F0"/>
<path d="M98.9073 196.773H97.0469V198.634H98.9073V196.773Z" fill="#F0F0F0"/>
<path d="M98.9073 199.895H97.0469V201.755H98.9073V199.895Z" fill="#F0F0F0"/>
<path d="M98.9073 203.012H97.0469V204.872H98.9073V203.012Z" fill="#F0F0F0"/>
<path d="M98.9073 206.127H97.0469V207.987H98.9073V206.127Z" fill="#F0F0F0"/>
<path d="M98.9073 209.25H97.0469V211.11H98.9073V209.25Z" fill="#F0F0F0"/>
<path d="M98.9073 215.486H97.0469V217.347H98.9073V215.486Z" fill="#F0F0F0"/>
<path d="M98.9073 218.605H97.0469V220.466H98.9073V218.605Z" fill="#F0F0F0"/>
<path d="M98.9073 221.723H97.0469V223.583H98.9073V221.723Z" fill="#F0F0F0"/>
<path d="M98.9073 224.844H97.0469V226.704H98.9073V224.844Z" fill="#F0F0F0"/>
<path d="M98.9073 227.961H97.0469V229.821H98.9073V227.961Z" fill="#F0F0F0"/>
<path d="M98.9073 231.078H97.0469V232.939H98.9073V231.078Z" fill="#F0F0F0"/>
<path d="M98.9073 234.199H97.0469V236.06H98.9073V234.199Z" fill="#F0F0F0"/>
<path d="M98.9073 237.316H97.0469V239.177H98.9073V237.316Z" fill="#F0F0F0"/>
<path d="M98.9073 240.434H97.0469V242.294H98.9073V240.434Z" fill="#F0F0F0"/>
<path d="M161.173 176.199H159.312V178.06H161.173V176.199Z" fill="#F0F0F0"/>
<path d="M161.173 179.322H159.312V181.183H161.173V179.322Z" fill="#F0F0F0"/>
<path d="M161.173 182.438H159.312V184.298H161.173V182.438Z" fill="#F0F0F0"/>
<path d="M161.173 185.559H159.312V187.419H161.173V185.559Z" fill="#F0F0F0"/>
<path d="M161.173 188.676H159.312V190.536H161.173V188.676Z" fill="#F0F0F0"/>
<path d="M161.173 191.795H159.312V193.655H161.173V191.795Z" fill="#F0F0F0"/>
<path d="M161.173 194.914H159.312V196.774H161.173V194.914Z" fill="#F0F0F0"/>
<path d="M161.173 198.033H159.312V199.894H161.173V198.033Z" fill="#F0F0F0"/>
<path d="M161.173 201.148H159.312V203.009H161.173V201.148Z" fill="#F0F0F0"/>
<path d="M161.173 204.271H159.312V206.132H161.173V204.271Z" fill="#F0F0F0"/>
<path d="M161.173 207.387H159.312V209.247H161.173V207.387Z" fill="#F0F0F0"/>
<path d="M161.173 210.508H159.312V212.368H161.173V210.508Z" fill="#F0F0F0"/>
<path d="M161.173 213.625H159.312V215.485H161.173V213.625Z" fill="#F0F0F0"/>
<path d="M161.173 219.863H159.312V221.724H161.173V219.863Z" fill="#F0F0F0"/>
<path d="M161.173 222.982H159.312V224.843H161.173V222.982Z" fill="#F0F0F0"/>
<path d="M161.173 226.104H159.312V227.964H161.173V226.104Z" fill="#F0F0F0"/>
<path d="M161.173 229.221H159.312V231.081H161.173V229.221Z" fill="#F0F0F0"/>
<path d="M161.173 235.457H159.312V237.317H161.173V235.457Z" fill="#F0F0F0"/>
<path d="M161.173 238.576H159.312V240.437H161.173V238.576Z" fill="#F0F0F0"/>
<path d="M161.173 241.693H159.312V243.554H161.173V241.693Z" fill="#F0F0F0"/>
<path d="M164.128 176.199H162.268V178.06H164.128V176.199Z" fill="#F0F0F0"/>
<path d="M164.128 179.322H162.268V181.183H164.128V179.322Z" fill="#F0F0F0"/>
<path d="M164.128 182.438H162.268V184.298H164.128V182.438Z" fill="#F0F0F0"/>
<path d="M164.128 185.559H162.268V187.419H164.128V185.559Z" fill="#F0F0F0"/>
<path d="M164.128 188.676H162.268V190.536H164.128V188.676Z" fill="#F0F0F0"/>
<path d="M164.128 191.795H162.268V193.655H164.128V191.795Z" fill="#F0F0F0"/>
<path d="M164.128 194.914H162.268V196.774H164.128V194.914Z" fill="#F0F0F0"/>
<path d="M164.128 198.033H162.268V199.894H164.128V198.033Z" fill="#F0F0F0"/>
<path d="M164.128 201.148H162.268V203.009H164.128V201.148Z" fill="#F0F0F0"/>
<path d="M164.128 204.271H162.268V206.132H164.128V204.271Z" fill="#F0F0F0"/>
<path d="M164.128 207.387H162.268V209.247H164.128V207.387Z" fill="#F0F0F0"/>
<path d="M164.128 210.508H162.268V212.368H164.128V210.508Z" fill="#F0F0F0"/>
<path d="M164.128 213.625H162.268V215.485H164.128V213.625Z" fill="#F0F0F0"/>
<path d="M164.128 222.982H162.268V224.843H164.128V222.982Z" fill="#F0F0F0"/>
<path d="M164.128 226.104H162.268V227.964H164.128V226.104Z" fill="#F0F0F0"/>
<path d="M164.128 232.336H162.268V234.196H164.128V232.336Z" fill="#F0F0F0"/>
<path d="M164.128 235.457H162.268V237.317H164.128V235.457Z" fill="#F0F0F0"/>
<path d="M164.128 238.576H162.268V240.437H164.128V238.576Z" fill="#F0F0F0"/>
<path d="M164.128 241.693H162.268V243.554H164.128V241.693Z" fill="#F0F0F0"/>
<path d="M167.081 176.199H165.221V178.06H167.081V176.199Z" fill="#F0F0F0"/>
<path d="M167.081 179.322H165.221V181.183H167.081V179.322Z" fill="#F0F0F0"/>
<path d="M167.081 182.438H165.221V184.298H167.081V182.438Z" fill="#F0F0F0"/>
<path d="M167.081 185.559H165.221V187.419H167.081V185.559Z" fill="#F0F0F0"/>
<path d="M167.081 188.676H165.221V190.536H167.081V188.676Z" fill="#F0F0F0"/>
<path d="M167.081 191.795H165.221V193.655H167.081V191.795Z" fill="#F0F0F0"/>
<path d="M167.081 194.914H165.221V196.774H167.081V194.914Z" fill="#F0F0F0"/>
<path d="M167.081 198.033H165.221V199.894H167.081V198.033Z" fill="#F0F0F0"/>
<path d="M167.081 201.148H165.221V203.009H167.081V201.148Z" fill="#F0F0F0"/>
<path d="M167.081 204.271H165.221V206.132H167.081V204.271Z" fill="#F0F0F0"/>
<path d="M167.081 207.387H165.221V209.247H167.081V207.387Z" fill="#F0F0F0"/>
<path d="M167.081 210.508H165.221V212.368H167.081V210.508Z" fill="#F0F0F0"/>
<path d="M167.081 213.625H165.221V215.485H167.081V213.625Z" fill="#F0F0F0"/>
<path d="M167.081 216.746H165.221V218.607H167.081V216.746Z" fill="#F0F0F0"/>
<path d="M167.081 222.982H165.221V224.843H167.081V222.982Z" fill="#F0F0F0"/>
<path d="M167.081 229.221H165.221V231.081H167.081V229.221Z" fill="#F0F0F0"/>
<path d="M167.081 232.336H165.221V234.196H167.081V232.336Z" fill="#F0F0F0"/>
<path d="M167.081 235.457H165.221V237.317H167.081V235.457Z" fill="#F0F0F0"/>
<path d="M167.081 238.576H165.221V240.437H167.081V238.576Z" fill="#F0F0F0"/>
<path d="M167.081 241.693H165.221V243.554H167.081V241.693Z" fill="#F0F0F0"/>
<path d="M149.138 193.982H147.277V195.843H149.138V193.982Z" fill="#F0F0F0"/>
<path d="M149.138 197.102H147.277V198.962H149.138V197.102Z" fill="#F0F0F0"/>
<path d="M149.138 200.221H147.277V202.081H149.138V200.221Z" fill="#F0F0F0"/>
<path d="M149.138 203.338H147.277V205.198H149.138V203.338Z" fill="#F0F0F0"/>
<path d="M149.138 206.459H147.277V208.319H149.138V206.459Z" fill="#F0F0F0"/>
<path d="M149.138 209.58H147.277V211.44H149.138V209.58Z" fill="#F0F0F0"/>
<path d="M149.138 218.936H147.277V220.796H149.138V218.936Z" fill="#F0F0F0"/>
<path d="M149.138 222.053H147.277V223.913H149.138V222.053Z" fill="#F0F0F0"/>
<path d="M149.138 225.17H147.277V227.03H149.138V225.17Z" fill="#F0F0F0"/>
<path d="M149.138 228.291H147.277V230.151H149.138V228.291Z" fill="#F0F0F0"/>
<path d="M149.138 231.408H147.277V233.269H149.138V231.408Z" fill="#F0F0F0"/>
<path d="M149.138 234.525H147.277V236.386H149.138V234.525Z" fill="#F0F0F0"/>
<path d="M149.138 237.646H147.277V239.507H149.138V237.646Z" fill="#F0F0F0"/>
<path d="M152.091 193.982H150.23V195.843H152.091V193.982Z" fill="#F0F0F0"/>
<path d="M152.091 197.102H150.23V198.962H152.091V197.102Z" fill="#F0F0F0"/>
<path d="M152.091 200.221H150.23V202.081H152.091V200.221Z" fill="#F0F0F0"/>
<path d="M152.091 203.338H150.23V205.198H152.091V203.338Z" fill="#F0F0F0"/>
<path d="M152.091 206.459H150.23V208.319H152.091V206.459Z" fill="#F0F0F0"/>
<path d="M152.091 209.58H150.23V211.44H152.091V209.58Z" fill="#F0F0F0"/>
<path d="M152.091 218.936H150.23V220.796H152.091V218.936Z" fill="#F0F0F0"/>
<path d="M152.091 222.053H150.23V223.913H152.091V222.053Z" fill="#F0F0F0"/>
<path d="M152.091 225.17H150.23V227.03H152.091V225.17Z" fill="#F0F0F0"/>
<path d="M152.091 228.291H150.23V230.151H152.091V228.291Z" fill="#F0F0F0"/>
<path d="M152.091 231.408H150.23V233.269H152.091V231.408Z" fill="#F0F0F0"/>
<path d="M152.091 234.525H150.23V236.386H152.091V234.525Z" fill="#F0F0F0"/>
<path d="M152.091 240.764H150.23V242.624H152.091V240.764Z" fill="#F0F0F0"/>
<path d="M250.249 180.25H248.389V182.11H250.249V180.25Z" fill="#F0F0F0"/>
<path d="M250.249 183.371H248.389V185.232H250.249V183.371Z" fill="#F0F0F0"/>
<path d="M250.249 186.488H248.389V188.349H250.249V186.488Z" fill="#F0F0F0"/>
<path d="M250.249 189.607H248.389V191.468H250.249V189.607Z" fill="#F0F0F0"/>
<path d="M250.249 192.727H248.389V194.587H250.249V192.727Z" fill="#F0F0F0"/>
<path d="M250.249 195.844H248.389V197.704H250.249V195.844Z" fill="#F0F0F0"/>
<path d="M250.249 198.961H248.389V200.821H250.249V198.961Z" fill="#F0F0F0"/>
<path d="M250.249 202.082H248.389V203.942H250.249V202.082Z" fill="#F0F0F0"/>
<path d="M250.249 205.199H248.389V207.06H250.249V205.199Z" fill="#F0F0F0"/>
<path d="M250.249 208.318H248.389V210.179H250.249V208.318Z" fill="#F0F0F0"/>
<path d="M250.249 211.438H248.389V213.298H250.249V211.438Z" fill="#F0F0F0"/>
<path d="M250.249 217.676H248.389V219.536H250.249V217.676Z" fill="#F0F0F0"/>
<path d="M250.249 220.793H248.389V222.653H250.249V220.793Z" fill="#F0F0F0"/>
<path d="M250.249 223.914H248.389V225.774H250.249V223.914Z" fill="#F0F0F0"/>
<path d="M250.249 227.031H248.389V228.892H250.249V227.031Z" fill="#F0F0F0"/>
<path d="M250.249 230.148H248.389V232.009H250.249V230.148Z" fill="#F0F0F0"/>
<path d="M250.249 233.27H248.389V235.13H250.249V233.27Z" fill="#F0F0F0"/>
<path d="M250.249 236.387H248.389V238.247H250.249V236.387Z" fill="#F0F0F0"/>
<path d="M250.249 239.506H248.389V241.366H250.249V239.506Z" fill="#F0F0F0"/>
<path d="M253.2 180.25H251.34V182.11H253.2V180.25Z" fill="#F0F0F0"/>
<path d="M253.2 183.371H251.34V185.232H253.2V183.371Z" fill="#F0F0F0"/>
<path d="M253.2 186.488H251.34V188.349H253.2V186.488Z" fill="#F0F0F0"/>
<path d="M253.2 189.607H251.34V191.468H253.2V189.607Z" fill="#F0F0F0"/>
<path d="M253.2 192.727H251.34V194.587H253.2V192.727Z" fill="#F0F0F0"/>
<path d="M253.2 195.844H251.34V197.704H253.2V195.844Z" fill="#F0F0F0"/>
<path d="M253.2 198.961H251.34V200.821H253.2V198.961Z" fill="#F0F0F0"/>
<path d="M253.2 202.082H251.34V203.942H253.2V202.082Z" fill="#F0F0F0"/>
<path d="M253.2 205.199H251.34V207.06H253.2V205.199Z" fill="#F0F0F0"/>
<path d="M253.2 208.318H251.34V210.179H253.2V208.318Z" fill="#F0F0F0"/>
<path d="M253.2 211.438H251.34V213.298H253.2V211.438Z" fill="#F0F0F0"/>
<path d="M253.2 214.559H251.34V216.419H253.2V214.559Z" fill="#F0F0F0"/>
<path d="M253.2 217.676H251.34V219.536H253.2V217.676Z" fill="#F0F0F0"/>
<path d="M253.2 220.793H251.34V222.653H253.2V220.793Z" fill="#F0F0F0"/>
<path d="M253.2 223.914H251.34V225.774H253.2V223.914Z" fill="#F0F0F0"/>
<path d="M253.2 227.031H251.34V228.892H253.2V227.031Z" fill="#F0F0F0"/>
<path d="M253.2 230.148H251.34V232.009H253.2V230.148Z" fill="#F0F0F0"/>
<path d="M253.2 233.27H251.34V235.13H253.2V233.27Z" fill="#F0F0F0"/>
<path d="M253.2 236.387H251.34V238.247H253.2V236.387Z" fill="#F0F0F0"/>
<path d="M253.2 239.506H251.34V241.366H253.2V239.506Z" fill="#F0F0F0"/>
<path d="M235.692 192.396H233.832V194.257H235.692V192.396Z" fill="#F0F0F0"/>
<path d="M235.692 195.518H233.832V197.378H235.692V195.518Z" fill="#F0F0F0"/>
<path d="M235.692 198.635H233.832V200.495H235.692V198.635Z" fill="#F0F0F0"/>
<path d="M235.692 201.752H233.832V203.612H235.692V201.752Z" fill="#F0F0F0"/>
<path d="M235.692 204.873H233.832V206.733H235.692V204.873Z" fill="#F0F0F0"/>
<path d="M235.692 207.99H233.832V209.851H235.692V207.99Z" fill="#F0F0F0"/>
<path d="M235.692 211.107H233.832V212.968H235.692V211.107Z" fill="#F0F0F0"/>
<path d="M235.692 214.229H233.832V216.089H235.692V214.229Z" fill="#F0F0F0"/>
<path d="M235.692 217.346H233.832V219.206H235.692V217.346Z" fill="#F0F0F0"/>
<path d="M235.692 220.463H233.832V222.323H235.692V220.463Z" fill="#F0F0F0"/>
<path d="M238.648 192.396H236.787V194.257H238.648V192.396Z" fill="#F0F0F0"/>
<path d="M238.648 195.518H236.787V197.378H238.648V195.518Z" fill="#F0F0F0"/>
<path d="M238.648 198.635H236.787V200.495H238.648V198.635Z" fill="#F0F0F0"/>
<path d="M238.648 201.752H236.787V203.612H238.648V201.752Z" fill="#F0F0F0"/>
<path d="M238.648 204.873H236.787V206.733H238.648V204.873Z" fill="#F0F0F0"/>
<path d="M238.648 207.99H236.787V209.851H238.648V207.99Z" fill="#F0F0F0"/>
<path d="M238.648 211.107H236.787V212.968H238.648V211.107Z" fill="#F0F0F0"/>
<path d="M238.648 214.229H236.787V216.089H238.648V214.229Z" fill="#F0F0F0"/>
<path d="M238.648 217.346H236.787V219.206H238.648V217.346Z" fill="#F0F0F0"/>
<path d="M89.885 115.229C89.885 112.035 87.2958 109.445 84.1011 109.445C83.5231 109.445 82.9668 109.532 82.4401 109.69C82.5247 109.11 82.57 108.517 82.57 107.914C82.57 101.149 77.0865 95.6655 70.3218 95.6655C69.551 95.6655 68.7972 95.7403 68.0658 95.8768C66.1831 92.7955 62.7988 90.7324 58.9244 90.7324C53.0598 90.7324 48.3025 95.4445 48.2153 101.289C48.1556 101.287 48.0972 101.28 48.0368 101.28C42.5874 101.28 38.1699 105.697 38.1699 111.146C38.1699 116.596 42.5874 121.013 48.0368 121.013H84.271L84.2638 121.005C87.3824 120.918 89.885 118.368 89.885 115.229Z" fill="#F0F0F0"/>
<path d="M242.496 102.506C242.496 100.466 244.149 98.813 246.189 98.813C246.557 98.813 246.913 98.8687 247.249 98.9691C247.195 98.5985 247.166 98.2206 247.166 97.8355C247.166 93.5164 250.667 90.0153 254.986 90.0153C255.478 90.0153 255.96 90.0632 256.427 90.1498C257.629 88.1825 259.79 86.8652 262.263 86.8652C266.008 86.8652 269.045 89.8737 269.101 93.605C269.139 93.6043 269.176 93.5991 269.214 93.5991C272.694 93.5991 275.514 96.4192 275.514 99.8987C275.514 103.378 272.694 106.198 269.214 106.198H246.08L246.085 106.193C244.094 106.138 242.496 104.51 242.496 102.506Z" fill="#F0F0F0"/>
<path d="M168.949 62.659C168.949 61.4093 169.962 60.3971 171.211 60.3971C171.437 60.3971 171.655 60.4312 171.861 60.4929C171.828 60.2659 171.81 60.0344 171.81 59.7982C171.81 57.1525 173.955 55.0074 176.601 55.0074C176.903 55.0074 177.197 55.0369 177.483 55.0901C178.219 53.885 179.543 53.0781 181.058 53.0781C183.352 53.0781 185.213 54.9215 185.247 57.207C185.271 57.2063 185.293 57.2037 185.316 57.2037C187.448 57.2037 189.176 58.9316 189.176 61.063C189.176 63.1943 187.448 64.9222 185.316 64.9222H171.144L171.147 64.9189C169.928 64.8842 168.949 63.887 168.949 62.659Z" fill="#F0F0F0"/>
<path d="M163.998 280.477C234.244 280.477 291.189 277.151 291.189 273.049C291.189 268.947 234.244 265.621 163.998 265.621C93.7521 265.621 36.8066 268.947 36.8066 273.049C36.8066 277.151 93.7521 280.477 163.998 280.477Z" fill="#F5F5F5"/>
<path d="M46.5426 251.489C46.5426 251.489 43.462 241.168 49.694 239.113C55.926 237.057 59.6233 232.23 59.4146 226.772C59.206 221.313 65.766 216 70.686 221.117C75.606 226.233 74.95 217.183 81.51 214.984C88.07 212.785 93.631 218.121 91.8342 222.997C90.038 227.873 96.5114 230.918 104.263 226.772C112.014 222.625 120.542 230.169 118.902 236.073C117.262 241.977 118.605 242.633 123.509 240.665C128.414 238.697 137.187 244.273 134.112 251.489C131.037 258.705 46.5426 251.489 46.5426 251.489Z" fill="#3448AA"/>
<path opacity="0.3" d="M46.5426 251.489C46.5426 251.489 43.462 241.168 49.694 239.113C55.926 237.057 59.6233 232.23 59.4146 226.772C59.206 221.313 65.766 216 70.686 221.117C75.606 226.233 74.95 217.183 81.51 214.984C88.07 212.785 93.631 218.121 91.8342 222.997C90.038 227.873 96.5114 230.918 104.263 226.772C112.014 222.625 120.542 230.169 118.902 236.073C117.262 241.977 118.605 242.633 123.509 240.665C128.414 238.697 137.187 244.273 134.112 251.489C131.037 258.705 46.5426 251.489 46.5426 251.489Z" fill="white"/>
<path d="M211.398 252.473C208.118 249.193 211.07 243.617 214.35 242.961C217.63 242.305 220.927 236.534 221.083 232.859C221.238 229.185 227.142 217.884 236.326 224.863C245.51 231.842 242.719 225.891 249.363 223.93C256.006 221.969 260.198 227.611 257.282 231.842C257.282 231.842 263.956 230.169 266.706 236.401C269.455 242.633 266.706 246.504 266.706 246.504C266.706 246.504 279.258 246.132 278.129 253.895C276.998 261.657 211.398 252.473 211.398 252.473Z" fill="#3448AA"/>
<path opacity="0.3" d="M211.398 252.473C208.118 249.193 211.07 243.617 214.35 242.961C217.63 242.305 220.927 236.534 221.083 232.859C221.238 229.185 227.142 217.884 236.326 224.863C245.51 231.842 242.719 225.891 249.363 223.93C256.006 221.969 260.198 227.611 257.282 231.842C257.282 231.842 263.956 230.169 266.706 236.401C269.455 242.633 266.706 246.504 266.706 246.504C266.706 246.504 279.258 246.132 278.129 253.895C276.998 261.657 211.398 252.473 211.398 252.473Z" fill="white"/>
<path d="M35.2637 252.672V261.66H288.48V252.672C288.48 251.111 287.391 249.852 285.829 249.852H37.9139C36.3526 249.852 35.2637 251.111 35.2637 252.672Z" fill="#263238"/>
<path d="M274.047 249.85H258.303V261.658H274.047V249.85Z" fill="#3448AA"/>
<path d="M243.871 249.85H228.783V261.658H243.871V249.85Z" fill="#3448AA"/>
<path d="M214.348 249.85H198.604V261.658H214.348V249.85Z" fill="#3448AA"/>
<path d="M184.174 249.85H169.086V261.658H184.174V249.85Z" fill="#3448AA"/>
<path d="M154.654 249.85H139.566V261.658H154.654V249.85Z" fill="#3448AA"/>
<path d="M125.135 249.85H109.391V261.658H125.135V249.85Z" fill="#3448AA"/>
<path d="M94.9591 249.85H79.8711V261.658H94.9591V249.85Z" fill="#3448AA"/>
<path d="M65.4374 249.85H49.6934V261.658H65.4374V249.85Z" fill="#3448AA"/>
<g opacity="0.6">
<path d="M274.047 249.85H258.303V261.658H274.047V249.85Z" fill="white"/>
<path d="M243.871 249.85H228.783V261.658H243.871V249.85Z" fill="white"/>
<path d="M214.348 249.85H198.604V261.658H214.348V249.85Z" fill="white"/>
<path d="M184.172 249.85H169.084V261.658H184.172V249.85Z" fill="white"/>
<path d="M154.652 249.85H139.564V261.658H154.652V249.85Z" fill="white"/>
<path d="M125.133 249.85H109.389V261.658H125.133V249.85Z" fill="white"/>
<path d="M94.9591 249.85H79.8711V261.658H94.9591V249.85Z" fill="white"/>
<path d="M65.4374 249.85H49.6934V261.658H65.4374V249.85Z" fill="white"/>
</g>
<path opacity="0.1" d="M35.2637 252.672V261.66H288.48V252.672C288.48 251.111 287.391 249.852 285.829 249.852H37.9139C36.3526 249.852 35.2637 251.111 35.2637 252.672Z" fill="white"/>
<path d="M172.747 274.087H72.5112C68.7425 274.087 65.6875 271.032 65.6875 267.263V76.0757C65.6875 72.3069 68.7425 69.252 72.5112 69.252H172.747C176.515 69.252 179.57 72.3069 179.57 76.0763V267.263C179.57 271.031 176.515 274.087 172.747 274.087Z" fill="#3448AA"/>
<path opacity="0.4" d="M172.747 274.087H72.5112C68.7425 274.087 65.6875 271.032 65.6875 267.263V76.0757C65.6875 72.3069 68.7425 69.252 72.5112 69.252H172.747C176.515 69.252 179.57 72.3069 179.57 76.0763V267.263C179.57 271.031 176.515 274.087 172.747 274.087Z" fill="white"/>
<path d="M175.728 76.1132V266.857C175.728 268.425 174.468 269.644 172.898 269.644H72.0595C70.6176 269.644 69.5312 268.528 69.5312 267.086V75.8842C69.5312 74.6352 70.4483 73.543 71.6974 73.543H96.9068C97.6185 73.543 98.2647 74.0074 98.5297 74.6772L99.5734 77.2474C99.8391 77.9113 100.485 78.3698 101.196 78.3698H144.115C144.828 78.3698 145.473 77.929 145.739 77.2658L146.782 74.6831C147.048 74.0133 147.694 73.543 148.405 73.543H173.253C174.63 73.543 175.728 74.7375 175.728 76.1132Z" fill="#263238"/>
<path opacity="0.3" d="M175.728 85.4609H69.5312V257.003H175.728V85.4609Z" fill="white"/>
<path opacity="0.6" d="M81.2368 81.2305H82.5488V79.4816H81.2368V81.2305Z" fill="white"/>
<path opacity="0.6" d="M79.1001 81.2305H80.4121V78.8984H79.1001V81.2305Z" fill="white"/>
<path opacity="0.6" d="M76.9614 81.2305H78.2734V78.3152H76.9614V81.2305Z" fill="white"/>
<path opacity="0.6" d="M74.8247 81.2305H76.1367V77.7314H74.8247V81.2305Z" fill="white"/>
<path opacity="0.6" d="M163.707 78.8418H162.93V80.5907H163.707V78.8418Z" fill="white"/>
<path opacity="0.6" d="M164.241 81.2305H170.436V78.2057H164.241V81.2305Z" fill="white"/>
<path d="M173.107 88.8242H72.1504V106.126H173.107V88.8242Z" fill="#3448AA"/>
<path opacity="0.8" d="M173.107 107.607H72.1504V254.576H173.107V107.607Z" fill="white"/>
<g opacity="0.1">
<path d="M170.435 223.74H74.8182C74.6372 223.74 74.4902 223.593 74.4902 223.412C74.4902 223.231 74.6372 223.084 74.8182 223.084H170.435C170.617 223.084 170.763 223.231 170.763 223.412C170.763 223.594 170.617 223.74 170.435 223.74Z" fill="black"/>
</g>
<path opacity="0.3" d="M97.7734 212.579H80.9916C80.5619 212.579 80.2129 212.23 80.2129 211.8C80.2129 211.37 80.5612 211.021 80.9916 211.021H97.7734C98.2037 211.021 98.552 211.37 98.552 211.8C98.552 212.23 98.2037 212.579 97.7734 212.579Z" fill="black"/>
<path opacity="0.3" d="M117.453 215.95H80.9916C80.5619 215.95 80.2129 215.602 80.2129 215.171C80.2129 214.742 80.5612 214.393 80.9916 214.393H117.453C117.884 214.393 118.232 214.741 118.232 215.171C118.232 215.601 117.884 215.95 117.453 215.95Z" fill="black"/>
<g opacity="0.1">
<path d="M170.435 242.898H74.8182C74.6372 242.898 74.4902 242.751 74.4902 242.57C74.4902 242.389 74.6372 242.242 74.8182 242.242H170.435C170.617 242.242 170.763 242.389 170.763 242.57C170.763 242.751 170.617 242.898 170.435 242.898Z" fill="black"/>
</g>
<path opacity="0.3" d="M97.7734 231.735H80.9916C80.5619 231.735 80.2129 231.387 80.2129 230.956C80.2129 230.527 80.5612 230.178 80.9916 230.178H97.7734C98.2037 230.178 98.552 230.526 98.552 230.956C98.552 231.387 98.2037 231.735 97.7734 231.735Z" fill="black"/>
<path opacity="0.3" d="M117.453 235.106H80.9916C80.5619 235.106 80.2129 234.758 80.2129 234.327C80.2129 233.898 80.5612 233.549 80.9916 233.549H117.453C117.884 233.549 118.232 233.897 118.232 234.327C118.232 234.758 117.884 235.106 117.453 235.106Z" fill="black"/>
<path d="M123.465 264.657H121.793C121.092 264.657 120.523 264.088 120.523 263.387V261.715C120.523 261.014 121.092 260.445 121.793 260.445H123.465C124.166 260.445 124.734 261.014 124.734 261.715V263.387C124.734 264.088 124.166 264.657 123.465 264.657Z" stroke="white" stroke-width="0.636" stroke-miterlimit="10"/>
<path opacity="0.6" d="M122.613 73.7955C122.613 74.6004 121.96 75.2532 121.155 75.2532C120.35 75.2532 119.697 74.6004 119.697 73.7955C119.697 72.9906 120.35 72.3379 121.155 72.3379C121.96 72.3379 122.613 72.9906 122.613 73.7955Z" fill="black"/>
<path opacity="0.6" d="M125.561 73.7955C125.561 74.3111 125.143 74.729 124.628 74.729C124.112 74.729 123.693 74.3111 123.693 73.7955C123.693 73.2799 124.111 72.8613 124.628 72.8613C125.143 72.8613 125.561 73.2799 125.561 73.7955Z" fill="black"/>
<path d="M122.63 180.785C138.975 180.785 152.225 167.535 152.225 151.19C152.225 134.846 138.975 121.596 122.63 121.596C106.285 121.596 93.0352 134.846 93.0352 151.19C93.0352 167.535 106.285 180.785 122.63 180.785Z" fill="#263238"/>
<path d="M105.823 148.773C105.431 148.773 105.04 148.623 104.741 148.325C104.144 147.727 104.144 146.759 104.741 146.161C114.604 136.298 130.653 136.298 140.515 146.161C141.113 146.758 141.113 147.727 140.515 148.324C139.919 148.922 138.949 148.922 138.352 148.324C129.682 139.654 115.574 139.654 106.905 148.324C106.606 148.624 106.215 148.773 105.823 148.773Z" fill="white"/>
<path d="M111.016 153.97C110.625 153.97 110.233 153.82 109.935 153.522C109.337 152.924 109.337 151.956 109.935 151.358C113.32 147.972 117.829 146.107 122.629 146.107C127.429 146.107 131.937 147.972 135.323 151.358C135.921 151.956 135.921 152.924 135.323 153.522C134.726 154.119 133.757 154.119 133.16 153.522C130.351 150.714 126.612 149.168 122.629 149.168C118.646 149.168 114.906 150.714 112.098 153.522C111.8 153.821 111.408 153.97 111.016 153.97Z" fill="white"/>
<path d="M116.214 159.16C115.822 159.16 115.43 159.01 115.132 158.712C114.534 158.114 114.534 157.146 115.132 156.548C117.133 154.547 119.797 153.445 122.633 153.445C125.47 153.445 128.134 154.547 130.135 156.548C130.732 157.146 130.732 158.114 130.135 158.712C129.538 159.309 128.569 159.309 127.971 158.712C126.548 157.289 124.652 156.505 122.634 156.505C120.615 156.505 118.719 157.288 117.296 158.712C116.997 159.01 116.605 159.16 116.214 159.16Z" fill="white"/>
<path d="M124.181 162.499C125.036 163.354 125.036 164.741 124.181 165.597C123.325 166.452 121.938 166.452 121.083 165.597C120.228 164.741 120.228 163.354 121.083 162.499C121.938 161.644 123.325 161.644 124.181 162.499Z" fill="white"/>
<path d="M80.524 100.991L77.0098 97.4758L80.524 93.9609" stroke="white" stroke-width="1.272" stroke-miterlimit="10" stroke-linecap="round" stroke-linejoin="round"/>
<path d="M168.236 94.5221C168.236 94.9498 167.889 95.2962 167.462 95.2962C167.034 95.2962 166.688 94.9498 166.688 94.5221C166.688 94.0944 167.035 93.748 167.462 93.748C167.889 93.748 168.236 94.0944 168.236 94.5221Z" fill="white"/>
<path d="M168.236 97.4752C168.236 97.903 167.889 98.2493 167.462 98.2493C167.034 98.2493 166.688 97.903 166.688 97.4752C166.688 97.0475 167.035 96.7012 167.462 96.7012C167.889 96.7012 168.236 97.0475 168.236 97.4752Z" fill="white"/>
<path d="M168.236 100.426C168.236 100.854 167.889 101.201 167.462 101.201C167.034 101.201 166.688 100.854 166.688 100.426C166.688 99.9987 167.035 99.6523 167.462 99.6523C167.889 99.6523 168.236 99.9987 168.236 100.426Z" fill="white"/>
<path d="M146.37 180.785C151.893 180.785 156.371 176.307 156.371 170.784C156.371 165.261 151.893 160.783 146.37 160.783C140.847 160.783 136.369 165.261 136.369 170.784C136.369 176.307 140.847 180.785 146.37 180.785Z" fill="#3448AA"/>
<path d="M142.357 166.771L150.384 174.797" stroke="white" stroke-width="1.272" stroke-miterlimit="10" stroke-linecap="round" stroke-linejoin="round"/>
<path d="M150.384 166.771L142.357 174.797" stroke="white" stroke-width="1.272" stroke-miterlimit="10" stroke-linecap="round" stroke-linejoin="round"/>
<g opacity="0.1">
<path d="M170.435 204.578H74.8182C74.6372 204.578 74.4902 204.431 74.4902 204.25C74.4902 204.069 74.6372 203.922 74.8182 203.922H170.435C170.617 203.922 170.763 204.069 170.763 204.25C170.763 204.432 170.617 204.578 170.435 204.578Z" fill="black"/>
</g>
<g opacity="0.3">
<path d="M153.338 212.948C153.204 212.948 153.071 212.896 152.969 212.795C152.766 212.591 152.766 212.261 152.969 212.057C156.329 208.697 161.797 208.697 165.157 212.057C165.36 212.261 165.36 212.591 165.157 212.795C164.953 212.998 164.623 212.998 164.419 212.795C161.465 209.841 156.66 209.841 153.706 212.795C153.605 212.896 153.471 212.948 153.338 212.948Z" fill="black"/>
<path d="M155.107 214.714C154.974 214.714 154.84 214.663 154.738 214.561C154.535 214.358 154.535 214.028 154.738 213.824C155.892 212.671 157.428 212.035 159.063 212.035C160.698 212.035 162.234 212.67 163.388 213.824C163.591 214.027 163.591 214.357 163.388 214.561C163.184 214.765 162.854 214.765 162.651 214.561C161.695 213.605 160.421 213.078 159.063 213.078C157.706 213.078 156.432 213.605 155.476 214.561C155.374 214.663 155.24 214.714 155.107 214.714Z" fill="black"/>
<path d="M156.879 216.483C156.745 216.483 156.612 216.432 156.51 216.33C156.307 216.127 156.307 215.797 156.51 215.593C157.192 214.911 158.099 214.535 159.066 214.535C160.032 214.535 160.94 214.91 161.621 215.593C161.825 215.796 161.825 216.126 161.621 216.33C161.418 216.533 161.088 216.533 160.884 216.33C160.399 215.845 159.754 215.578 159.066 215.578C158.378 215.578 157.732 215.845 157.247 216.33C157.146 216.432 157.012 216.483 156.879 216.483Z" fill="black"/>
<path d="M159.592 217.623C159.884 217.915 159.884 218.387 159.592 218.679C159.301 218.97 158.828 218.97 158.537 218.679C158.246 218.387 158.246 217.915 158.537 217.623C158.829 217.331 159.301 217.331 159.592 217.623Z" fill="black"/>
</g>
<path d="M166.867 216.028C166.867 217.612 165.582 218.896 163.999 218.896C162.415 218.896 161.131 217.612 161.131 216.028C161.131 214.444 162.415 213.16 163.999 213.16C165.582 213.16 166.867 214.444 166.867 216.028Z" fill="#263238"/>
<path d="M162.85 214.877L165.152 217.18" stroke="white" stroke-width="0.636" stroke-miterlimit="10" stroke-linecap="round" stroke-linejoin="round"/>
<path d="M165.152 214.877L162.85 217.18" stroke="white" stroke-width="0.636" stroke-miterlimit="10" stroke-linecap="round" stroke-linejoin="round"/>
<g opacity="0.3">
<path d="M153.338 231.965C153.204 231.965 153.071 231.913 152.969 231.812C152.766 231.608 152.766 231.278 152.969 231.075C156.329 227.714 161.797 227.715 165.157 231.075C165.36 231.278 165.36 231.608 165.157 231.812C164.953 232.016 164.623 232.016 164.419 231.812C161.465 228.858 156.66 228.858 153.706 231.812C153.605 231.913 153.471 231.965 153.338 231.965Z" fill="black"/>
<path d="M155.107 233.736C154.974 233.736 154.84 233.685 154.738 233.583C154.535 233.38 154.535 233.05 154.738 232.846C155.892 231.692 157.428 231.057 159.063 231.057C160.698 231.057 162.234 231.692 163.388 232.846C163.591 233.049 163.591 233.379 163.388 233.583C163.184 233.786 162.854 233.786 162.651 233.583C161.695 232.626 160.421 232.1 159.063 232.1C157.706 232.1 156.432 232.626 155.476 233.583C155.374 233.685 155.24 233.736 155.107 233.736Z" fill="black"/>
<path d="M156.879 235.504C156.745 235.504 156.612 235.452 156.51 235.351C156.307 235.147 156.307 234.817 156.51 234.613C157.192 233.932 158.099 233.557 159.066 233.557C160.032 233.557 160.94 233.932 161.621 234.613C161.825 234.817 161.825 235.147 161.621 235.351C161.418 235.554 161.088 235.554 160.884 235.351C160.399 234.866 159.754 234.599 159.066 234.599C158.378 234.599 157.732 234.866 157.247 235.351C157.146 235.453 157.012 235.504 156.879 235.504Z" fill="black"/>
<path d="M159.592 236.64C159.884 236.932 159.884 237.404 159.592 237.696C159.301 237.987 158.828 237.987 158.537 237.696C158.246 237.405 158.246 236.932 158.537 236.64C158.829 236.349 159.301 236.349 159.592 236.64Z" fill="black"/>
</g>
<path d="M166.867 235.056C166.867 236.64 165.582 237.924 163.999 237.924C162.415 237.924 161.131 236.639 161.131 235.056C161.131 233.471 162.415 232.188 163.999 232.188C165.582 232.187 166.867 233.471 166.867 235.056Z" fill="#263238"/>
<path d="M162.85 233.904L165.152 236.206" stroke="white" stroke-width="0.636" stroke-miterlimit="10" stroke-linecap="round" stroke-linejoin="round"/>
<path d="M165.152 233.904L162.85 236.206" stroke="white" stroke-width="0.636" stroke-miterlimit="10" stroke-linecap="round" stroke-linejoin="round"/>
<path opacity="0.2" d="M169.998 73.541L69.5312 174.007V75.8829C69.5312 74.6365 70.4497 73.541 71.6961 73.541H96.9061C97.6212 73.541 98.264 74.0068 98.533 74.6759L99.576 77.2474C99.8384 77.91 100.488 78.3692 101.196 78.3692H144.118C144.827 78.3692 145.476 77.9297 145.739 77.2671L146.782 74.6825C147.051 74.0133 147.694 73.541 148.409 73.541H169.998Z" fill="white"/>
<path opacity="0.2" d="M175.731 92.166V100.412L69.5312 206.605V198.366L175.731 92.166Z" fill="white"/>
<path d="M192.242 139.789C192.242 139.789 188.757 144.111 188.237 145.668C187.718 147.225 188.756 146.276 188.756 146.276C188.756 146.276 187.339 158.501 188.243 161.882C189.146 165.262 200.563 165.596 203.807 163.742C207.052 161.888 211.876 126.464 209.074 123.869C206.274 121.273 194.429 121.453 192.242 139.789Z" fill="#263238"/>
<path d="M178.246 120.754L177.59 116.614C177.59 116.614 176.427 114.783 175.907 114.344C175.388 113.906 174.609 110.023 175.258 108.332C175.907 106.64 179.67 105.291 179.67 105.291L181.481 114.344L180.553 115.983L181.292 119.4L178.246 120.754Z" fill="#EBB376"/>
<path d="M200.014 109.006C195.74 109.601 188.269 130.489 185.674 130.183C184.8 130.081 181.051 116.122 181.051 116.122L177.205 118.651C177.205 118.651 180.37 135.761 183.563 137.168C188.558 139.369 199.005 121.852 199.005 121.852L200.014 109.006Z" fill="#3448AA"/>
<path d="M198.929 107.518C196.538 107.707 187.844 123.181 187.844 123.181L193.386 132.101L196.668 128.468L198.929 107.518Z" fill="#3448AA"/>
<path opacity="0.6" d="M198.93 107.516L197.815 117.867L196.667 128.468L193.387 132.103L192.009 129.879L187.844 123.181C187.844 123.181 196.536 107.706 198.93 107.516Z" fill="white"/>
<path opacity="0.2" d="M197.815 117.869L196.667 128.47L193.387 132.104L192.01 129.88C192.266 123.767 195.925 119.614 197.815 117.869Z" fill="black"/>
<path d="M185.075 112.784C185.145 113.056 184.975 113.31 184.694 113.349L179.695 114.049C179.414 114.088 179.129 113.899 179.059 113.626L176.561 103.916C176.491 103.643 176.652 103.321 176.933 103.282L181.932 102.582C182.213 102.543 182.507 102.801 182.578 103.073L185.075 112.784Z" fill="#263238"/>
<path opacity="0.5" d="M182.016 103.089L184.542 112.892C184.613 113.168 184.493 113.379 184.215 113.419L179.976 114.012C179.691 114.052 179.148 113.968 179.077 113.692L176.547 103.854C176.475 103.578 176.929 103.285 177.213 103.245L181.452 102.651C181.732 102.613 181.945 102.813 182.016 103.089Z" fill="white"/>
<path d="M221.27 267.998H227.764C227.983 268 228.172 268.152 228.219 268.366L229.274 273.126C229.363 273.552 229.091 273.971 228.665 274.06C228.608 274.072 228.549 274.078 228.491 274.077C226.39 274.043 224.86 273.914 222.222 273.914C220.597 273.914 215.694 274.084 213.45 274.084C211.205 274.084 210.913 271.867 211.831 271.663C215.952 270.766 219.052 269.522 220.372 268.338C220.617 268.114 220.938 267.992 221.27 267.998Z" fill="#263238"/>
<path d="M193.732 267.826H200.226C200.445 267.828 200.634 267.98 200.682 268.194L201.736 272.954C201.826 273.38 201.553 273.799 201.128 273.888C201.071 273.9 201.012 273.906 200.954 273.906C198.853 273.871 197.323 273.742 194.684 273.742C193.06 273.742 188.157 273.912 185.912 273.912C183.668 273.912 183.376 271.695 184.294 271.491C188.415 270.594 191.515 269.35 192.835 268.166C193.079 267.942 193.4 267.82 193.732 267.826Z" fill="#263238"/>
<path d="M224.709 147.621H196.338C193.64 162.352 185.925 221.966 191.984 268.412L201.456 269.449C201.456 269.449 199.97 198.075 208.451 175.28C209.426 187.479 210.584 200.459 211.589 207.366C214.058 224.366 219.622 268.671 219.622 268.671L229.223 268.931C229.223 268.931 227.12 225.957 226.195 209.25C225.185 191.113 224.749 151.347 224.709 147.621Z" fill="#263238"/>
<path opacity="0.2" d="M224.709 147.621H196.338C193.64 162.352 185.925 221.966 191.984 268.412L201.456 269.449C201.456 269.449 199.97 198.075 208.451 175.28C209.426 187.479 210.584 200.459 211.589 207.366C214.058 224.366 219.622 268.671 219.622 268.671L229.223 268.931C229.223 268.931 227.12 225.957 226.195 209.25C225.185 191.113 224.749 151.347 224.709 147.621Z" fill="white"/>
<path opacity="0.2" d="M208.447 175.283C207.196 178.642 206.155 182.837 205.278 187.556C204.485 176.701 207.658 165.188 207.658 165.188L208.447 175.283Z" fill="black"/>
<path d="M196.104 147.959H224.664V151.359L195.74 151.007L196.104 147.959Z" fill="#263238"/>
<path d="M215.485 146.43H214.465V152.464H215.485V146.43Z" fill="#263238"/>
<path d="M201.036 146.43H200.016V152.464H201.036V146.43Z" fill="#263238"/>
<path d="M209.122 147.365H203.84V151.171H209.122V147.365Z" fill="white"/>
<path opacity="0.2" d="M215.485 146.43H214.465V152.464H215.485V146.43Z" fill="white"/>
<path opacity="0.2" d="M201.036 146.43H200.016V152.464H201.036V146.43Z" fill="white"/>
<path d="M198.932 107.519C198.932 107.519 216.98 106.823 230.425 109.6C230.425 109.6 224.489 134.052 224.714 147.962H196.104C196.104 147.962 194.245 121.874 198.932 107.519Z" fill="#3448AA"/>
<path d="M219.885 108.25C217.293 110.605 210.945 109.734 210.945 109.734C210.945 109.734 206.982 108.649 207.814 107.411C210.148 107.026 211.278 105.936 211.746 104.543C212.016 103.731 212.057 102.817 211.982 101.877C211.948 101.383 211.874 100.882 211.786 100.388L219.635 94.5762C218.606 98.4125 217.347 105.47 219.885 108.25Z" fill="#EBB376"/>
<path opacity="0.2" d="M217.822 98.2695C217.511 102.979 213.641 104.278 211.746 104.542C212.017 103.729 212.058 102.816 211.983 101.876L217.822 98.2695Z" fill="black"/>
<path d="M206.349 82.373C206.349 82.373 204.159 89.4565 207.588 92.8218C211.017 96.1871 213.042 82.6932 213.042 82.6932L206.349 82.373Z" fill="#263238"/>
<path d="M217.894 100.258C215.625 102.66 212.475 102.906 209.957 101.673C208.337 100.883 206.982 99.4749 206.286 97.6401C206.192 97.4 206.114 97.1488 206.043 96.8923C204.814 92.1783 205.374 84.3397 210.494 82.1382C214.133 80.5428 218.387 82.2005 219.981 85.8472C220.441 86.8811 220.641 88.0127 220.58 89.1462C220.379 94.4113 220.509 97.5161 217.894 100.258Z" fill="#EBB376"/>
<path d="M213.129 90.7298C213.167 91.1542 212.921 91.5091 212.636 91.5144C212.351 91.5196 212.123 91.1732 212.112 90.7462C212.101 90.3191 212.327 89.9662 212.605 89.961C212.883 89.9577 213.117 90.2962 213.129 90.7298Z" fill="#263238"/>
<path d="M207.623 90.8288C207.661 91.2532 207.408 91.6087 207.13 91.614C206.852 91.6186 206.617 91.2729 206.606 90.8458C206.595 90.4187 206.821 90.0658 207.099 90.0606C207.377 90.0566 207.614 90.422 207.623 90.8288Z" fill="#263238"/>
<path d="M209.312 91.0547C208.828 92.3765 208.164 93.6256 207.338 94.7657C207.943 95.1803 208.7 95.3056 209.407 95.1088L209.312 91.0547Z" fill="#D58745"/>
<path d="M214.088 89.1789C213.994 89.194 213.901 89.1586 213.842 89.0858C213.457 88.5734 212.853 88.273 212.213 88.275C212.075 88.2881 211.953 88.1864 211.94 88.0486C211.928 87.9109 212.029 87.7889 212.167 87.7764H212.168C212.978 87.7534 213.748 88.1247 214.235 88.7722C214.324 88.8785 214.31 89.0359 214.204 89.1251C214.203 89.1264 214.201 89.1278 214.2 89.1291C214.164 89.1507 214.127 89.1678 214.088 89.1789Z" fill="#263238"/>
<path d="M205.649 89.2465C205.602 89.2661 205.55 89.2707 205.501 89.2602C205.374 89.2045 205.317 89.0562 205.373 88.9303C205.374 88.9283 205.375 88.927 205.375 88.925C205.699 88.1792 206.365 87.638 207.16 87.4733C207.297 87.4536 207.424 87.5481 207.444 87.6845V87.6852C207.461 87.8216 207.368 87.9463 207.232 87.9692C206.608 88.1175 206.09 88.5524 205.836 89.1415C205.793 89.2019 205.724 89.2406 205.649 89.2465Z" fill="#263238"/>
<path d="M216.583 82.6504L216.236 84.9641C216.986 85.3905 217.422 86.2623 217.046 87.167C216.243 89.0989 217.268 92.1578 218.732 93.4068C218.732 93.4068 218.802 92.5619 219.51 92.7823C220.219 93.0027 219.901 97.4019 218.45 99.465C218.45 99.465 220.968 97.2077 222.284 92.6163C223.502 88.3694 223.376 85.2232 222.543 83.5445L216.583 82.6504Z" fill="#263238"/>
<path d="M222.971 93.4191C222.411 94.6229 221.396 95.5551 220.149 96.0116C218.494 96.6047 217.542 95.1523 217.893 93.5234C218.218 92.0783 219.462 89.981 221.177 90.107C222.893 90.2329 223.639 91.9326 222.971 93.4191Z" fill="#EBB376"/>
<path d="M210.426 97.7817C210.426 97.7817 211.29 95.5106 213.421 95.5756" stroke="#263238" stroke-width="0.318" stroke-miterlimit="10" stroke-linecap="round" stroke-linejoin="round"/>
<path d="M208.373 82.6518C209.353 84.6532 215.484 82.5337 217.17 83.8313C218.857 85.1288 223.112 85.651 223.112 85.651C223.112 85.651 225.4 81.5208 220.593 79.2898C212.11 75.3538 202.093 78.6207 205.156 84.7943C205.156 84.7943 204.611 82.2129 206.479 81.53C206.479 81.53 204.714 82.5134 206.401 84.7943L208.373 82.6518Z" fill="#263238"/>
<path d="M219.884 106.799L216.236 108.615L218.061 153.771L229.226 152.466L230.422 109.599L219.884 106.799Z" fill="#3448AA"/>
<path opacity="0.6" d="M230.424 109.602L230.123 120.485L229.892 128.541L229.223 152.465L218.059 153.77L216.234 108.618L219.882 106.801L230.424 109.602Z" fill="white"/>
<path d="M216.236 108.614L220.515 105.24L223.184 107.439L219.884 111.664L216.236 108.614Z" fill="#3448AA"/>
<path opacity="0.7" d="M216.236 108.614L220.515 105.24L223.184 107.439L219.884 111.664L216.236 108.614Z" fill="white"/>
<path d="M207.814 107.41C206.011 109.913 198.355 153.772 198.355 153.772L192.775 153.123C192.775 153.123 195.352 110.443 198.93 107.518L207.814 107.41Z" fill="#3448AA"/>
<path opacity="0.6" d="M207.814 107.41C206.011 109.913 198.355 153.772 198.355 153.772L192.775 153.123C192.775 153.123 195.352 110.443 198.93 107.518L207.814 107.41Z" fill="white"/>
<path d="M194.119 135.568C194.119 135.568 194.578 113.518 203.838 107.41H206.479C206.479 107.41 196.032 118.708 194.119 135.568Z" fill="#263238"/>
<path d="M209.119 105.24L205.352 107.409L205.154 109.889L208.45 107.565L209.119 105.24Z" fill="#3448AA"/>
<path opacity="0.7" d="M209.119 105.24L205.352 107.409L205.154 109.889L208.45 107.565L209.119 105.24Z" fill="white"/>
<path d="M230.425 141.574L227.805 144.099C227.805 144.099 225.742 145.218 225.441 146.051C224.731 148.011 226.784 153.172 227.237 153.771C227.876 154.615 233.52 153.771 233.52 153.771C233.52 153.771 232.165 148.294 231.379 146.894C230.869 145.985 230.27 145.451 230.27 145.451L232.741 143.13L230.425 141.574Z" fill="#EBB376"/>
<path opacity="0.2" d="M230.124 120.487L229.894 128.542C227.506 124.252 229.035 117.869 229.035 117.869C229.035 117.869 229.5 118.945 230.124 120.487Z" fill="black"/>
<path d="M231.704 113.02C235.593 113.338 246.307 127.617 245.908 130.706C245.509 133.794 231.951 145.217 231.951 145.217L228.572 142.227C228.572 142.227 239.567 131.456 239.722 130.255C239.878 129.054 230.124 118.648 230.124 118.648L231.704 113.02Z" fill="#3448AA"/>
<path d="M230.424 109.598C231.834 110.236 236.18 114.064 241.63 121.524L234.948 127.699L230.007 124.512C230.007 124.512 229.174 122.108 228.979 116.724C228.785 111.339 230.424 109.598 230.424 109.598Z" fill="#3448AA"/>
<path opacity="0.6" d="M230.424 109.598C231.834 110.236 236.18 114.064 241.63 121.524L234.948 127.699L230.007 124.512C230.007 124.512 229.174 122.108 228.979 116.724C228.785 111.339 230.424 109.598 230.424 109.598Z" fill="white"/>
</g>
<defs>
<clipPath id="clip0_1327_3719">
<rect width="328" height="328" fill="white"/>
</clipPath>
</defs>
</svg>
