<svg width="25" height="25" viewBox="0 0 25 25" fill="currentColor" xmlns="http://www.w3.org/2000/svg">
    <g clip-path="url(#clip0_1027_3369)">
        <rect width="24.1463" height="24.1463" transform="translate(0.78125 0.425781)" fill="none" />
        <path
            d="M13 11.5195C12.59 11.5195 12.25 11.1795 12.25 10.7695V7.43945C12.25 7.02945 12.59 6.68945 13 6.68945C13.41 6.68945 13.75 7.02945 13.75 7.43945V10.7695C13.75 11.1895 13.41 11.5195 13 11.5195Z"
            fill="currentColor" />
        <path
            d="M13.0208 21.3502C10.4408 21.3502 7.87084 20.9402 5.42084 20.1202C4.51084 19.8202 3.82084 19.1702 3.52084 18.3502C3.22084 17.5302 3.32084 16.5902 3.81084 15.7702L5.08084 13.6502C5.36084 13.1802 5.61084 12.3002 5.61084 11.7502V9.65023C5.61084 5.56023 8.93084 2.24023 13.0208 2.24023C17.1108 2.24023 20.4308 5.56023 20.4308 9.65023V11.7502C20.4308 12.2902 20.6808 13.1802 20.9608 13.6502L22.2308 15.7702C22.7008 16.5502 22.7808 17.4802 22.4708 18.3302C22.1608 19.1802 21.4808 19.8302 20.6208 20.1202C18.1708 20.9502 15.6008 21.3502 13.0208 21.3502ZM13.0208 3.75023C9.76084 3.75023 7.11084 6.40023 7.11084 9.66023V11.7602C7.11084 12.5702 6.79084 13.7402 6.37084 14.4302L5.10084 16.5602C4.84084 16.9902 4.78084 17.4502 4.93084 17.8502C5.08084 18.2502 5.42084 18.5502 5.90084 18.7102C10.5008 20.2402 15.5608 20.2402 20.1608 18.7102C20.5908 18.5702 20.9208 18.2502 21.0708 17.8302C21.2308 17.4102 21.1808 16.9502 20.9508 16.5602L19.6808 14.4402C19.2608 13.7502 18.9408 12.5802 18.9408 11.7702V9.67023C18.9308 6.40023 16.2808 3.75023 13.0208 3.75023Z"
            fill="currentColor" />
        <path
            d="M12.9999 23.9003C11.9299 23.9003 10.8799 23.4603 10.1199 22.7003C9.35992 21.9403 8.91992 20.8903 8.91992 19.8203H10.4199C10.4199 20.5003 10.6999 21.1603 11.1799 21.6403C11.6599 22.1203 12.3199 22.4003 12.9999 22.4003C14.4199 22.4003 15.5799 21.2403 15.5799 19.8203H17.0799C17.0799 22.0703 15.2499 23.9003 12.9999 23.9003Z"
            fill="currentColor" />
        <circle cx="19.4392" cy="4.81612" r="3.29268" fill="#FF0000" />
    </g>
    <defs>
        <clipPath id="clip0_1027_3369">
            <rect width="24.1463" height="24.1463" fill="white" transform="translate(0.78125 0.425781)" />
        </clipPath>
    </defs>
</svg>