<svg width="7" height="10" viewBox="0 0 7 10" fill="none" xmlns="http://www.w3.org/2000/svg">
    <path
        d="M5.95939 4.53088L0.975864 0.908243C0.886333 0.842972 0.78049 0.80374 0.670047 0.794889C0.559603 0.786037 0.448864 0.80791 0.350079 0.858088C0.251294 0.908265 0.168316 0.984791 0.110323 1.0792C0.0523306 1.17361 0.0215849 1.28222 0.0214872 1.39302V8.63591C0.0211491 8.74688 0.0516451 8.85576 0.109574 8.95041C0.167502 9.04506 0.250586 9.12176 0.349558 9.17195C0.44853 9.22214 0.559499 9.24385 0.670088 9.23465C0.780677 9.22546 0.886538 9.18573 0.975864 9.11988L5.95939 5.50044C6.0364 5.4452 6.09913 5.37242 6.14241 5.28812C6.18569 5.20382 6.20826 5.11042 6.20826 5.01566C6.20826 4.9209 6.18569 4.8275 6.14241 4.7432C6.09913 4.6589 6.0364 4.58612 5.95939 4.53088Z"
        fill="currentColor" />
</svg>