<svg width="18" height="24" viewBox="0 0 18 24" fill="none" xmlns="http://www.w3.org/2000/svg">
    <path
        d="M2.22112 0.703193C2.02321 0.703165 1.82724 0.742126 1.64439 0.81785C1.46155 0.893574 1.29541 1.00458 1.15547 1.14452C1.01567 1.28438 0.904806 1.45041 0.829201 1.63313C0.753597 1.81585 0.714738 2.01168 0.714844 2.20942V22.2674C0.714844 22.836 1.17426 23.2969 1.74286 23.2969H1.74665C1.89713 23.2969 2.04614 23.2672 2.18508 23.2094C2.32402 23.1517 2.45016 23.067 2.55623 22.9602C3.5541 21.9631 6.49883 19.0184 7.71514 17.8044C8.05404 17.4636 8.51716 17.2719 8.99923 17.2719C9.48124 17.2719 9.94441 17.4636 10.2833 17.8044C11.5033 19.0222 14.4631 21.9812 15.4497 22.9693C15.6606 23.179 15.9429 23.2969 16.2405 23.2969C16.8166 23.2969 17.2836 22.8303 17.2836 22.2546V2.20942C17.2837 2.01159 17.2448 1.81566 17.1691 1.63286C17.0935 1.45006 16.9825 1.28397 16.8426 1.14408C16.7027 1.00419 16.5366 0.893248 16.3538 0.817597C16.171 0.741946 15.9751 0.70307 15.7773 0.703193H2.22112Z"
        stroke="currentColor" stroke-miterlimit="10" stroke-linecap="round" stroke-linejoin="round" />
</svg>