<svg width="26" height="20" viewBox="0 0 26 20" fill="none" xmlns="http://www.w3.org/2000/svg">
<path d="M0.849609 16.4173H9.01628V18.7507H0.849609V16.4173ZM0.849609 8.25065H11.3496V10.584H0.849609V8.25065ZM0.849609 0.0839844H24.1829V2.41732H0.849609V0.0839844ZM22.6359 10.6133L23.9847 10.157L25.1514 12.1777L24.0826 13.1169C24.1484 13.429 24.1829 13.7524 24.1829 14.084C24.1829 14.4156 24.1484 14.739 24.0826 15.051L25.1514 15.9903L23.9847 18.011L22.6359 17.5547C22.157 17.9854 21.5886 18.3184 20.9619 18.5225L20.6829 19.9173H18.3496L18.0707 18.5225C17.4439 18.3184 16.8755 17.9854 16.3966 17.5547L15.0478 18.011L13.8812 15.9903L14.9499 15.051C14.8841 14.739 14.8496 14.4156 14.8496 14.084C14.8496 13.7524 14.8841 13.429 14.9499 13.1169L13.8812 12.1777L15.0478 10.157L16.3966 10.6133C16.8755 10.1825 17.4439 9.84957 18.0707 9.64552L18.3496 8.25065H20.6829L20.9619 9.64552C21.5886 9.84957 22.157 10.1825 22.6359 10.6133ZM19.5163 15.2507C20.1606 15.2507 20.6829 14.7283 20.6829 14.084C20.6829 13.4396 20.1606 12.9173 19.5163 12.9173C18.8719 12.9173 18.3496 13.4396 18.3496 14.084C18.3496 14.7283 18.8719 15.2507 19.5163 15.2507Z" fill="currentColor"/>
</svg>
