<svg width="20" height="20" viewBox="0 0 20 20" fill="none" xmlns="http://www.w3.org/2000/svg">
    <path
        d="M10.0004 19.9964C9.29719 19.9969 8.60631 19.812 7.99736 19.4604L2.81536 16.4644C2.2091 16.112 1.70572 15.607 1.35535 14.9996C1.00497 14.3922 0.819834 13.7036 0.818359 13.0024V6.99839C0.818359 5.57539 1.58436 4.24839 2.81536 3.53639L7.99736 0.539394C8.60643 0.188566 9.29698 0.00390625 9.99986 0.00390625C10.7027 0.00390625 11.3933 0.188566 12.0024 0.539394L17.1844 3.53639C17.7906 3.88875 18.294 4.39377 18.6444 5.00118C18.9947 5.60858 19.1799 6.29718 19.1814 6.99839V13.0024C19.1814 14.4254 18.4154 15.7524 17.1844 16.4644L12.0034 19.4614C11.3943 19.8128 10.7035 19.9967 10.0004 19.9964ZM10.0004 2.00239C9.65336 2.00239 9.30836 2.09139 8.99936 2.27039L3.81736 5.26739C3.51407 5.44343 3.26222 5.6959 3.08694 5.99962C2.91165 6.30335 2.81905 6.64772 2.81836 6.99839V13.0024C2.81836 13.7134 3.20136 14.3774 3.81736 14.7334L8.99936 17.7304C9.30387 17.9056 9.64904 17.9978 10.0004 17.9978C10.3517 17.9978 10.6969 17.9056 11.0014 17.7304L16.1824 14.7334C16.7984 14.3774 17.1814 13.7134 17.1814 13.0024V6.99839C17.1814 6.28739 16.7984 5.62339 16.1824 5.26739L11.0014 2.27039C10.6971 2.09449 10.3518 2.00204 10.0004 2.00239Z"
        fill="currentColor" />
    <path
        d="M10.002 15.9993C9.73678 15.9993 9.48243 15.8939 9.29489 15.7064C9.10736 15.5189 9.002 15.2645 9.002 14.9993V9.85728C9.002 9.59206 9.10736 9.33771 9.29489 9.15017C9.48243 8.96264 9.73678 8.85728 10.002 8.85728C10.2672 8.85728 10.5216 8.96264 10.7091 9.15017C10.8966 9.33771 11.002 9.59206 11.002 9.85728V14.9993C11.002 15.2645 10.8966 15.5189 10.7091 15.7064C10.5216 15.8939 10.2672 15.9993 10.002 15.9993ZM10 6.61328C9.73478 6.61328 9.48043 6.50792 9.29289 6.32039C9.10536 6.13285 9 5.8785 9 5.61328V5.11328C9 4.84806 9.10536 4.59371 9.29289 4.40617C9.48043 4.21864 9.73478 4.11328 10 4.11328C10.2652 4.11328 10.5196 4.21864 10.7071 4.40617C10.8946 4.59371 11 4.84806 11 5.11328V5.61328C11 5.8785 10.8946 6.13285 10.7071 6.32039C10.5196 6.50792 10.2652 6.61328 10 6.61328Z"
        fill="currentColor" />
</svg>