<svg width="64" height="64" viewBox="0 0 64 64" fill="none" xmlns="http://www.w3.org/2000/svg">
<path d="M23.2513 28.3542C18.818 28.3542 15.2305 24.7667 15.2305 20.3333C15.2305 15.9 18.818 12.3125 23.2513 12.3125C27.6846 12.3125 31.2721 15.9 31.2721 20.3333C31.2721 24.7667 27.6846 28.3542 23.2513 28.3542ZM23.2513 16.6875C22.2844 16.6875 21.357 17.0716 20.6733 17.7553C19.9896 18.4391 19.6055 19.3664 19.6055 20.3333C19.6055 21.3003 19.9896 22.2276 20.6733 22.9113C21.357 23.5951 22.2844 23.9792 23.2513 23.9792C24.2182 23.9792 25.1456 23.5951 25.8293 22.9113C26.513 22.2276 26.8971 21.3003 26.8971 20.3333C26.8971 19.3664 26.513 18.4391 25.8293 17.7553C25.1456 17.0716 24.2182 16.6875 23.2513 16.6875Z" fill="white"/>
<path d="M40.7507 63.3548H23.2507C7.41315 63.3548 0.646484 56.5882 0.646484 40.7507V23.2507C0.646484 7.41315 7.41315 0.646484 23.2507 0.646484H34.9173C36.1132 0.646484 37.1048 1.63815 37.1048 2.83398C37.1048 4.02982 36.1132 5.02148 34.9173 5.02148H23.2507C9.80482 5.02148 5.02148 9.80482 5.02148 23.2507V40.7507C5.02148 54.1965 9.80482 58.9798 23.2507 58.9798H40.7507C54.1965 58.9798 58.9798 54.1965 58.9798 40.7507V26.1673C58.9798 24.9715 59.9715 23.9798 61.1673 23.9798C62.3632 23.9798 63.3548 24.9715 63.3548 26.1673V40.7507C63.3548 56.5882 56.5882 63.3548 40.7507 63.3548Z" fill="white"/>
<path d="M49.5 22.5218C48.3042 22.5218 47.3125 21.5301 47.3125 20.3343V2.8343C47.3125 1.9593 47.8375 1.14263 48.6542 0.821795C49.4708 0.500962 50.4042 0.675962 51.0458 1.28846L56.8792 7.1218C57.725 7.96763 57.725 9.36763 56.8792 10.2135C56.0333 11.0593 54.6333 11.0593 53.7875 10.2135L51.6875 8.11346V20.3343C51.6875 21.5301 50.6958 22.5218 49.5 22.5218Z" fill="white"/>
<path d="M43.6676 10.8553C43.1135 10.8553 42.5593 10.6512 42.1218 10.2137C41.715 9.80202 41.4868 9.24659 41.4868 8.66784C41.4868 8.08908 41.715 7.53366 42.1218 7.12201L47.9551 1.28867C48.801 0.442839 50.201 0.442839 51.0468 1.28867C51.8926 2.13451 51.8926 3.53451 51.0468 4.38034L45.2135 10.2137C44.776 10.6512 44.2218 10.8553 43.6676 10.8553ZM4.78845 54.4595C4.32225 54.4563 3.86925 54.3044 3.49534 54.0259C3.12144 53.7474 2.84613 53.3569 2.70948 52.9112C2.57283 52.4654 2.58197 51.9877 2.73556 51.5475C2.88915 51.1073 3.17918 50.7276 3.56345 50.4637L17.9426 40.8095C21.0926 38.7095 25.4385 38.9428 28.2968 41.3637L29.2593 42.2095C30.7176 43.4637 33.1968 43.4637 34.626 42.2095L46.7593 31.797C49.851 29.1428 54.7218 29.1428 57.8426 31.797L62.5968 35.8803C63.501 36.6678 63.6176 38.0387 62.8301 38.972C62.0426 39.8762 60.6426 39.9928 59.7385 39.2053L54.9843 35.122C53.526 33.8678 51.076 33.8678 49.6176 35.122L37.4843 45.5345C34.3926 48.1887 29.5218 48.1887 26.401 45.5345L25.4385 44.6887C24.0968 43.5512 21.8801 43.4345 20.3926 44.4553L6.04262 54.1095C5.63429 54.3428 5.19679 54.4595 4.78845 54.4595Z" fill="white"/>
</svg>
