<svg width="22" height="22" viewBox="0 0 22 22" fill="none" xmlns="http://www.w3.org/2000/svg">
<g clip-path="url(#clip0_1027_4128)">
<path d="M12.5811 12.8077V19.7741H3.58984C3.58984 15.8015 6.81024 12.5812 10.7828 12.5812C11.4037 12.5812 12.0063 12.6598 12.5811 12.8077ZM10.7828 11.682C7.80223 11.682 5.38809 9.26789 5.38809 6.2873C5.38809 3.30672 7.80223 0.892578 10.7828 0.892578C13.7634 0.892578 16.1775 3.30672 16.1775 6.2873C16.1775 9.26789 13.7634 11.682 10.7828 11.682ZM16.1775 15.2785V12.5812H17.9758V15.2785H20.6731V17.0768H17.9758V19.7741H16.1775V17.0768H13.4802V15.2785H16.1775Z" fill="black"/>
<rect x="13" y="11.8887" width="8" height="8" fill="white"/>
<path d="M20.5162 14.4093L18.665 16.2605L20.5459 18.1414L19.1996 19.4877L17.3187 17.6068L15.4675 19.4581L14.1905 18.181L16.0417 16.3298L14.1509 14.439L15.4972 13.0927L17.388 14.9835L19.2392 13.1323L20.5162 14.4093Z" fill="black"/>
</g>
<defs>
<clipPath id="clip0_1027_4128">
<rect width="21.5789" height="21.5789" fill="white" transform="translate(-0.00585938 -0.00585938)"/>
</clipPath>
</defs>
</svg>
